<svg width="128" height="28" viewBox="0 0 128 28" fill="none" xmlns="http://www.w3.org/2000/svg">
<rect y="2" width="24" height="24" rx="6" fill="#D5FFD9"/>
<path d="M7 6.59375H17V10.4969H7V6.59375Z" fill="#050C0B"/>
<path d="M7 17.4062H17V21.4062H7V17.4062Z" fill="#050C0B"/>
<path d="M7 11.4062L17 14.4062V18.9062L7 15.9062V11.4062Z" fill="#050C0B"/>
<path d="M18.8798 7.31452V5.68548H19.605C19.9974 5.68548 20.1757 5.87903 20.1757 6.16532C20.1757 6.33065 20.0845 6.46774 19.926 6.56048C20.0568 6.62097 20.1162 6.72177 20.1361 6.8629L20.2034 7.31452H19.8785L19.8269 6.92742C19.8071 6.75403 19.7199 6.68145 19.5614 6.68145H19.1968V7.31452H18.8798ZM18 6.5C18 5.62097 18.642 5 19.498 5C20.358 5 21 5.62097 21 6.5C21 7.37903 20.358 8 19.498 8C18.642 8 18 7.37903 18 6.5ZM18.3329 6.5C18.3329 7.21774 18.8164 7.68145 19.498 7.68145C20.1797 7.68145 20.6631 7.21774 20.6631 6.5C20.6631 5.78226 20.1797 5.31855 19.498 5.31855C18.8164 5.31855 18.3329 5.78226 18.3329 6.5ZM19.1968 6.42339H19.5654C19.7596 6.42339 19.8507 6.34274 19.8507 6.18548C19.8507 6.02823 19.7596 5.95161 19.5654 5.95161H19.1968V6.42339Z" fill="#050C0B"/>
<path d="M38.64 22.24C36.8533 22.24 35.4067 21.8133 34.3 20.96C33.2067 20.1067 32.6333 18.84 32.58 17.16H34.82C34.86 18.3067 35.2333 19.1267 35.94 19.62C36.6467 20.1 37.56 20.34 38.68 20.34C39.6533 20.34 40.4333 20.14 41.02 19.74C41.6067 19.34 41.9 18.7667 41.9 18.02C41.9 17.6067 41.8 17.2667 41.6 17C41.4 16.72 41.0267 16.4667 40.48 16.24C39.9333 16.0133 39.1333 15.7933 38.08 15.58C36.32 15.2333 35.0333 14.74 34.22 14.1C33.42 13.4467 33.02 12.4933 33.02 11.24C33.02 10.4667 33.2333 9.78667 33.66 9.2C34.1 8.61333 34.7067 8.16 35.48 7.84C36.2533 7.52 37.1333 7.36 38.12 7.36C40.0133 7.36 41.4333 7.79333 42.38 8.66C43.34 9.52667 43.84 10.68 43.88 12.12H41.68C41.6133 11.16 41.2933 10.4467 40.72 9.98C40.16 9.5 39.2933 9.26 38.12 9.26C37.28 9.26 36.6 9.43333 36.08 9.78C35.5733 10.1267 35.32 10.6 35.32 11.2C35.32 11.64 35.4067 12 35.58 12.28C35.7533 12.5467 36.0933 12.7933 36.6 13.02C37.12 13.2333 37.8933 13.44 38.92 13.64C40.2933 13.92 41.36 14.2533 42.12 14.64C42.8933 15.0267 43.4333 15.4867 43.74 16.02C44.0467 16.5533 44.2 17.2 44.2 17.96C44.2 18.8267 43.9667 19.5867 43.5 20.24C43.0333 20.88 42.38 21.3733 41.54 21.72C40.7 22.0667 39.7333 22.24 38.64 22.24ZM52.7948 14.26L50.5148 22H48.3548L44.6548 11.6H46.9148L49.4748 19.46L51.7548 11.6H53.8348L56.1148 19.46L58.6748 11.6H60.9348L57.2348 22H55.0748L52.7948 14.26ZM61.9973 11.6H64.0973V22H61.9973V11.6ZM61.9973 7.6H64.0973V9.8H61.9973V7.6ZM67.2328 10.1C67.2328 9.20667 67.4461 8.56667 67.8728 8.18C68.3128 7.79333 68.9861 7.6 69.8928 7.6H72.0528V9.32H70.3728C69.9995 9.32 69.7328 9.4 69.5728 9.56C69.4128 9.72 69.3328 9.98 69.3328 10.34V11.6H72.0528V13.32H69.3328V22H67.2328V13.32H65.3728V11.6H67.2328V10.1ZM76.6914 8.4V11.6H79.4114V13.32H76.6914V19.26C76.6914 19.62 76.7714 19.88 76.9314 20.04C77.0914 20.2 77.3581 20.28 77.7314 20.28H79.4114V22H77.2514C76.3447 22 75.6714 21.8067 75.2314 21.42C74.8047 21.0333 74.5914 20.3933 74.5914 19.5V13.32H72.7314V11.6H74.5914V8.4H76.6914ZM81.05 7.6H90.95V9.6H83.27V13.56H90.55V15.52H83.27V22H81.05V7.6ZM96.9916 22.24C95.9382 22.24 95.0249 22.0067 94.2516 21.54C93.4782 21.0733 92.8849 20.4267 92.4716 19.6C92.0582 18.7733 91.8516 17.84 91.8516 16.8C91.8516 15.76 92.0582 14.8267 92.4716 14C92.8849 13.1733 93.4782 12.5267 94.2516 12.06C95.0249 11.5933 95.9382 11.36 96.9916 11.36C98.0449 11.36 98.9582 11.5933 99.7316 12.06C100.518 12.5267 101.118 13.1733 101.532 14C101.945 14.8267 102.152 15.76 102.152 16.8C102.152 17.84 101.945 18.7733 101.532 19.6C101.118 20.4267 100.518 21.0733 99.7316 21.54C98.9582 22.0067 98.0449 22.24 96.9916 22.24ZM94.0116 16.8C94.0116 17.9067 94.2649 18.7933 94.7716 19.46C95.2782 20.1133 96.0182 20.44 96.9916 20.44C97.9782 20.44 98.7249 20.1133 99.2316 19.46C99.7382 18.7933 99.9916 17.9067 99.9916 16.8C99.9916 15.6933 99.7382 14.8133 99.2316 14.16C98.7249 13.4933 97.9782 13.16 96.9916 13.16C96.0182 13.16 95.2782 13.4933 94.7716 14.16C94.2649 14.8133 94.0116 15.6933 94.0116 16.8ZM103.811 11.6H105.831V13.4C106.497 12.12 107.571 11.48 109.051 11.48H109.851V13.46H108.991C108.031 13.46 107.277 13.7067 106.731 14.2C106.184 14.6933 105.911 15.5267 105.911 16.7V22H103.811V11.6ZM124.345 15.52C124.345 14.8267 124.178 14.2733 123.845 13.86C123.512 13.4333 123.032 13.22 122.405 13.22C121.818 13.22 121.258 13.4467 120.725 13.9C120.205 14.34 119.945 15.12 119.945 16.24V22H117.845V15.52C117.845 14.8267 117.678 14.2733 117.345 13.86C117.012 13.4333 116.532 13.22 115.905 13.22C115.318 13.22 114.758 13.4467 114.225 13.9C113.705 14.34 113.445 15.12 113.445 16.24V22H111.345V11.6H113.365V13.06C113.685 12.54 114.105 12.1267 114.625 11.82C115.145 11.5133 115.758 11.36 116.465 11.36C117.198 11.36 117.825 11.54 118.345 11.9C118.878 12.2467 119.278 12.7267 119.545 13.34C119.918 12.74 120.385 12.26 120.945 11.9C121.518 11.54 122.192 11.36 122.965 11.36C123.698 11.36 124.325 11.54 124.845 11.9C125.378 12.2467 125.778 12.72 126.045 13.32C126.312 13.9067 126.445 14.5667 126.445 15.3V22H124.345V15.52Z" fill="white"/>
</svg>
