<svg width="58" height="24" viewBox="0 0 58 24" fill="none" xmlns="http://www.w3.org/2000/svg">
<path d="M2.58936 3.77239H5.12825V3.13398H3.3547V0H2.58936V3.77239ZM9.50715 4.69565C9.90828 4.69565 10.2566 4.60069 10.4836 4.38964C10.6842 4.20498 10.8056 3.94645 10.8056 3.56657V1.06572H10.1141V1.35063H10.1036C9.93998 1.12375 9.69187 0.991852 9.35407 0.991852C8.66786 0.991852 8.18226 1.50891 8.18226 2.31615C8.18226 3.13394 8.77345 3.60878 9.37515 3.60878C9.71828 3.60878 9.92413 3.47161 10.0825 3.29222H10.0983V3.58768C10.0983 3.95701 9.903 4.15222 9.49658 4.15222C9.16402 4.15222 9.01094 4.02031 8.95289 3.85148H8.24032C8.31421 4.37909 8.76817 4.69565 9.50715 4.69565ZM9.49658 3.03369C9.12709 3.03369 8.88427 2.76461 8.88427 2.3056C8.88427 1.85185 9.1271 1.56694 9.49131 1.56694C9.92413 1.56694 10.1353 1.90461 10.1353 2.30032C10.1353 2.7013 9.95049 3.03369 9.49658 3.03369ZM14.1538 0.64368H14.8717V0H14.1538V0.64368ZM14.1538 3.77239H14.8717V1.06577H14.1538V3.77239ZM19.3027 3.85148C19.9783 3.85148 20.4428 3.52436 20.4428 2.98093C20.4428 2.34781 19.9414 2.22118 19.4874 2.12621C19.1021 2.04706 18.7432 2.02596 18.7432 1.79382C18.7432 1.5986 18.928 1.49308 19.2077 1.49308C19.5138 1.49308 19.6986 1.5986 19.7302 1.88878H20.3795C20.3267 1.34535 19.9308 0.991852 19.2183 0.991852C18.6007 0.991852 18.1151 1.27148 18.1151 1.85713C18.1151 2.44805 18.5901 2.57995 19.0757 2.67492C19.4452 2.74878 19.7883 2.77516 19.7883 3.03369C19.7883 3.22363 19.6088 3.34498 19.2921 3.34498C18.9702 3.34498 18.7485 3.2078 18.701 2.89651H18.0359C18.0781 3.47161 18.5162 3.85148 19.3027 3.85148ZM23.4877 3.77234H24.2056V2.20007C24.2056 1.8413 24.4009 1.60915 24.6912 1.60915C24.9551 1.60915 25.1082 1.76743 25.1082 2.07345V3.77234H25.826V2.20007C25.826 1.8413 26.0108 1.60915 26.3117 1.60915C26.5756 1.60915 26.7286 1.76743 26.7286 2.07345V3.77234H27.4465V1.9521C27.4465 1.36118 27.1245 0.991852 26.5544 0.991852C26.2114 0.991852 25.9263 1.17124 25.7416 1.4667H25.731C25.599 1.18179 25.3246 0.991852 24.9815 0.991852C24.6067 0.991852 24.3428 1.18179 24.195 1.42977H24.1792V1.06572H23.4877V3.77234ZM23.0959 3.7724V1.06578H22.378V2.6275C22.378 2.98627 22.1721 3.23952 21.8343 3.23952C21.5282 3.23952 21.3857 3.06541 21.3857 2.74885V1.06578H20.6731V2.8702C20.6731 3.46112 21.0109 3.84627 21.6126 3.84627C21.9927 3.84627 22.2038 3.70382 22.3885 3.45584H22.4044V3.7724H23.0959ZM15.2618 4.65872H15.9796V3.46633H15.9902C16.1433 3.69847 16.3914 3.85148 16.7714 3.85148C17.4682 3.85148 17.9432 3.2975 17.9432 2.42167C17.9432 1.5775 17.484 0.991852 16.7661 0.991852C16.3966 0.991852 16.1433 1.16596 15.9691 1.40338H15.9533V1.06572H15.2618V4.65872ZM16.6183 3.25529C16.1908 3.25529 15.9638 2.93345 15.9638 2.44277C15.9638 1.95737 16.1433 1.57222 16.592 1.57222C17.0353 1.57222 17.2148 1.93099 17.2148 2.44277C17.2148 2.95455 16.9825 3.25529 16.6183 3.25529ZM12.478 3.85148C13.3173 3.85148 13.8926 3.22891 13.8926 2.42167C13.8926 1.61443 13.3173 0.991852 12.478 0.991852C11.6388 0.991852 11.0634 1.61443 11.0634 2.42167C11.0634 3.22891 11.6388 3.85148 12.478 3.85148ZM12.478 3.30277C12.0346 3.30277 11.7918 2.94928 11.7918 2.42167C11.7918 1.89406 12.0346 1.53529 12.478 1.53529C12.9161 1.53529 13.1642 1.89406 13.1642 2.42167C13.1642 2.94928 12.9161 3.30277 12.478 3.30277ZM6.63838 3.85148C7.47767 3.85148 8.05301 3.22891 8.05301 2.42167C8.05301 1.61443 7.47767 0.991852 6.63838 0.991852C5.79914 0.991852 5.2238 1.61443 5.2238 2.42167C5.2238 3.22891 5.79914 3.85148 6.63838 3.85148ZM6.63838 3.30277C6.19499 3.30277 5.95222 2.94928 5.95222 2.42167C5.95222 1.89406 6.19499 1.53529 6.63838 1.53529C7.07648 1.53529 7.32459 1.89406 7.32459 2.42167C7.32459 2.94928 7.07648 3.30277 6.63838 3.30277Z" fill="white"/>
<path d="M3.10693 20.8561H4.32861V18.3435H6.94892V17.2909H4.32861V15.8308H7.42074V14.7868H3.10693V20.8561ZM11.7659 20.9834C12.9202 20.9834 13.6364 20.2449 13.7122 19.3196H12.6084C12.5326 19.8119 12.204 20.0581 11.7406 20.0581C11.0413 20.0581 10.7127 19.5063 10.7127 18.6829C10.7127 17.8426 11.0666 17.3078 11.7575 17.3078C12.1788 17.3078 12.4736 17.5964 12.5495 17.9784H13.67C13.5184 17.0362 12.8275 16.3825 11.7069 16.3825C10.3926 16.3825 9.55001 17.3842 9.55001 18.6829C9.55001 19.9817 10.401 20.9834 11.7659 20.9834ZM16.869 15.8224H18.0149V14.7868H16.869V15.8224ZM16.869 20.8561H18.0149V16.5015H16.869V20.8561ZM24.5714 16.5014H23.4508V20.856H24.5967V18.3859C24.5967 17.7916 24.9674 17.3842 25.473 17.3842C25.9532 17.3842 26.2228 17.7153 26.2228 18.1821V20.856H27.3687V18.0123C27.3687 17.0616 26.7705 16.3825 25.8774 16.3825C25.2876 16.3825 24.8916 16.6287 24.5967 17.0956H24.5714V16.5014ZM32.3534 20.8561H33.4995V14.7868H32.3534V20.8561ZM42.1295 20.9834C43.4692 20.9834 44.3879 19.9817 44.3879 18.6829C44.3879 17.3842 43.4692 16.3825 42.1295 16.3825C40.7898 16.3825 39.8717 17.3842 39.8717 18.6829C39.8717 19.9817 40.7898 20.9834 42.1295 20.9834ZM42.1295 20.1005C41.4221 20.1005 41.0343 19.5318 41.0343 18.6829C41.0343 17.8341 41.4221 17.2569 42.1295 17.2569C42.8292 17.2569 43.2248 17.8341 43.2248 18.6829C43.2248 19.5318 42.8292 20.1005 42.1295 20.1005ZM51.5421 20.9834C52.8818 20.9834 53.8 19.9817 53.8 18.6829C53.8 17.3842 52.8818 16.3825 51.5421 16.3825C50.2024 16.3825 49.2837 17.3842 49.2837 18.6829C49.2837 19.9817 50.2024 20.9834 51.5421 20.9834ZM51.5421 20.1005C50.8342 20.1005 50.4468 19.5318 50.4468 18.6829C50.4468 17.8341 50.8342 17.2569 51.5421 17.2569C52.2412 17.2569 52.6374 17.8341 52.6374 18.6829C52.6374 19.5318 52.2412 20.1005 51.5421 20.1005ZM3.10693 12.2859H5.35666C6.11501 12.2859 6.69641 12.077 7.14301 11.7093C7.77495 11.1828 8.10358 10.3304 8.10358 9.36107C8.10358 7.59775 7.06714 6.31083 5.4578 6.31083H3.10693V12.2859ZM4.32871 11.2413V7.34706H5.30612C6.34251 7.34706 6.86492 8.17438 6.86492 9.36107C6.86492 10.5477 6.41837 11.2413 5.2724 11.2413H4.32871ZM13.1184 13.6899H14.2643V11.8012H14.2811C14.5255 12.1689 14.9215 12.4113 15.5282 12.4113C16.6404 12.4113 17.3988 11.5338 17.3988 10.1466C17.3988 8.80949 16.6657 7.88189 15.5198 7.88189C14.9299 7.88189 14.5255 8.15768 14.2474 8.53375H14.2222V7.99892H13.1184V13.6899ZM15.2838 11.467C14.6013 11.467 14.239 10.9572 14.239 10.18C14.239 9.41121 14.5255 8.80114 15.2417 8.80114C15.9495 8.80114 16.236 9.36942 16.236 10.18C16.236 10.9906 15.8652 11.467 15.2838 11.467ZM23.2977 7.99892H22.1939V12.2859H23.3398V10.1967C23.3398 9.29419 23.8791 8.90142 24.629 8.97666H24.6542V7.98217C24.5868 7.95712 24.511 7.94878 24.3846 7.94878C23.8791 7.94878 23.5841 8.19947 23.3229 8.68417H23.2977V7.99892ZM27.8463 12.2859H28.992V9.79563C28.992 9.22735 29.3038 8.85963 29.7673 8.85963C30.1888 8.85963 30.4332 9.11038 30.4332 9.59507V12.2859H31.5792V9.79563C31.5792 9.22735 31.8739 8.85963 32.3545 8.85963C32.7755 8.85963 33.0199 9.11038 33.0199 9.59507V12.2859H34.1659V9.40286C34.1659 8.46686 33.6517 7.88189 32.7418 7.88189C32.1939 7.88189 31.7393 8.16603 31.4441 8.63403H31.4275C31.2167 8.18278 30.7786 7.88189 30.2307 7.88189C29.6326 7.88189 29.2111 8.18278 28.9755 8.57554H28.9501V7.99892H27.8463V12.2859ZM40.4372 7.99892H39.3165V12.2859H40.462V9.85412C40.462 9.26914 40.8328 8.86803 41.3388 8.86803C41.8188 8.86803 42.0886 9.19391 42.0886 9.65356V12.2859H43.2347V9.48639C43.2347 8.55045 42.636 7.88189 41.7432 7.88189C41.1534 7.88189 40.7572 8.12424 40.462 8.58389H40.4372V7.99892ZM49.5209 12.4029C50.2288 12.4029 50.7876 12.1439 51.1977 11.6257C51.6079 11.1076 51.8124 10.4865 51.8124 9.76219C51.8124 9.18279 51.6415 8.72038 51.2987 8.37493C50.9559 8.02954 50.5178 7.85685 49.9844 7.85685C49.2931 7.85685 48.7374 8.11866 48.3159 8.64238C47.8943 9.16052 47.6841 9.78446 47.6841 10.5143C47.6841 11.1048 47.855 11.5672 48.1978 11.9015C48.5463 12.2358 48.987 12.4029 49.5209 12.4029ZM48.3578 10.5059C48.3578 9.93212 48.4987 9.43907 48.7793 9.02679C49.0657 8.61452 49.4619 8.40838 49.9673 8.40838C50.3495 8.40838 50.6384 8.53652 50.8352 8.79279C51.032 9.04907 51.1299 9.37219 51.1299 9.76219C51.1299 10.3472 50.9896 10.8402 50.7089 11.2413C50.4277 11.6425 50.0403 11.843 49.5458 11.843C49.1641 11.843 48.8689 11.7204 48.6613 11.4753C48.4593 11.2246 48.3578 10.9015 48.3578 10.5059ZM52.2697 8.50871H52.8595L52.1511 12.1597L52.1268 12.286H52.7922L53.5006 8.63502L53.5255 8.50871H54.3261L54.4354 7.96552H53.6348L53.7611 7.30537C53.7948 7.1382 53.8512 7.01841 53.93 6.94599C54.0087 6.87358 54.1516 6.83737 54.3598 6.83737C54.4551 6.83737 54.5421 6.84013 54.6208 6.84572L54.7306 6.27744C54.6068 6.26632 54.483 6.26074 54.3598 6.26074C53.989 6.26074 53.7052 6.33874 53.5084 6.49474C53.3121 6.65074 53.177 6.90979 53.104 7.27192L52.9693 7.96552H52.3795L52.2697 8.50871ZM43.5355 8.751H44.1336V11.2664C44.1336 12.077 44.7489 12.2943 45.305 12.2943C45.7597 12.2943 46.0212 12.2776 46.0212 12.2776V11.4419C46.0212 11.4419 45.8276 11.4503 45.6841 11.4503C45.4314 11.4503 45.2543 11.3416 45.2543 11.0241V8.751H45.9959V7.99892H45.2543V6.6618H44.1336V7.99892H43.5355V8.751ZM36.8339 12.4113C37.9463 12.4113 38.6288 11.7678 38.7888 11.0074H37.6599C37.5336 11.3332 37.272 11.5338 36.8256 11.5338C36.1768 11.5338 35.806 11.1243 35.7216 10.4642H38.8562C38.8562 8.93486 38.1146 7.88189 36.7241 7.88189C35.4606 7.88189 34.5926 8.86803 34.5926 10.1383C34.5926 11.4168 35.4015 12.4113 36.8339 12.4113ZM36.7412 8.7594C37.2638 8.7594 37.6263 9.13542 37.6599 9.6786H35.7387C35.8396 9.11872 36.1343 8.7594 36.7412 8.7594ZM24.866 8.751H25.4643V11.2664C25.4643 12.077 26.0794 12.2943 26.6355 12.2943C27.0905 12.2943 27.3517 12.2776 27.3517 12.2776V11.4419C27.3517 11.4419 27.1579 11.4503 27.0147 11.4503C26.7619 11.4503 26.585 11.3416 26.585 11.0241V8.751H27.3264V7.99892H26.585V6.6618H25.4643V7.99892H24.866V8.751ZM20.5834 12.2859H21.6872V12.2442C21.5861 12.169 21.5356 11.9768 21.5356 11.6508V9.4697C21.5356 8.46692 21.0131 7.89029 19.7155 7.89029C18.4516 7.89029 17.8871 8.5505 17.8534 9.30259H18.8729C18.9067 8.89312 19.1679 8.70092 19.7071 8.70092C20.1874 8.70092 20.4317 8.90147 20.4317 9.21065C20.4317 9.53659 20.1031 9.59507 19.3869 9.69535C18.4263 9.82907 17.6512 10.1299 17.6512 11.0743C17.6512 11.9266 18.2747 12.3862 19.1594 12.3862C19.9009 12.3862 20.2127 12.1355 20.4317 11.8096H20.4486C20.4739 12.0019 20.516 12.2024 20.5834 12.2859ZM19.4375 11.5923C19.033 11.5923 18.7634 11.4503 18.7634 11.0492C18.7634 10.648 19.0583 10.5143 19.6566 10.3806C19.943 10.3138 20.2548 10.2469 20.457 10.1299V10.7734C20.457 11.1912 20.0947 11.5923 19.4375 11.5923ZM10.636 12.4113C11.7482 12.4113 12.4307 11.7678 12.5908 11.0074H11.4617C11.3353 11.3332 11.0741 11.5338 10.6275 11.5338C9.97869 11.5338 9.60796 11.1243 9.5237 10.4642H12.6582C12.6582 8.93486 11.9167 7.88189 10.5264 7.88189C9.2625 7.88189 8.39462 8.86803 8.39462 10.1383C8.39462 11.4168 9.20351 12.4113 10.636 12.4113ZM10.5433 8.7594C11.0657 8.7594 11.428 9.13542 11.4617 9.6786H9.54053C9.64167 9.11872 9.93659 8.7594 10.5433 8.7594ZM56.0148 20.9834C57.0935 20.9834 57.8346 20.4571 57.8346 19.5827C57.8346 18.5641 57.0345 18.3604 56.31 18.2076C55.6948 18.0803 55.1215 18.0463 55.1215 17.6728C55.1215 17.3588 55.4167 17.189 55.8631 17.189C56.352 17.189 56.6466 17.3588 56.6974 17.8256H57.7336C57.6492 16.9513 57.0174 16.3825 55.8802 16.3825C54.8942 16.3825 54.119 16.8324 54.119 17.7747C54.119 18.7254 54.8776 18.9376 55.6523 19.0904C56.2422 19.2093 56.7901 19.2517 56.7901 19.6676C56.7901 19.9732 56.5037 20.1685 55.9983 20.1685C55.484 20.1685 55.1303 19.9477 55.0542 19.4469H53.9926C54.0599 20.3722 54.7596 20.9834 56.0148 20.9834ZM46.7545 22.3415C47.3946 22.3415 47.9508 22.1888 48.3133 21.8492C48.6333 21.5521 48.827 21.1362 48.827 20.525V16.5014H47.7234V16.9598H47.7063C47.4453 16.5948 47.0492 16.3825 46.5101 16.3825C45.4148 16.3825 44.6396 17.2144 44.6396 18.5132C44.6396 19.8289 45.5831 20.5929 46.5438 20.5929C47.0911 20.5929 47.42 20.3722 47.6727 20.0836H47.6981V20.559C47.6981 21.1532 47.3863 21.4672 46.7374 21.4672C46.2066 21.4672 45.9622 21.255 45.8695 20.9834H44.7323C44.8504 21.8322 45.5748 22.3415 46.7545 22.3415ZM46.7374 19.6676C46.1476 19.6676 45.7602 19.2347 45.7602 18.4962C45.7602 17.7662 46.1476 17.3078 46.7291 17.3078C47.42 17.3078 47.7571 17.8511 47.7571 18.4877C47.7571 19.1328 47.4619 19.6676 46.7374 19.6676ZM35.6211 20.8561H39.6739V19.829H36.8427V14.7868H35.6211V20.8561ZM30.7263 20.856H31.8299V20.8136C31.7289 20.7372 31.6781 20.5419 31.6781 20.2109V17.9954C31.6781 16.9767 31.1561 16.391 29.8584 16.391C28.5948 16.391 28.0298 17.0616 27.9962 17.8256H29.0158C29.0495 17.4097 29.3105 17.2144 29.8501 17.2144C30.3302 17.2144 30.5746 17.4182 30.5746 17.7322C30.5746 18.0633 30.2458 18.1227 29.5296 18.2246C28.5695 18.3604 27.7942 18.666 27.7942 19.6252C27.7942 20.491 28.4177 20.9579 29.3022 20.9579C30.0438 20.9579 30.3555 20.7033 30.5746 20.3722H30.5912C30.6165 20.5674 30.659 20.7711 30.7263 20.856ZM29.5803 20.1515C29.1759 20.1515 28.9061 20.0072 28.9061 19.5997C28.9061 19.1923 29.2012 19.0564 29.7994 18.9206C30.0857 18.8527 30.3975 18.7848 30.6 18.666V19.3196C30.6 19.744 30.2375 20.1515 29.5803 20.1515ZM20.7304 20.9834C22.0701 20.9834 22.9885 19.9817 22.9885 18.6829C22.9885 17.3842 22.0701 16.3825 20.7304 16.3825C19.3908 16.3825 18.4724 17.3842 18.4724 18.6829C18.4724 19.9817 19.3908 20.9834 20.7304 20.9834ZM20.7304 20.1005C20.0227 20.1005 19.6351 19.5318 19.6351 18.6829C19.6351 17.8341 20.0227 17.2569 20.7304 17.2569C21.4298 17.2569 21.8258 17.8341 21.8258 18.6829C21.8258 19.5318 21.4298 20.1005 20.7304 20.1005ZM13.889 17.2654H14.4872V19.8204C14.4872 20.6438 15.1022 20.8645 15.6583 20.8645C16.1133 20.8645 16.3745 20.8476 16.3745 20.8476V19.9987C16.3745 19.9987 16.1807 20.0072 16.0375 20.0072C15.7847 20.0072 15.6077 19.8968 15.6077 19.5743V17.2654H16.3492V16.5014H15.6077V15.1432H14.4872V16.5014H13.889V17.2654ZM7.94667 20.8561H9.09253V16.5015H7.94667V20.8561ZM7.94667 15.8224H9.09253V14.7868H7.94667V15.8224Z" fill="white"/>
</svg>
