<svg width="66" height="24" viewBox="0 0 66 24" fill="none" xmlns="http://www.w3.org/2000/svg">
<path d="M6.57562 10.3318C6.55709 10.7693 6.54785 11.3232 6.54785 11.9935C6.54785 12.6638 6.55709 13.2223 6.57562 13.6692C6.5941 14.1067 6.63111 14.4558 6.68665 14.7165C6.75144 14.9771 6.83937 15.1586 6.95045 15.2611C7.07077 15.3634 7.22811 15.4147 7.4225 15.4147C7.61685 15.4147 7.76956 15.3634 7.88064 15.2611C8.00097 15.1586 8.0889 14.9771 8.14444 14.7165C8.20922 14.4558 8.25085 14.1067 8.26939 13.6692C8.28792 13.2223 8.29716 12.6638 8.29716 11.9935C8.29716 11.3232 8.28792 10.7693 8.26939 10.3318C8.25085 9.88491 8.20922 9.53114 8.14444 9.27051C8.0889 9.00983 8.00097 8.8283 7.88064 8.72592C7.76956 8.62348 7.61685 8.57227 7.4225 8.57227C7.22811 8.57227 7.07077 8.62348 6.95045 8.72592C6.83937 8.8283 6.75144 9.00983 6.68665 9.27051C6.63111 9.53114 6.5941 9.88491 6.57562 10.3318Z" fill="white"/>
<path fill-rule="evenodd" clip-rule="evenodd" d="M7.06744 1.62023C3.71982 1.69228 1.0589 4.47077 1.11262 7.83812L1.17862 11.9755L1.11262 16.1129C1.0589 19.4803 3.71982 22.2588 7.06744 22.3308L11.1816 22.4193L15.2957 22.3308C18.6433 22.2588 21.3043 19.4803 21.2506 16.1129L21.1846 11.9755L21.2506 7.83812C21.3043 4.47077 18.6433 1.69228 15.2957 1.62023L11.1816 1.53174L7.06744 1.62023ZM11.3237 17.244L9.76877 18.5985L8.35266 17.0624C8.24158 17.0811 8.1305 17.0951 8.01947 17.1044C7.91762 17.123 7.80192 17.1323 7.67236 17.1323H7.42247C6.76531 17.1323 6.20995 17.0439 5.75643 16.867C5.3029 16.6901 4.93732 16.3968 4.65966 15.9872C4.382 15.5683 4.18299 15.033 4.06266 14.3814C3.94234 13.7204 3.88218 12.9244 3.88218 11.9935C3.88218 11.0626 3.94234 10.2713 4.06266 9.61964C4.18299 8.95867 4.382 8.42342 4.65966 8.01378C4.93732 7.59485 5.3029 7.2923 5.75643 7.10612C6.20995 6.9106 6.76531 6.81286 7.42247 6.81286C8.07963 6.81286 8.63494 6.9106 9.08846 7.10612C9.54198 7.2923 9.90762 7.59485 10.1853 8.01378C10.4629 8.42342 10.662 8.95867 10.7823 9.61964C10.9026 10.2713 10.9628 11.0626 10.9628 11.9935C10.9628 12.9524 10.898 13.7623 10.7684 14.4233C10.6388 15.0842 10.4259 15.6242 10.1297 16.0431L11.3237 17.244ZM15.7062 10.5971V10.0386C15.7062 9.47068 15.6507 9.08433 15.5396 8.87957C15.4286 8.67475 15.2481 8.57232 14.9982 8.57232C14.8038 8.57232 14.6465 8.62353 14.5262 8.72597C14.4151 8.82835 14.3271 9.00988 14.2624 9.27056C14.2068 9.53119 14.1698 9.88496 14.1513 10.3318C14.1327 10.7693 14.1235 11.3233 14.1235 11.9935C14.1235 12.6638 14.1327 13.2223 14.1513 13.6692C14.1698 14.1068 14.2068 14.4558 14.2624 14.7165C14.3271 14.9772 14.4151 15.1587 14.5262 15.2611C14.6465 15.3635 14.8038 15.4147 14.9982 15.4147C15.1555 15.4147 15.2851 15.3775 15.3869 15.303C15.4887 15.2192 15.5674 15.0842 15.6229 14.8981C15.6785 14.7119 15.7155 14.4651 15.734 14.1579C15.7618 13.8414 15.7756 13.4458 15.7756 12.971H18.2746V13.7111C18.2746 14.4093 18.1821 14.9819 17.997 15.4287C17.8119 15.8755 17.5666 16.2293 17.2612 16.4899C16.9557 16.7413 16.604 16.9088 16.206 16.9926C15.8173 17.0857 15.4147 17.1323 14.9982 17.1323C14.2762 17.1323 13.6839 17.0439 13.2211 16.867C12.7583 16.6901 12.3973 16.3968 12.1382 15.9872C11.879 15.5683 11.6985 15.033 11.5967 14.3814C11.5042 13.7204 11.4579 12.9244 11.4579 11.9935C11.4579 11.044 11.5134 10.2387 11.6245 9.57776C11.7448 8.91679 11.9438 8.38149 12.2215 7.97191C12.4991 7.56228 12.8647 7.26902 13.3183 7.09213C13.7718 6.90595 14.3318 6.81286 14.9982 6.81286C15.5813 6.81286 16.0764 6.88736 16.4837 7.03632C16.8909 7.18527 17.2195 7.39938 17.4694 7.67865C17.7286 7.94862 17.9137 8.27911 18.0248 8.6701C18.1451 9.05176 18.2052 9.48467 18.2052 9.96876V10.5971H15.7062Z" fill="white"/>
<path fill-rule="evenodd" clip-rule="evenodd" d="M33.3832 8.64831L35.6466 11.0108L37.91 8.64831H41.8424L37.6099 12.6983L41.8424 16.7482H37.91L35.6466 14.3797L33.3832 16.7482H29.4448L33.6774 12.6983L29.4448 8.64831H33.3832ZM33.165 12.6983L28.5615 8.29346H33.5337L35.6466 10.4989L37.7595 8.29346H42.5542V8.28744H50.6804C52.5385 8.26834 54.1113 9.8312 54.086 11.7064C54.0854 12.3809 53.9042 13.0027 53.5412 13.5561C53.2681 13.9749 52.9218 14.3196 52.507 14.5816L54.2398 16.8193V15.3681C54.2398 14.2311 55.0846 13.5063 56.0563 13.0255C57.0377 12.5402 58.2759 12.237 59.3071 11.9917L59.3086 11.9914L59.3203 11.9884C59.9559 11.8312 60.4971 11.6973 60.8824 11.553C61.0774 11.4798 61.2053 11.4136 61.2784 11.3573C61.2876 11.3501 61.2952 11.3438 61.3018 11.3383C61.2794 11.3177 61.2338 11.2869 61.1439 11.2514C60.9342 11.1689 60.5763 11.1067 60.0341 11.1065C59.4548 11.1125 58.9623 11.1599 58.6262 11.2785C58.4607 11.337 58.3607 11.4036 58.3044 11.4661C58.2566 11.5197 58.2282 11.5834 58.2308 11.6833L58.2394 12.0467H54.3657V11.6918C54.3657 10.9633 54.5079 10.3542 54.7922 9.8552C55.078 9.35391 55.4943 8.98788 56.002 8.72536C56.9981 8.21028 58.3704 8.08252 59.9006 8.08252C61.4673 8.08252 62.768 8.26436 63.689 8.73251C64.155 8.96975 64.5338 9.28548 64.7942 9.69609C65.0552 10.1078 65.1831 10.5924 65.1831 11.1434C65.1831 12.1631 64.5713 12.8126 63.8215 13.2359C63.0934 13.6469 62.177 13.8803 61.416 14.067H65.0511V17.091H54.45L54.4545 17.0971H50.2082L48.6892 15.1203H46.4071V17.0971H42.7192L42.7258 17.1031H37.7593L35.6466 14.8923L33.534 17.1031H28.5615L33.165 12.6983ZM42.5542 16.9388V8.45774L38.1222 12.6983L42.5542 16.9388ZM48.8633 14.7654L50.3823 16.7422H53.7321L51.9729 14.4701C52.0831 14.4188 52.1882 14.362 52.2892 14.2999C52.6741 14.0629 52.9939 13.7479 53.2457 13.3612C53.5701 12.867 53.7321 12.3125 53.7321 11.7039C53.7565 10.0284 52.3456 8.62421 50.6824 8.64228H42.9076V16.7422H46.0532V14.7654H48.8633ZM59.5645 14.4219C59.6746 14.2864 59.8742 14.1712 60.1392 14.067C60.4514 13.9441 60.8535 13.8364 61.3053 13.7289C62.8543 13.3491 64.8297 12.8308 64.8297 11.1434C64.8297 9.1666 63.0046 8.43736 59.9006 8.43736C56.9818 8.43736 54.912 8.91563 54.7322 11.3369C54.7236 11.4509 54.719 11.5691 54.719 11.6918H57.8774C57.8769 11.6784 57.8769 11.6653 57.8774 11.6523C57.8947 10.9323 58.8826 10.7635 60.0326 10.7516C61.1551 10.7516 61.6714 11.0047 61.6714 11.3483C61.6714 11.7723 60.6753 12.0188 59.4243 12.3282L59.3903 12.3366C57.3128 12.8308 54.5931 13.5179 54.5931 15.3681V16.7362H64.6972V14.4219H59.5645ZM61.3216 11.3656C61.3216 11.3656 61.3196 11.3633 61.3185 11.3581C61.3216 11.3628 61.3216 11.3656 61.3216 11.3656ZM50.227 11.7039C50.227 11.5142 50.0787 11.3657 49.8899 11.3657H46.4071V12.036H49.8899C49.9914 12.036 50.0625 12.005 50.126 11.9411C50.1986 11.8683 50.227 11.7955 50.227 11.7039ZM50.5803 11.7039C50.5803 11.3181 50.2742 11.0108 49.8899 11.0108H46.0532V12.3909H49.8899C50.0818 12.3909 50.2442 12.3246 50.3762 12.192C50.5143 12.0534 50.5803 11.8907 50.5803 11.7039Z" fill="white"/>
<path d="M29.7358 22.5919H31.2426V20.5168L32.7522 22.5919H33.5056L35.0152 20.5168V22.5919H36.522V18.7021H34.6385L33.1289 20.647L31.6222 18.7021H29.7358V22.5919Z" fill="white"/>
<path d="M39.6967 18.6064C38.2419 18.6094 37.0514 19.0319 37.0571 20.505V20.7886C37.0514 22.2588 38.2419 22.6843 39.6967 22.6872C41.1487 22.6843 42.3392 22.2588 42.3336 20.7886V20.505C42.3336 19.0348 41.1517 18.6064 39.6967 18.6064ZM40.8268 20.6931C40.8354 21.3298 40.312 21.4456 39.6967 21.4543C39.0786 21.4456 38.5553 21.3298 38.5639 20.6931V20.5976C38.5553 19.9638 39.0786 19.848 39.6967 19.8393C40.312 19.848 40.8354 19.9638 40.8268 20.5976V20.6931Z" fill="white"/>
<path d="M46.5543 20.6526C46.5543 21.0433 46.3329 21.3645 45.942 21.3645H44.2915V19.9406H45.942C46.3329 19.9406 46.5543 20.2589 46.5543 20.6526ZM42.7847 18.7077V22.5974H46.2238C47.2848 22.6119 48.0728 21.7089 48.0642 20.6526C48.0728 19.5904 47.2848 18.6932 46.2238 18.7077H42.7847Z" fill="white"/>
<path d="M52.2594 20.6962C52.268 21.3358 51.7451 21.4458 51.1293 21.4545C50.5114 21.4458 49.991 21.3358 49.9966 20.6962V18.7021H48.4898V20.7917C48.4842 22.262 49.6803 22.6845 51.1293 22.6874C52.5787 22.6845 53.7748 22.262 53.7693 20.7917V18.7021H52.2594V20.6962Z" fill="white"/>
<path d="M54.4473 18.7021V22.5919H58.9708V21.359H55.9541V18.7021H54.4473Z" fill="white"/>
<path d="M59.4854 22.5977H64.0089V21.5992H60.9922V21.1014H64.0089V20.2014H60.9922V19.7035H64.0089V18.708H59.4854V22.5977Z" fill="white"/>
<path d="M30.6034 3.88381V3.06409H32.8366C32.9448 3.06409 33.039 3.10346 33.1158 3.18577C33.196 3.26456 33.2344 3.36118 33.2344 3.47571C33.2344 3.58673 33.196 3.68334 33.1158 3.7657C33.039 3.84444 32.9448 3.88381 32.8366 3.88381H30.6034ZM28.7749 1.65733V6.46826H30.6034V5.29415H33.2938C34.2604 5.3085 35.0804 4.46727 35.0664 3.47571C35.0804 2.48063 34.2604 1.64656 33.2938 1.65733H28.7749Z" fill="white"/>
<path d="M38.7063 1.53174C36.9406 1.53531 35.496 2.05795 35.503 3.87996V4.23077C35.496 6.0492 36.9406 6.57536 38.7063 6.57894C40.4683 6.57536 41.9132 6.0492 41.9061 4.23077V3.87996C41.9061 2.06153 40.4719 1.53174 38.7063 1.53174ZM40.0774 4.11261C40.0881 4.90011 39.453 5.0433 38.7063 5.05407C37.9561 5.0433 37.321 4.90011 37.3315 4.11261V3.9945C37.321 3.21056 37.9561 3.06738 38.7063 3.05666C39.453 3.06738 40.0881 3.21056 40.0774 3.9945V4.11261Z" fill="white"/>
<path d="M49.035 4.70344L47.9495 1.65723H45.8908L44.8023 4.70344L43.7169 1.65723H41.6582L43.7169 6.46815H45.8908L46.9204 4.06269L47.9495 6.46815H50.1235L52.1827 1.65723H50.1235L49.035 4.70344Z" fill="white"/>
<path d="M52.3223 6.46815H57.8109V5.23323H54.1505V4.6175H57.8109V3.50426H54.1505V2.88858H57.8109V1.65723H52.3223V6.46815Z" fill="white"/>
<path d="M58.7847 1.65342V6.4644H60.6129V5.29029H62.2461L63.129 6.4644H65.076L64.0535 5.11489C64.3607 4.96813 64.6084 4.74621 64.7932 4.45627C64.9821 4.16275 65.076 3.83344 65.076 3.47186C65.0902 2.47672 64.2698 1.6427 63.3036 1.65342H58.7847ZM62.8427 3.06023C63.066 3.06023 63.2442 3.24278 63.2442 3.47186C63.2442 3.58282 63.2057 3.67948 63.1254 3.7618C63.0488 3.84059 62.9543 3.87996 62.8427 3.87996H60.6129V3.06023H62.8427Z" fill="white"/>
</svg>
