<svg width="54" height="24" viewBox="0 0 54 24" fill="none" xmlns="http://www.w3.org/2000/svg">
<g clip-path="url(#clip0_2033_4851)">
<path d="M31.677 4.30541C31.7723 4.4006 31.8955 4.46435 32.0355 4.43168C33.25 4.14775 34.4398 3.76116 35.5414 3.17011C35.6739 3.09902 35.7757 2.93696 35.8257 2.80193C35.8827 2.64756 35.9059 2.43563 35.86 2.27476C35.8218 2.14136 35.7559 1.98511 35.6228 1.91973C35.4955 1.85716 35.3695 1.86147 35.2428 1.92943C34.8898 2.11889 34.5266 2.28834 34.1554 2.43933C33.4513 2.71421 32.7232 2.91919 31.9874 3.0912C31.6683 3.16579 31.4995 3.56863 31.5209 3.86779C31.5317 4.01884 31.5652 4.19373 31.677 4.30541Z" fill="white"/>
<path d="M51.1135 4.66492C51.0634 4.55963 50.9834 4.43228 50.8525 4.42128C50.7142 4.40971 50.6248 4.48252 50.5285 4.57256C50.0444 5.02542 49.6513 5.56353 49.1707 6.01906C49.0122 6.15966 48.844 6.28794 48.6653 6.40233C48.7208 6.28573 48.7776 6.16984 48.8374 6.05541C49.0215 5.70246 49.2263 5.36061 49.4489 5.03046C49.5359 4.90597 49.6202 4.78333 49.6773 4.63883C49.7569 4.43793 49.7612 4.1658 49.6754 3.96606C49.6202 3.83754 49.4675 3.65564 49.3005 3.72916C49.2084 3.76971 49.1532 3.80631 49.0794 3.88252C49.0557 3.90695 49.0332 3.93253 49.0103 3.95773C48.957 4.01688 48.9042 4.07638 48.8514 4.13615C48.7453 4.25665 48.6404 4.37828 48.5363 4.50075C48.3382 4.73421 48.1435 4.97065 47.9493 5.20724C47.5686 5.67029 47.1879 6.13349 46.7811 6.57408C46.6681 6.69644 46.5535 6.8173 46.4361 6.9361C46.5061 6.79759 46.5737 6.65785 46.6397 6.51745C46.9008 5.96084 47.1374 5.39301 47.4101 4.84175C47.4897 4.68071 47.5725 4.521 47.6591 4.36353C47.7007 4.28773 47.7434 4.21252 47.7869 4.13789C47.8102 4.09798 47.8351 4.05873 47.8576 4.01843C47.924 3.90068 47.9559 3.7779 47.9881 3.64682C48.0216 3.50872 48.0048 3.28177 47.9427 3.15093C47.886 3.03136 47.8149 2.94519 47.6816 2.90728C47.4769 2.84902 47.2962 3.11714 47.1739 3.24942C47.0931 3.33664 47.0123 3.42381 46.9315 3.51085C46.7531 3.70288 46.574 3.89456 46.395 4.08602C46.0115 4.49619 45.6269 4.9055 45.2427 5.31513C44.9412 5.63653 44.6394 5.95759 44.3383 6.27966C44.4408 5.97877 44.5415 5.67691 44.6405 5.37455C44.7295 5.10292 44.8204 4.83176 44.9055 4.55901C45.001 4.25344 45.029 3.85624 44.8072 3.59282C44.6607 3.41874 44.4175 3.37069 44.2268 3.50891C44.0461 3.63975 43.942 3.86582 43.8251 4.05153C43.7416 4.18438 43.6584 4.31727 43.5749 4.45024C43.4187 4.6991 43.2626 4.948 43.1056 5.19648C42.8236 5.6435 42.5396 6.08963 42.2416 6.52662C41.9631 6.93129 41.6698 7.33678 41.3131 7.67642C41.197 7.77772 41.0723 7.86911 40.9359 7.94135C40.838 7.98207 40.7362 8.01052 40.6309 8.0245C40.6321 8.01931 40.6329 8.01412 40.634 8.00897C40.6375 7.99508 40.6414 7.98114 40.6453 7.96732C40.6896 7.81314 40.7436 7.66175 40.8023 7.5124C40.8314 7.43731 40.8629 7.36299 40.8943 7.28878L40.8951 7.28715C40.9141 7.24484 40.9332 7.20273 40.9526 7.16069C41.2269 6.56955 41.5447 5.99808 41.8795 5.43939C41.9522 5.3185 42.0252 5.1978 42.101 5.07884C42.1791 4.95644 42.2078 4.7975 42.2183 4.65668C42.2284 4.52526 42.2241 4.37328 42.1662 4.25158C42.1293 4.17416 42.0819 4.10042 42.0112 4.0494C41.9133 3.97864 41.7743 4.00442 41.6818 4.06705C40.8601 4.62288 40.0466 5.19191 39.2537 5.78797V5.78599C39.2557 5.76745 39.2572 5.74887 39.2592 5.73033C39.2662 5.66115 39.2747 5.59206 39.2848 5.52315C39.2949 5.45464 39.3066 5.38631 39.3194 5.3183C39.3256 5.28621 39.3423 5.21859 39.352 5.17666C39.3792 5.07997 39.4076 4.98385 39.4422 4.88936C39.4538 4.85789 39.4666 4.82711 39.4791 4.79607C39.495 4.76061 39.5234 4.69728 39.5377 4.66914C39.5599 4.62602 39.584 4.5841 39.608 4.54202C39.7296 4.38799 39.8493 4.23238 39.9655 4.07386C40.0676 3.93397 40.1348 3.78911 40.1624 3.61622C40.1861 3.46611 40.1842 3.26212 40.117 3.12034C40.0668 3.01503 39.9868 2.88769 39.8559 2.87668C39.7215 2.86542 39.6224 2.93425 39.5323 3.02798C39.3586 3.20837 39.2091 3.40529 39.0793 3.61396C38.6616 4.12813 38.2108 4.61313 37.7293 5.0716C37.6724 5.12576 37.6151 5.1796 37.5579 5.23341C37.5405 4.989 37.4811 4.73626 37.3668 4.52375C37.2347 4.27806 37.0485 4.07646 36.764 4.01781C36.517 3.96695 36.2766 4.05679 36.0573 4.15767C35.8364 4.25932 35.6371 4.40305 35.4499 4.55673C34.9904 4.93388 34.5802 5.3641 34.1951 5.81537C34.2458 5.71914 34.2969 5.62291 34.3452 5.52548C34.45 5.31416 34.5121 5.05581 34.4526 4.82011C34.4112 4.6561 34.3364 4.49588 34.1702 4.43328C33.907 4.33422 33.6778 4.60043 33.5171 4.77323C33.3224 4.98269 33.1236 5.18696 32.9369 5.40385C32.696 5.6836 32.4643 5.97114 32.2352 6.26053C31.9696 6.59595 31.7079 6.93435 31.4461 7.27264C31.6209 6.90389 31.779 6.52221 31.8508 6.12311C31.904 5.82745 31.8988 5.45766 31.7033 5.2096C31.559 5.02647 31.3497 4.98269 31.1291 5.02779C31.0105 5.05206 30.8986 5.10675 30.7893 5.15611C30.6802 5.2055 30.575 5.26299 30.4722 5.32426C30.2966 5.42886 30.1268 5.54332 29.9602 5.66208C29.939 5.6077 29.91 5.55741 29.8701 5.51564C29.7851 5.42708 29.6589 5.34915 29.5295 5.39228C28.5649 5.71353 27.6605 6.20607 26.8771 6.85283C26.4616 7.19584 26.0723 7.56389 25.7244 7.97557C25.3376 8.43327 24.9744 8.92384 24.7386 9.47711C24.6412 9.7055 24.5753 9.95773 24.55 10.2101C24.151 10.5147 23.7505 10.8172 23.3487 11.1182C23.9059 10.2676 24.4546 9.41146 24.9867 8.5451C25.1474 8.28342 25.3088 8.02155 25.4566 7.75225C25.5352 7.60895 25.6165 7.46185 25.6702 7.30755C25.7608 7.04723 25.7787 6.69319 25.5834 6.47003C25.4869 6.35971 25.3686 6.32084 25.2291 6.34066C25.1199 6.35619 25.0353 6.43527 24.9563 6.50266C24.8255 6.61422 24.7166 6.75486 24.6072 6.88655C24.5244 6.9863 24.4431 7.08722 24.3621 7.18848C24.3076 7.04204 24.2363 6.90528 24.1436 6.77344C24.0476 6.63691 23.9101 6.50913 23.7585 6.43709C23.1902 6.16705 22.5782 6.47259 22.1114 6.80909C21.6608 7.13382 21.2564 7.51751 20.8676 7.91363C20.8488 7.92784 20.8303 7.94297 20.8127 7.95985C20.7402 8.0298 20.6646 8.09595 20.5865 8.1594C20.4702 8.24235 20.3473 8.31447 20.2161 8.37141C20.1095 8.40555 20.0004 8.42766 19.8887 8.43691C19.8265 8.4352 19.7645 8.43079 19.7033 8.42131C19.7048 8.37389 19.7057 8.32639 19.7052 8.27878C19.7011 7.81004 19.5812 7.28808 19.2767 6.91914C19.0962 6.70055 18.832 6.59096 18.5511 6.61674C18.4014 6.63044 18.2685 6.70028 18.1575 6.79906C18.099 6.8027 18.0415 6.81896 17.9901 6.85326C17.1571 7.40959 16.3977 8.05748 15.7163 8.78193C15.7008 8.79501 15.6859 8.80895 15.6724 8.82455C15.6574 8.84204 15.6422 8.85946 15.6271 8.87696C15.4553 9.06311 15.2891 9.25465 15.1277 9.45056C14.3768 10.306 13.6043 11.1434 12.7616 11.9105C12.4607 12.1844 12.1507 12.4483 11.8299 12.6988C11.4524 12.9861 11.0595 13.2535 10.645 13.4852C10.51 13.5607 10.4079 13.7119 10.3552 13.8525C10.2973 14.0067 10.2747 14.2193 10.3221 14.3799C10.3621 14.515 10.4313 14.6706 10.5665 14.7361C10.6944 14.798 10.8289 14.7988 10.9558 14.7278C11.8133 14.2484 12.5908 13.6245 13.3146 12.9648C13.5157 12.7815 13.7126 12.5936 13.9066 12.403C13.9154 12.4393 13.925 12.4754 13.9364 12.5109C14.0688 12.9254 14.3515 13.2949 14.7583 13.4744C15.1613 13.6522 15.6074 13.6636 16.0314 13.553C17.201 13.2478 18.0535 12.3634 18.668 11.3613C18.594 11.7062 18.5636 12.0574 18.6514 12.4076C18.7481 12.7937 18.9875 13.1694 19.4073 13.2467C19.7138 13.3031 20.0179 13.1681 20.284 13.033C20.6741 12.835 21.0266 12.5584 21.3554 12.2658C21.1989 12.4991 21.0418 12.7319 20.8848 12.9648C20.3174 13.3946 19.7529 13.8284 19.1944 14.2698C18.5036 14.4542 17.8147 14.6457 17.1283 14.8462C16.3815 15.0644 15.6376 15.2923 14.8972 15.5312C14.1874 15.7602 13.4808 15.9992 12.7782 16.2493C12.0698 16.5015 11.3656 16.7655 10.6656 17.0402C10.0336 17.2883 9.40573 17.5466 8.78298 17.8168C8.18941 18.0743 7.60058 18.3426 7.01761 18.6231C6.46953 18.8869 5.92665 19.1615 5.39062 19.4488C4.88632 19.7191 4.38804 20.0006 3.89765 20.2953C3.66461 20.4353 3.4334 20.5784 3.20425 20.7247C3.20783 20.7198 3.21141 20.715 3.21499 20.71C3.87624 19.8009 4.53007 18.8865 5.18219 17.971C5.67332 17.2814 6.16394 16.5915 6.65577 15.9024C6.67877 15.8861 6.70181 15.8699 6.72473 15.8536C7.36232 15.3993 7.9865 14.9268 8.60358 14.4453C9.25515 13.9369 9.89655 13.4156 10.5292 12.8841C11.2017 12.3192 11.8644 11.7427 12.5171 11.1552C13.1825 10.5563 13.8375 9.94608 14.4804 9.32336C15.1106 8.71287 15.7293 8.09046 16.3322 7.45314C16.8997 6.85333 17.4536 6.24044 17.9858 5.60928C18.4939 5.00669 18.9859 4.38869 19.4428 3.74649C19.6327 3.4795 19.8163 3.208 19.9905 2.93049C20.2083 2.58334 20.4542 2.21448 20.5637 1.81839C20.6492 1.50935 20.7136 1.16664 20.6081 0.852904C20.5594 0.708238 20.5 0.567827 20.3875 0.459014C20.2736 0.348886 20.1743 0.300518 20.0255 0.253651C19.8512 0.198713 19.6483 0.216922 19.4714 0.251587C19.2517 0.294636 19.037 0.380298 18.8353 0.475032C18.329 0.712806 17.8722 1.05276 17.44 1.40317C17.0117 1.7505 16.6047 2.12681 16.2097 2.51113C15.4076 3.29134 14.6303 4.09678 13.8758 4.92273C13.1331 5.73571 12.4125 6.56855 11.7104 7.41656C10.9861 8.29144 10.2805 9.18184 9.58871 10.0825C8.92431 10.9475 8.27332 11.8228 7.63022 12.7036C7.11399 13.4107 6.60352 14.1218 6.09456 14.834C5.59092 15.1857 5.07885 15.5265 4.54969 15.8387C4.18941 16.0513 3.81953 16.2559 3.43025 16.4117C3.30384 16.4576 3.17266 16.4973 3.03922 16.5116C3.02735 16.5107 3.0156 16.5093 3.00386 16.5075C2.9594 16.4906 2.91312 16.4848 2.86483 16.4917C2.795 16.4859 2.72969 16.503 2.66896 16.5428C2.5381 16.6154 2.42543 16.7711 2.37853 16.9101C2.32257 17.0759 2.29494 17.2666 2.34562 17.4374C2.38305 17.5636 2.4552 17.7443 2.59072 17.7937C2.67047 17.8228 2.74451 17.8551 2.82878 17.8609C2.92109 17.8674 3.01636 17.8633 3.10835 17.8515C3.24205 17.8345 3.37267 17.794 3.49902 17.7483C3.75806 17.6547 4.0081 17.5423 4.25246 17.418C4.09734 17.6356 3.94248 17.8535 3.78707 18.0708C3.13548 18.982 2.48019 19.8904 1.81592 20.7924C1.47946 21.2493 1.14066 21.7044 0.798985 22.1574C0.592382 22.4312 0.331334 22.7081 0.289511 23.0637C0.263639 23.2837 0.28926 23.5339 0.446629 23.7053C0.548864 23.8166 0.700269 23.868 0.84941 23.8389C1.00798 23.8081 1.14016 23.6954 1.25985 23.597C1.43694 23.4513 1.61529 23.3074 1.79627 23.1665C2.25752 22.8139 2.73251 22.4792 3.218 22.1606C3.76829 21.7994 4.33152 21.4579 4.90384 21.1325C5.51889 20.7829 6.14448 20.4518 6.77779 20.1362C7.4594 19.7966 8.1499 19.4748 8.847 19.1681C9.58704 18.8425 10.3346 18.534 11.0878 18.24C11.1567 18.2131 11.2255 18.1865 11.2944 18.1599C12.1954 17.8144 13.104 17.4886 14.0186 17.1806C14.915 16.8788 15.8175 16.5945 16.724 16.3243C16.2825 16.715 15.8491 17.1147 15.4268 17.5259C14.8435 18.0941 14.2613 18.6748 13.7701 19.3253C13.2153 20.0602 12.7718 20.8815 12.5793 21.7873C12.4837 22.2367 12.4817 22.7493 12.6878 23.1704C12.7841 23.3672 12.9281 23.5606 13.1299 23.6583C13.2775 23.7299 13.4339 23.7755 13.598 23.7729C13.7723 23.7702 13.9335 23.7496 14.0966 23.687C14.2706 23.6204 14.4369 23.5428 14.5937 23.4424C14.8893 23.2531 15.1601 23.0169 15.4061 22.7673C15.9714 22.1934 16.4041 21.5083 16.8402 20.8365C17.7522 19.4313 18.6882 18.0418 19.6276 16.6548C19.9403 16.1932 20.2533 15.7318 20.5662 15.2704C21.5365 15.0258 22.5102 14.7947 23.4871 14.5778C24.659 14.3177 25.8352 14.0766 27.0147 13.8531C27.8637 13.6921 28.7145 13.5409 29.5667 13.3977C29.3956 13.8522 29.2618 14.3236 29.2411 14.8084C29.2357 14.9344 29.2471 15.064 29.2725 15.1871C29.3119 15.3777 29.4409 15.5883 29.6592 15.5781C29.8752 15.568 30.0441 15.3452 30.1013 15.1528C30.2967 14.4958 30.5158 13.8464 30.7533 13.2037C36.4156 12.3064 42.1356 11.4064 47.8642 11.1822C48.1898 11.1695 48.3883 10.9626 48.3735 10.7733C48.3522 10.4965 48.2049 10.3132 47.8425 10.3132C42.3345 10.5291 36.8563 11.1302 31.3747 11.7569C31.445 11.6288 31.5159 11.501 31.5879 11.3739C31.9 10.8225 32.2283 10.2801 32.57 9.7463C32.6154 9.8886 32.6739 10.0261 32.7516 10.1546C32.8455 10.31 32.9677 10.4607 33.1385 10.5359C33.3201 10.616 33.4997 10.6345 33.6955 10.588C34.0887 10.4947 34.4214 10.21 34.7113 9.946C35.0389 9.64779 35.329 9.30884 35.6042 8.96282C35.8872 8.60684 36.1568 8.23968 36.4158 7.86517C36.6991 7.52979 37.0016 7.21101 37.321 6.9061C37.6816 6.562 38.05 6.22678 38.4057 5.87859C38.3921 6.07213 38.3872 6.26514 38.3895 6.45617C37.8572 6.88086 37.3376 7.32389 36.8563 7.80462C36.5354 8.12499 36.2077 8.47902 36.0005 8.88594C35.8719 9.13829 35.7919 9.40151 35.784 9.68572C35.7781 9.8987 35.8282 10.1354 35.9632 10.3064C36.1508 10.5441 36.4455 10.5572 36.7218 10.5288C36.9776 10.5026 37.2277 10.4161 37.4617 10.3132C37.7743 10.1757 38.0758 10.012 38.3467 9.80336C38.6531 9.56746 38.9185 9.2917 39.1185 8.96038C39.3664 8.54909 39.4631 8.05291 39.3905 7.57968C39.368 7.43274 39.3427 7.28657 39.3198 7.14002C39.6543 6.88717 39.993 6.63997 40.3337 6.39644C40.3248 6.41568 40.3155 6.43473 40.3065 6.45404C40.1403 6.82078 39.9767 7.19491 39.8765 7.58591C39.7658 8.01768 39.6753 8.50504 39.8547 8.93286C39.9169 9.08135 40.0233 9.23363 40.1733 9.30459C40.3462 9.38638 40.5039 9.38646 40.6915 9.35398C40.974 9.30517 41.244 9.15304 41.465 8.9754C41.7715 8.72893 42.0342 8.43335 42.2742 8.12348C42.6068 7.69368 42.9079 7.23908 43.2043 6.78381C43.2393 6.72993 43.2738 6.67569 43.3084 6.62169C43.2245 6.85504 43.1386 7.0878 43.0493 7.31924C42.9891 7.47497 42.9277 7.63016 42.8647 7.78477C42.8352 7.85653 42.8057 7.92819 42.7754 7.99964C42.7599 8.03711 42.7439 8.07455 42.728 8.1119C42.7062 8.16284 42.6344 8.3267 42.7311 8.10528C42.6577 8.27367 42.6045 8.4311 42.6068 8.61822C42.6087 8.75108 42.6398 8.94505 42.7331 9.05119C42.8096 9.1386 42.9176 9.20924 43.0407 9.16945C43.1623 9.13031 43.2707 9.02928 43.3282 8.9159C43.4389 8.77148 43.5675 8.6375 43.6883 8.50329C43.9587 8.20252 44.2338 7.90566 44.5092 7.60933C44.9276 7.15906 45.348 6.71053 45.7683 6.26228C45.7097 6.37639 45.6491 6.48997 45.5865 6.60203C45.4995 6.75629 45.3985 6.90462 45.3247 7.06558C45.1798 7.38157 45.0966 7.72782 45.165 8.07517C45.2077 8.29198 45.3216 8.53326 45.5255 8.64284C45.7372 8.75677 45.9466 8.71817 46.1521 8.61455C46.3223 8.52877 46.4552 8.38535 46.5915 8.2554C46.9742 7.89021 47.3316 7.50033 47.6766 7.0996C47.738 7.33364 47.8899 7.5522 48.109 7.66302C48.2096 7.714 48.3257 7.76119 48.4407 7.76657C48.6124 7.77462 48.7337 7.73777 48.8786 7.64673C49.281 7.39453 49.6299 7.06244 49.9485 6.71309C50.2837 6.34519 50.5976 5.95922 50.962 5.61842C51.0712 5.51634 51.1368 5.29999 51.159 5.16083C51.1827 5.01071 51.1808 4.80671 51.1135 4.66492ZM11.0519 9.97016C11.1114 9.8946 11.1711 9.81927 11.2309 9.74386C12.0448 8.7205 12.8812 7.71462 13.7478 6.735C14.6377 5.72909 15.5592 4.75066 16.5164 3.80794C17.0325 3.29967 17.5607 2.79683 18.1325 2.35038C18.4862 2.08333 18.8654 1.83072 19.2769 1.6624C19.37 1.63018 19.4653 1.60365 19.5624 1.58732C19.4093 1.8712 19.2333 2.14521 19.0561 2.41358C18.8376 2.74434 18.6074 3.06727 18.3694 3.38433C18.246 3.5487 18.1201 3.71127 17.9928 3.87269C17.4641 4.5352 16.9081 5.17597 16.3355 5.80113C15.7005 6.49449 15.045 7.16932 14.3756 7.82982C13.6849 8.5115 12.979 9.17797 12.2608 9.83096C11.5531 10.4744 10.8334 11.105 10.1021 11.7218C9.757 12.0128 9.40938 12.3009 9.05885 12.5856C9.71143 11.705 10.3739 10.8315 11.0519 9.97016ZM25.9277 9.39528C26.2933 8.91052 26.7114 8.46737 27.1739 8.07342C27.7207 7.62633 28.3235 7.25065 28.9681 6.96075C28.9706 6.98936 28.9746 7.01704 28.9803 7.04379C28.9073 7.2479 28.8257 7.449 28.7366 7.64692C28.5234 8.0922 28.2706 8.5175 27.9805 8.91741C27.6364 9.36997 27.2452 9.78532 26.8103 10.1524C26.6013 10.3234 26.3822 10.4886 26.1382 10.6048C26.0544 10.6355 25.9687 10.6571 25.8798 10.6675C25.8273 10.6646 25.7758 10.6561 25.7247 10.6428C25.687 10.6244 25.6511 10.603 25.617 10.5785C25.5896 10.55 25.5645 10.5199 25.5409 10.4882C25.5253 10.4586 25.5112 10.4283 25.4982 10.3976C25.4901 10.3671 25.4829 10.3365 25.477 10.3056C25.4763 10.2912 25.4759 10.2768 25.4757 10.2625C25.4805 10.2271 25.4863 10.1919 25.4934 10.157C25.5119 10.0992 25.5329 10.0424 25.5562 9.98638C25.6616 9.77862 25.7908 9.58391 25.9277 9.39528ZM17.5588 11.0846C17.3551 11.3327 17.1292 11.5614 16.8771 11.7608C16.6625 11.9151 16.4323 12.0453 16.1872 12.1455C15.9981 12.2116 15.8033 12.2584 15.6035 12.2733C15.4813 12.2709 15.3608 12.2548 15.2434 12.2212C15.1656 12.1878 15.0922 12.1466 15.0229 12.0977C14.9894 12.0662 14.958 12.0327 14.9287 11.9973C14.9145 11.973 14.9009 11.9483 14.8888 11.9229C14.8851 11.9094 14.881 11.8957 14.8777 11.882C14.8767 11.8664 14.8762 11.8505 14.8758 11.8348C14.8798 11.8055 14.8846 11.7764 14.8903 11.7474C14.9142 11.6733 14.9424 11.6009 14.974 11.5298C15.1545 11.188 15.3913 10.8733 15.6315 10.5698C15.6785 10.5113 15.7268 10.4538 15.7748 10.3962C15.8933 10.2604 16.0112 10.124 16.129 9.9877C16.6144 9.45296 17.1454 8.96034 17.7164 8.51642C17.7743 8.47275 17.8326 8.42982 17.8912 8.38724C17.9279 8.48855 17.9716 8.58695 18.022 8.68039C18.1489 8.91609 18.3171 9.12745 18.5174 9.30377C18.4284 9.55581 18.3223 9.80224 18.2068 10.0429C18.0217 10.4083 17.8084 10.7593 17.5588 11.0846ZM20.7162 11.319C20.4572 11.5259 20.1809 11.7177 19.8771 11.8521C19.8122 11.8761 19.7464 11.8949 19.6778 11.9047C19.6545 11.9029 19.6315 11.8996 19.6085 11.8948C19.5981 11.8892 19.5876 11.8835 19.5775 11.8771C19.5752 11.8744 19.573 11.8715 19.5707 11.8689C19.5683 11.8642 19.5657 11.8597 19.5635 11.855C19.5603 11.8422 19.5568 11.8295 19.5541 11.8166C19.5524 11.7876 19.5516 11.7585 19.5516 11.7294C19.5596 11.6713 19.5708 11.6138 19.5835 11.5565C19.6378 11.3623 19.7068 11.1731 19.7891 10.989C19.9273 10.7138 20.0931 10.454 20.2748 10.2052C20.5307 9.87145 20.8093 9.55964 21.0989 9.25546C21.1898 9.18226 21.2778 9.10539 21.3617 9.02444C21.41 8.97791 21.4508 8.92058 21.4845 8.85853C21.7201 8.62237 21.9629 8.39324 22.2199 8.18042C22.4285 8.01555 22.6496 7.86191 22.8918 7.75113C22.9845 7.71722 23.0799 7.69237 23.1781 7.6818C23.2218 7.68435 23.265 7.69055 23.3074 7.701C23.3387 7.71633 23.3687 7.7339 23.3973 7.75376C23.4207 7.77776 23.4426 7.80311 23.463 7.82971C23.4781 7.85781 23.4915 7.88657 23.5042 7.91576C23.517 7.96155 23.5276 8.00785 23.536 8.05465C23.5385 8.09301 23.5396 8.13141 23.5394 8.16985C23.5376 8.18568 23.5363 8.20159 23.5341 8.21727C22.8304 9.09648 22.123 9.97782 21.3197 10.7692C21.1258 10.9602 20.9255 11.1448 20.7162 11.319ZM16.5863 19.3544C16.2725 19.8324 15.9729 20.3213 15.6472 20.7912C15.5742 20.8964 15.4994 21 15.4231 21.1028C15.1638 21.4387 14.8803 21.7553 14.555 22.0292C14.3949 22.1539 14.2249 22.2669 14.0406 22.3527C13.9451 22.3878 13.8469 22.413 13.7459 22.4235C13.6959 22.4209 13.6466 22.414 13.598 22.402C13.574 22.3908 13.5505 22.3785 13.5278 22.365C13.5213 22.3574 13.5152 22.3496 13.5091 22.3418C13.5006 22.3256 13.4926 22.309 13.4852 22.2922C13.4813 22.2768 13.4781 22.2613 13.4749 22.2458C13.4734 22.2154 13.4727 22.1849 13.473 22.1545C13.4822 22.076 13.4954 21.9981 13.5121 21.9208C13.5748 21.6956 13.6558 21.4744 13.7518 21.2612C13.9246 20.9128 14.1327 20.5833 14.3628 20.2696C14.8296 19.6622 15.3846 19.1172 15.9325 18.5834C16.5021 18.0286 17.092 17.4945 17.6947 16.9756C18.0202 16.6954 18.35 16.4199 18.6823 16.1476C18.7174 16.119 18.7529 16.0908 18.7881 16.0622C18.3753 16.6721 17.9633 17.2824 17.554 17.8946C17.2295 18.38 16.9067 18.8664 16.5863 19.3544ZM24.4624 13.0128C23.6486 13.1855 22.8367 13.3673 22.027 13.5584C22.6066 13.1243 23.187 12.6914 23.7663 12.257C24.118 11.9933 24.4686 11.728 24.8181 11.4613C24.9867 11.7179 25.2022 11.9089 25.5098 11.9925C25.8273 12.0788 26.1616 11.9685 26.4443 11.8283C26.6725 11.7149 26.877 11.557 27.0746 11.3979C27.2915 11.2232 27.5028 11.0415 27.7024 10.8474C28.083 10.4773 28.4185 10.0665 28.7244 9.63346C29.2663 8.8667 29.6852 7.99697 29.9485 7.0943C30.1096 6.9738 30.2728 6.85608 30.4399 6.74402C30.5436 6.67438 30.6492 6.60625 30.7574 6.54277C30.5505 6.98897 30.3191 7.42399 30.0867 7.85735C29.8088 8.37551 29.5259 8.89101 29.255 9.41278C29.1133 9.68572 28.9748 9.9604 28.8446 10.239C28.7803 10.3765 28.7349 10.5072 28.7241 10.6607C28.7148 10.793 28.7217 10.9458 28.7834 11.0669C28.8237 11.146 28.8756 11.2197 28.9498 11.2709C29.0544 11.3431 29.1986 11.318 29.2992 11.2564C29.4642 11.1551 29.6113 11.0225 29.7534 10.8927C29.9013 10.7577 30.0403 10.6131 30.1756 10.4656C30.5143 10.096 30.8306 9.70624 31.1424 9.31419C31.3585 9.04248 31.5714 8.76822 31.7837 8.49358C31.3077 9.48099 30.8525 10.4795 30.4373 11.4939C30.3603 11.6421 30.2849 11.7911 30.2111 11.9409C30.0823 11.9618 29.9534 11.9824 29.8246 12.0037C28.9141 12.1543 28.0053 12.3148 27.0984 12.4856C26.2178 12.6515 25.339 12.8269 24.4624 13.0128ZM34.4799 8.66336C34.387 8.75866 34.2905 8.85052 34.1908 8.93874C34.0634 9.04372 33.9282 9.14123 33.7807 9.21544C33.7248 9.23669 33.6672 9.25291 33.6081 9.26181C33.5839 9.26011 33.5599 9.25678 33.5362 9.25155C33.5233 9.24447 33.5107 9.23684 33.4985 9.22864C33.4815 9.20959 33.4653 9.18989 33.4505 9.16906C33.4323 9.1326 33.4164 9.09505 33.4019 9.05692C33.3678 8.93336 33.3444 8.80709 33.3277 8.68C33.3258 8.66003 33.324 8.64009 33.3224 8.62012C33.4027 8.5048 33.483 8.38949 33.5649 8.2753C33.8346 7.9031 34.1125 7.53668 34.4031 7.18039C34.6755 6.84656 34.9583 6.52043 35.2604 6.21284C35.3965 6.07419 35.5372 5.94002 35.6834 5.81193C35.8637 5.66108 36.0561 5.51924 36.2675 5.41604C36.3367 5.38906 36.4083 5.36862 36.4818 5.35856C36.506 5.36011 36.5299 5.36344 36.5535 5.36843C36.5656 5.37501 36.5776 5.38182 36.5891 5.38953C36.5973 5.39901 36.6053 5.40853 36.6128 5.41856C36.6216 5.43683 36.6297 5.45529 36.6372 5.47407C36.6447 5.50364 36.6513 5.53345 36.6567 5.56345C36.6575 5.58191 36.6578 5.60046 36.6578 5.61892C36.6555 5.63479 36.6528 5.6507 36.6501 5.66653C36.6418 5.692 36.6324 5.7172 36.6228 5.74217C36.5247 5.92964 36.3982 6.10728 36.2845 6.28368C36.1397 6.50855 35.9917 6.73151 35.8404 6.95208C35.7524 7.08017 35.663 7.20718 35.5725 7.33353C35.2355 7.79746 34.8808 8.25249 34.4799 8.66336ZM38.586 8.02887C38.5832 8.03475 38.5804 8.04064 38.5777 8.04644C38.5785 8.04296 38.5793 8.03951 38.5801 8.03619C38.6254 7.92865 38.6062 7.98644 38.586 8.02887ZM38.5582 8.0836C38.5412 8.11635 38.5231 8.1484 38.5037 8.17972C38.4343 8.27259 38.3568 8.35918 38.2737 8.44016C38.0835 8.60793 37.8732 8.7529 37.6513 8.87572C37.594 8.90746 37.5356 8.93692 37.4768 8.96572C37.3282 9.03284 37.1745 9.09153 37.0169 9.13422C37.1249 9.01558 37.2376 8.90108 37.3515 8.78924C37.4359 8.70633 37.5224 8.62542 37.6092 8.54502C37.9009 8.27986 38.2014 8.02419 38.5078 7.77532C38.5248 7.87802 38.5423 7.98068 38.5582 8.0836ZM48.4337 6.92746C48.4287 6.94113 48.424 6.95495 48.4182 6.96846C48.3689 7.07982 48.3968 7.01344 48.4337 6.92746Z" fill="white"/>
<path d="M52.374 2.85132C52.4105 2.81442 52.4513 2.76727 52.5014 2.71193C52.5519 2.65658 52.6021 2.59919 52.6568 2.53769C52.7093 2.47619 52.7594 2.41675 52.8052 2.3614C52.8507 2.30606 52.8895 2.25686 52.9214 2.21586C52.9533 2.17691 52.9692 2.15027 52.9738 2.13592C52.9785 2.12157 52.9808 2.10927 52.9808 2.09902C52.9808 2.06007 52.9509 2.03958 52.8919 2.03958C52.8095 2.03958 52.7046 2.06212 52.5791 2.10722L52.5815 2.12567C52.5815 2.13592 52.5745 2.16052 52.5585 2.20151C52.5449 2.24456 52.5267 2.29786 52.5038 2.3614C52.447 2.53154 52.4035 2.69553 52.374 2.85132ZM52.1914 3.50727C52.2963 3.50727 52.4012 3.47242 52.5061 3.40273C52.611 3.33303 52.7116 3.23669 52.8072 3.1137C52.6024 3.18501 52.4544 3.34815 52.3282 3.40478L52.2963 3.40888C52.212 3.40888 52.1526 3.35763 52.1207 3.25719C52.0955 3.18544 52.0819 3.0973 52.0819 2.99276C52.0819 2.80007 52.1071 2.60739 52.1596 2.41675C52.1868 2.29991 52.2186 2.20151 52.2575 2.11952C52.2963 2.03958 52.3305 1.99243 52.3647 1.97808L52.3624 1.96168C52.3624 1.94938 52.3693 1.93913 52.3853 1.92889C52.4059 1.91454 52.4583 1.89813 52.5379 1.87969C52.6133 1.86944 52.6797 1.86534 52.7365 1.86534C52.8254 1.86534 52.9078 1.87559 52.9808 1.89404C53.0628 1.91864 53.1222 1.95963 53.163 2.01703C53.186 2.05393 53.1976 2.09287 53.1976 2.12977C53.1976 2.25071 53.104 2.42085 52.9167 2.63813C52.8414 2.72217 52.7547 2.81647 52.6545 2.92101L52.8118 2.87797C52.8689 2.86362 52.9261 2.85747 52.9808 2.85747C53.0356 2.76522 53.0834 2.67093 53.1288 2.57664C53.2135 2.39215 53.2749 2.22611 53.3091 2.08057C53.3208 2.02113 53.3274 1.96783 53.3274 1.92478C53.3184 1.81614 53.2796 1.74235 53.2112 1.6993C53.1677 1.6747 53.1129 1.6624 53.0469 1.6624C52.9715 1.6624 52.8895 1.6788 52.7959 1.7116C52.684 1.75055 52.5725 1.80384 52.4583 1.87559C52.3441 1.94733 52.2462 2.02318 52.1662 2.10517C52.0749 2.19536 52.0112 2.27736 51.9793 2.35115C51.8857 2.62378 51.8332 2.85747 51.8262 3.0481C51.8262 3.1219 51.8309 3.18339 51.8422 3.23464C51.8651 3.34533 51.9199 3.42323 52.0112 3.46832C52.0613 3.49497 52.1207 3.50727 52.1914 3.50727ZM52.3282 3.74095C52.2392 3.74095 52.1549 3.72865 52.0725 3.70611C51.9428 3.67126 51.8309 3.60976 51.7326 3.52162C51.6301 3.42937 51.557 3.31048 51.5139 3.16494C51.4817 3.07065 51.4681 2.96816 51.4681 2.85952C51.4681 2.78982 51.4727 2.71398 51.4863 2.63608C51.4727 2.63198 51.4591 2.62788 51.4475 2.62173C51.4133 2.60329 51.395 2.56844 51.395 2.52129C51.395 2.4434 51.4385 2.3409 51.5252 2.21176C51.5912 2.11337 51.6759 2.01498 51.7808 1.91454C51.8833 1.81409 51.9999 1.72595 52.1296 1.646C52.3464 1.51481 52.5632 1.44922 52.78 1.44922C52.8736 1.44922 52.9602 1.45537 53.0445 1.47177C53.2866 1.51686 53.4575 1.59886 53.5558 1.7198C53.6012 1.77515 53.6242 1.84279 53.6242 1.92273V1.96168C53.5923 2.27736 53.5146 2.57664 53.3938 2.86156C53.3231 3.02965 53.2361 3.17724 53.1335 3.30843C52.9078 3.59746 52.6386 3.74095 52.3282 3.74095Z" fill="white"/>
<path d="M50.2419 10.2083C49.9144 10.1798 49.5791 10.1823 49.2559 10.2247C49.1316 10.2411 49.0252 10.3042 48.9545 10.3797C48.8752 10.465 48.8228 10.5929 48.8309 10.6983C48.8383 10.7956 48.867 10.9071 48.9626 10.9805C49.0457 11.0446 49.1553 11.0894 49.2785 11.0733C49.4575 11.0498 49.639 11.0391 49.8212 11.0398C49.8915 11.0424 49.9614 11.0463 50.0313 11.0523C50.158 11.0634 50.2668 11.0378 50.3619 10.9748C50.4622 10.9082 50.5403 10.7948 50.5601 10.6955C50.5811 10.5918 50.5811 10.4736 50.5104 10.378C50.4548 10.3023 50.3658 10.219 50.2419 10.2083Z" fill="white"/>
</g>
<defs>
<clipPath id="clip0_2033_4851">
<rect width="54" height="24" fill="white"/>
</clipPath>
</defs>
</svg>
