<svg width="24" height="24" viewBox="0 0 24 24" fill="none" xmlns="http://www.w3.org/2000/svg">
<g clip-path="url(#clip0_2033_4856)">
<path d="M12 17.0614C9.91836 17.0614 7.9821 18.13 6.87126 19.8907L5.49258 22.076L6.02226 22.4107C6.18792 22.5061 6.35622 22.5973 6.52674 22.6849L7.88616 20.5313C8.7771 19.1189 10.3303 18.2622 12 18.2621C13.6698 18.2621 15.2228 19.1188 16.1138 20.5313L17.4727 22.6849C17.6432 22.5974 17.8115 22.5061 17.9771 22.4107L18.5074 22.076L17.1287 19.8907C16.0178 18.1299 14.0817 17.0614 12 17.0614ZM12.0738 21.8657L12 21.8627C11.6313 21.8629 11.2943 22.0644 11.1187 22.3843L11.086 22.45L10.4215 23.9004C10.8397 23.9554 11.2646 23.9893 11.6953 24L12 23.3348L12.3041 24C12.7349 23.9893 13.1601 23.9554 13.5785 23.9004L12.9146 22.45L12.8818 22.3843C12.718 22.0858 12.4134 21.8905 12.0738 21.8657ZM12.6 7.44378V0H11.4V7.44378L9.47346 0.253753L8.31444 0.564351L10.2404 7.7538L6.51972 1.30803L5.48027 1.90813L9.201 8.35332L3.93926 3.09074L3.09023 3.93991L8.35194 9.2025L1.90781 5.48117L1.30781 6.5208L7.75254 10.2421L0.564258 8.31582L0.253711 9.47502L7.44318 11.4019H0V12.6021H7.44318L0.253711 14.5289L0.564258 15.6881L7.75254 13.7612L1.30781 17.4832L1.90781 18.5228L8.35194 14.8009L3.09023 20.0641L3.93926 20.9132L7.87296 16.9778C8.2104 16.6402 8.4 16.1824 8.4 15.705V12.261C8.4 10.2725 10.0119 8.66052 12 8.6604C13.9882 8.6604 15.6 10.2725 15.6 12.261V15.7055C15.6 16.183 15.7896 16.6408 16.1271 16.9784L20.0608 20.9132L20.9098 20.0641L15.6481 14.8015L22.0922 18.5228L22.6922 17.4832L16.2475 13.7612L23.4358 15.6881L23.7463 14.5289L16.5574 12.6021H24V11.4019H16.5568L23.7463 9.47502L23.4358 8.31582L16.2475 10.2415L22.6922 6.5208L22.0922 5.48117L15.6469 9.2025L20.9098 3.93932L20.0613 3.09074L14.7985 8.35392L18.5197 1.90813L17.4803 1.30803L13.759 7.7538L15.6856 0.564351L14.5265 0.253753L12.6 7.44378ZM12 19.4623C10.8073 19.4624 9.70752 20.1067 9.1242 21.1472L7.92126 23.2921C8.30442 23.4306 8.69652 23.5501 9.09666 23.6495L10.1707 21.7344C10.5416 21.0725 11.2414 20.6626 12 20.6626C12.7587 20.6626 13.4583 21.0725 13.8293 21.7344L14.9027 23.6495C15.3029 23.5501 15.695 23.4305 16.0781 23.2921L14.8758 21.1472C14.2925 20.1067 13.1927 19.4623 12 19.4623Z" fill="#E3EDEB"/>
</g>
<defs>
<clipPath id="clip0_2033_4856">
<rect width="24" height="24" fill="white"/>
</clipPath>
</defs>
</svg>
