<svg width="133" height="24" viewBox="0 0 133 24" fill="none" xmlns="http://www.w3.org/2000/svg">
<g clip-path="url(#clip0_2033_4861)">
<path fill-rule="evenodd" clip-rule="evenodd" d="M23.0786 0.562399C23.8552 -0.181556 25.0793 -0.184939 25.86 0.537496L25.9339 0.609276L26.1863 0.874416C28.7433 3.62934 29.6961 6.83982 29.4517 9.97524C29.2037 13.1549 27.7389 16.1533 25.6953 18.5228C23.653 20.8907 20.9263 22.7555 17.979 23.5649C14.9945 24.3844 11.7304 24.1231 8.89704 22.1196C6.49389 20.4202 5.57895 17.6737 5.51679 15.0056C4.16825 14.3431 2.74932 13.5197 1.26053 12.5183L0.867148 12.2507L0.783346 12.1901C-0.0618829 11.5433 -0.255143 10.3462 0.360875 9.4674C0.977081 8.58858 2.17693 8.3502 3.08401 8.9088L3.17127 8.96544L3.52965 9.20958C4.42151 9.80946 5.27251 10.3295 6.08171 10.7785C6.60372 8.94354 7.4687 7.18176 8.60817 5.72952C10.3153 3.55393 12.8749 1.81408 16.0106 2.07367C18.835 2.30765 20.9219 3.76705 21.999 5.82669C23.042 7.82106 23.0575 10.2202 22.1459 12.2834C21.2166 14.3867 19.3299 16.1391 16.6159 16.8611C14.6627 17.3807 12.3745 17.345 9.79277 16.6492V16.6502C8.76506 16.3731 7.688 15.9904 6.56238 15.4934C6.30986 15.382 6.09008 15.5523 6.56238 15.8479C7.89159 16.7929 9.76407 17.585 10.3059 17.8509C10.562 18.2659 10.8796 18.6062 11.2436 18.8636C12.9186 20.0481 14.8781 20.2651 16.9003 19.7098C18.9597 19.1443 21.0237 17.7808 22.6246 15.9246C24.2243 14.0698 25.2557 11.8475 25.4256 9.66714C25.586 7.6098 24.9933 5.49627 23.2078 3.57566L23.0313 3.39059L22.9609 3.31442C22.2582 2.51767 22.3025 1.3063 23.0786 0.562399ZM15.6743 6.06012C14.3788 5.95285 13.0116 6.63594 11.7967 8.18418C10.8715 9.3633 10.1714 10.8954 9.81444 12.4719C12.357 13.3425 14.2518 13.3484 15.5683 12.9983C17.0925 12.5928 18.0064 11.6748 18.4463 10.6793C18.9038 9.64356 18.8569 8.51496 18.4132 7.66656C18.0037 6.8835 17.1792 6.1848 15.6743 6.06012Z" fill="white"/>
<path d="M82.8748 8.16176C81.75 8.16176 81.0279 7.31582 81.1843 6.18098C81.3408 5.04615 82.2965 4.2002 83.4219 4.2002C84.5466 4.2002 85.2688 5.04615 85.1124 6.18098C84.9559 7.31582 84.0002 8.16176 82.8748 8.16176Z" fill="white"/>
<path d="M79.8062 19.2826L81.2126 9.08984H84.2812L82.8748 19.2826H79.8062Z" fill="white"/>
<path fill-rule="evenodd" clip-rule="evenodd" d="M85.1999 14.2896L83.9097 23.6364H86.9783L87.733 18.1686C88.2421 19.0764 89.1996 19.551 90.4062 19.551C92.6979 19.551 95.5499 17.8591 96.0391 14.3102C96.4923 11.0295 94.5467 8.82178 91.3348 8.82178C88.2457 8.82178 85.6724 10.8644 85.1999 14.2896ZM92.947 14.1864C92.7448 15.6513 91.664 16.6623 90.2732 16.6623C88.8818 16.6623 88.0802 15.6513 88.2824 14.1864C88.4846 12.7214 89.5655 11.7104 90.9563 11.7104C92.3476 11.7104 93.1493 12.7214 92.947 14.1864Z" fill="white"/>
<path d="M100.126 19.551C97.528 19.551 96.0439 18.1479 96.2732 16.1878H99.3009C99.2473 16.7243 99.5994 16.9925 100.438 16.9925C101.379 16.9925 101.732 16.6623 101.791 16.2291C101.879 15.5934 101.25 15.4972 100.417 15.3698L100.414 15.3692C100.355 15.3603 100.296 15.3512 100.236 15.3419C98.8736 15.1355 96.6307 14.7848 96.9695 12.3294C97.2541 10.2661 99.0698 8.82178 101.586 8.82178C104.102 8.82178 105.455 10.2867 105.263 12.123H102.276C102.259 11.6485 101.887 11.3803 101.274 11.3803C100.517 11.3803 100.156 11.7723 100.099 12.185C100.018 12.7759 100.675 12.8779 101.535 13.0116L101.66 13.0309C103.084 13.2372 105.259 13.6293 104.927 16.0434C104.636 18.1479 102.724 19.551 100.126 19.551Z" fill="white"/>
<path d="M117.46 13.5468L116.668 19.2828H119.737L120.528 13.5468C120.717 12.185 121.437 11.7104 122.357 11.7104C123.258 11.7104 123.847 12.185 123.658 13.5468L122.867 19.2828H125.936L126.727 13.5468C126.915 12.185 127.635 11.7104 128.536 11.7104C129.456 11.7104 130.045 12.185 129.858 13.5468L129.066 19.2828H132.134L132.926 13.5468C133.379 10.2661 131.696 8.82178 129.241 8.82178C127.789 8.82178 126.525 9.37888 125.62 10.4518C125.011 9.37888 123.881 8.82178 122.449 8.82178C119.994 8.82178 117.913 10.2661 117.46 13.5468Z" fill="white"/>
<path d="M106.061 14.3719C105.586 17.8177 107.352 19.5508 110.338 19.5508C113.325 19.5508 115.572 17.797 116.045 14.3719L116.774 9.08984H113.705L112.976 14.3719C112.754 15.9813 111.883 16.6622 110.737 16.6622C109.591 16.6622 108.908 15.9813 109.13 14.3719L109.859 9.08984H106.79L106.061 14.3719Z" fill="white"/>
<path fill-rule="evenodd" clip-rule="evenodd" d="M68.4072 14.1864C67.9806 17.2814 69.9178 19.551 73.1092 19.551C76.3006 19.551 78.8637 17.2814 79.291 14.1864C79.7183 11.0914 77.781 8.82178 74.5896 8.82178C71.3982 8.82178 68.8345 11.0914 68.4072 14.1864ZM76.1814 14.1864C75.9792 15.6513 74.8984 16.6623 73.5076 16.6623C72.1162 16.6623 71.3146 15.6513 71.5168 14.1864C71.719 12.7214 72.7998 11.7104 74.1906 11.7104C75.582 11.7104 76.3836 12.7214 76.1814 14.1864Z" fill="white"/>
<path fill-rule="evenodd" clip-rule="evenodd" d="M58.6367 18.5927C57.3971 17.6458 56.7824 16.0688 57.0421 14.1864C57.4692 11.0914 60.0327 8.82178 63.2238 8.82178C66.4152 8.82178 68.3525 11.0914 67.9258 14.1864C67.513 17.1759 65.1069 19.3954 62.0678 19.5432C62.7833 19.9536 63.8233 20.2854 64.5875 20.5293C64.8427 20.6108 65.0672 20.6825 65.2387 20.744C65.9326 20.919 66.3755 21.5711 66.2684 22.3488C66.1426 23.2607 65.3079 23.9998 64.4034 23.9998H59.4928C57.6847 23.9998 56.4229 22.5215 56.6745 20.6978H61.9113C60.7149 20.2311 59.4503 19.2975 58.6367 18.5927ZM62.1424 16.6623C63.5332 16.6623 64.614 15.6513 64.8162 14.1864C65.0184 12.7214 64.2168 11.7104 62.8254 11.7104C61.4347 11.7104 60.3538 12.7214 60.1517 14.1864C59.9495 15.6513 60.751 16.6623 62.1424 16.6623Z" fill="white"/>
<path fill-rule="evenodd" clip-rule="evenodd" d="M45.6769 14.1864C45.2498 17.2814 47.1869 19.551 50.3783 19.551C53.5698 19.551 56.1333 17.2814 56.5604 14.1864C56.9875 11.0914 55.0503 8.82178 51.8589 8.82178C48.6675 8.82178 46.1039 11.0914 45.6769 14.1864ZM53.4508 14.1864C53.2487 15.6513 52.1681 16.6623 50.777 16.6623C49.3858 16.6623 48.5843 15.6513 48.7864 14.1864C48.9886 12.7214 50.0692 11.7104 51.4603 11.7104C52.8514 11.7104 53.653 12.7214 53.4508 14.1864Z" fill="white"/>
<path d="M34.9048 19.2827L36.7668 5.78857H40.081L38.646 16.1877H44.9675L44.5404 19.2827H34.9048Z" fill="white"/>
</g>
<defs>
<clipPath id="clip0_2033_4861">
<rect width="133" height="24" fill="white"/>
</clipPath>
</defs>
</svg>
