<svg width="48" height="48" viewBox="0 0 48 48" fill="none" xmlns="http://www.w3.org/2000/svg">
<rect width="48" height="48" rx="12" fill="#98FFA1"/>
<path d="M19.129 23.1313L23.128 18.1907C23.4408 17.8043 24.027 18.0448 24.027 18.5595V22.3836C24.027 22.6919 24.2569 22.9419 24.5405 22.9419H26.4855C26.9274 22.9419 27.1629 23.5083 26.871 23.8689L22.872 28.8095C22.5592 29.1959 21.973 28.9554 21.973 28.4407V24.6167C21.973 24.3083 21.7431 24.0584 21.4595 24.0584H19.5145C19.0726 24.0584 18.8371 23.4919 19.129 23.1313Z" stroke="#050C0B" stroke-width="1.5" stroke-linecap="round" stroke-linejoin="round"/>
<path d="M32 23.1835V20.2804C32 18.6404 32 17.8204 31.5959 17.2854C31.1918 16.7504 30.2781 16.4907 28.4507 15.9712C27.2022 15.6163 26.1016 15.1888 25.2223 14.7984C24.0234 14.2662 23.424 14.0001 23 14.0001C22.576 14.0001 21.9766 14.2662 20.7777 14.7984C19.8984 15.1888 18.7978 15.6163 17.5493 15.9712C15.7219 16.4907 14.8082 16.7504 14.4041 17.2854C14 17.8204 14 18.6404 14 20.2804V23.1835C14 28.8086 19.0628 32.1836 21.594 33.5195C22.2011 33.8399 22.5046 34.0001 23 34.0001C23.4954 34.0001 23.7989 33.8399 24.406 33.5195C26.9372 32.1836 32 28.8086 32 23.1835Z" stroke="#050C0B" stroke-width="1.5" stroke-linecap="round"/>
</svg>
