<svg width="230" height="306" viewBox="0 0 230 306" fill="none" xmlns="http://www.w3.org/2000/svg">
<rect width="230" height="306" rx="16" fill="white"/>
<path d="M21.584 26.72H33.32V28.88H23.984V33.944H32.84V36.08H23.984V44H21.584V26.72ZM40.8121 44.288C39.5641 44.288 38.4761 44.008 37.5481 43.448C36.6361 42.888 35.9321 42.112 35.4361 41.12C34.9401 40.128 34.6921 39.008 34.6921 37.76C34.6921 36.512 34.9401 35.392 35.4361 34.4C35.9321 33.408 36.6361 32.632 37.5481 32.072C38.4761 31.512 39.5641 31.232 40.8121 31.232C42.0601 31.232 43.1401 31.512 44.0521 32.072C44.9801 32.632 45.6921 33.408 46.1881 34.4C46.6841 35.392 46.9321 36.512 46.9321 37.76C46.9321 39.008 46.6841 40.128 46.1881 41.12C45.6921 42.112 44.9801 42.888 44.0521 43.448C43.1401 44.008 42.0601 44.288 40.8121 44.288ZM37.0441 37.76C37.0441 39.136 37.3641 40.24 38.0041 41.072C38.6441 41.888 39.5801 42.296 40.8121 42.296C42.0441 42.296 42.9801 41.888 43.6201 41.072C44.2601 40.24 44.5801 39.136 44.5801 37.76C44.5801 36.384 44.2601 35.288 43.6201 34.472C42.9801 33.64 42.0441 33.224 40.8121 33.224C39.5801 33.224 38.6441 33.64 38.0041 34.472C37.3641 35.288 37.0441 36.384 37.0441 37.76ZM49.2369 31.52H51.3969V33.68C51.8449 32.832 52.3969 32.24 53.0529 31.904C53.7249 31.552 54.4849 31.376 55.3329 31.376H56.2929V33.536H55.2609C54.0929 33.536 53.1729 33.84 52.5009 34.448C51.8289 35.04 51.4929 36.056 51.4929 37.496V44H49.2369V31.52ZM73.9775 36.104C73.9775 35.256 73.7615 34.568 73.3295 34.04C72.9135 33.512 72.3135 33.248 71.5295 33.248C70.8095 33.248 70.1135 33.52 69.4415 34.064C68.7855 34.608 68.4575 35.6 68.4575 37.04V44H66.1775V36.104C66.1775 35.256 65.9615 34.568 65.5295 34.04C65.1135 33.512 64.5135 33.248 63.7295 33.248C63.3135 33.248 62.8735 33.352 62.4095 33.56C61.9455 33.752 61.5295 34.128 61.1615 34.688C60.8095 35.248 60.6335 36.032 60.6335 37.04V44H58.3775V31.52H60.5375V33.296C61.3855 31.92 62.6255 31.232 64.2575 31.232C65.1695 31.232 65.9375 31.448 66.5615 31.88C67.1855 32.312 67.6655 32.888 68.0015 33.608C68.4175 32.888 68.9615 32.312 69.6335 31.88C70.3055 31.448 71.1135 31.232 72.0575 31.232C72.9695 31.232 73.7375 31.448 74.3615 31.88C75.0015 32.312 75.4735 32.88 75.7775 33.584C76.0975 34.288 76.2575 35.056 76.2575 35.888V44H73.9775V36.104ZM86.9431 42.464C85.9831 43.68 84.6551 44.288 82.9591 44.288C81.5511 44.288 80.4471 43.968 79.6471 43.328C78.8471 42.688 78.4471 41.776 78.4471 40.592C78.4471 39.52 78.8311 38.68 79.5991 38.072C80.3671 37.448 81.5031 36.992 83.0071 36.704L86.8471 35.984V35.096C86.8471 34.424 86.6231 33.936 86.1751 33.632C85.7431 33.312 85.0951 33.152 84.2311 33.152C83.3831 33.152 82.6711 33.328 82.0951 33.68C81.5191 34.016 81.2071 34.584 81.1591 35.384H78.9031C78.9511 33.976 79.4711 32.936 80.4631 32.264C81.4711 31.576 82.7191 31.232 84.2071 31.232C85.8231 31.232 87.0311 31.552 87.8311 32.192C88.6471 32.816 89.0551 33.704 89.0551 34.856V44H86.9431V42.464ZM80.7751 40.52C80.7751 41.112 80.9751 41.576 81.3751 41.912C81.7751 42.232 82.3831 42.392 83.1991 42.392C84.1911 42.392 85.0471 42.112 85.7671 41.552C86.4871 40.992 86.8471 40.168 86.8471 39.08V37.784L83.3671 38.48C82.4551 38.672 81.7911 38.904 81.3751 39.176C80.9751 39.448 80.7751 39.896 80.7751 40.52ZM95.1164 27.68V31.52H98.4284V33.44H95.1164V40.808C95.1164 41.256 95.2124 41.584 95.4044 41.792C95.6124 41.984 95.9404 42.08 96.3884 42.08H98.4284V44H95.9084C94.8204 44 94.0364 43.768 93.5564 43.304C93.0764 42.84 92.8364 42.096 92.8364 41.072V33.44H90.5564V31.52H92.8364V27.68H95.1164ZM100.47 31.52H102.75V44H100.47V31.52ZM100.47 26.72H102.726V29.264H100.47V26.72ZM111.125 44.288C109.877 44.288 108.789 44.008 107.861 43.448C106.949 42.888 106.245 42.112 105.749 41.12C105.253 40.128 105.005 39.008 105.005 37.76C105.005 36.512 105.253 35.392 105.749 34.4C106.245 33.408 106.949 32.632 107.861 32.072C108.789 31.512 109.877 31.232 111.125 31.232C112.373 31.232 113.453 31.512 114.365 32.072C115.293 32.632 116.005 33.408 116.501 34.4C116.997 35.392 117.245 36.512 117.245 37.76C117.245 39.008 116.997 40.128 116.501 41.12C116.005 42.112 115.293 42.888 114.365 43.448C113.453 44.008 112.373 44.288 111.125 44.288ZM107.357 37.76C107.357 39.136 107.677 40.24 108.317 41.072C108.957 41.888 109.893 42.296 111.125 42.296C112.357 42.296 113.293 41.888 113.933 41.072C114.573 40.24 114.893 39.136 114.893 37.76C114.893 36.384 114.573 35.288 113.933 34.472C113.293 33.64 112.357 33.224 111.125 33.224C109.893 33.224 108.957 33.64 108.317 34.472C107.677 35.288 107.357 36.384 107.357 37.76ZM127.901 36.104C127.901 35.24 127.669 34.552 127.205 34.04C126.757 33.512 126.085 33.248 125.189 33.248C124.757 33.248 124.285 33.352 123.773 33.56C123.261 33.752 122.805 34.128 122.405 34.688C122.005 35.248 121.805 36.032 121.805 37.04V44H119.549V31.52H121.709V33.32C122.157 32.68 122.717 32.176 123.389 31.808C124.061 31.424 124.837 31.232 125.717 31.232C126.709 31.232 127.533 31.448 128.189 31.88C128.861 32.312 129.357 32.88 129.677 33.584C129.997 34.288 130.157 35.056 130.157 35.888V44H127.901V36.104ZM26.456 73.288C25.288 73.288 24.272 73.08 23.408 72.664C22.544 72.232 21.88 71.648 21.416 70.912C20.968 70.176 20.744 69.352 20.744 68.44C20.744 67.24 21.088 66.256 21.776 65.488C22.464 64.704 23.408 63.976 24.608 63.304C24.128 62.776 23.76 62.336 23.504 61.984C23.248 61.632 23.04 61.24 22.88 60.808C22.736 60.376 22.664 59.872 22.664 59.296C22.664 58.48 22.864 57.784 23.264 57.208C23.664 56.632 24.2 56.192 24.872 55.888C25.544 55.584 26.28 55.432 27.08 55.432C27.88 55.432 28.616 55.584 29.288 55.888C29.96 56.192 30.496 56.632 30.896 57.208C31.296 57.784 31.496 58.48 31.496 59.296C31.496 60.288 31.192 61.128 30.584 61.816C29.976 62.488 29.112 63.152 27.992 63.808L31.688 67.912C32.232 66.856 32.52 65.64 32.552 64.264H34.712C34.664 66.312 34.168 68.096 33.224 69.616L36.272 73H33.32L31.808 71.32C30.368 72.632 28.584 73.288 26.456 73.288ZM23.144 68.416C23.144 69.2 23.432 69.864 24.008 70.408C24.584 70.936 25.408 71.2 26.48 71.2C27.984 71.2 29.28 70.696 30.368 69.688L26.048 64.888C25.104 65.448 24.384 65.992 23.888 66.52C23.392 67.048 23.144 67.68 23.144 68.416ZM25.016 59.32C25.016 59.848 25.128 60.312 25.352 60.712C25.592 61.096 26 61.608 26.576 62.248C27.44 61.768 28.088 61.312 28.52 60.88C28.968 60.432 29.192 59.912 29.192 59.32C29.192 58.728 28.992 58.264 28.592 57.928C28.208 57.592 27.712 57.424 27.104 57.424C26.496 57.424 25.992 57.592 25.592 57.928C25.208 58.264 25.016 58.728 25.016 59.32ZM50.1663 73.288C48.4223 73.288 46.9263 72.888 45.6783 72.088C44.4463 71.288 43.5103 70.216 42.8703 68.872C42.2463 67.512 41.9343 66.008 41.9343 64.36C41.9343 62.712 42.2463 61.216 42.8703 59.872C43.5103 58.512 44.4543 57.432 45.7023 56.632C46.9663 55.832 48.4863 55.432 50.2623 55.432C51.6863 55.432 52.9423 55.696 54.0303 56.224C55.1343 56.752 56.0223 57.48 56.6943 58.408C57.3663 59.336 57.8063 60.392 58.0143 61.576H55.5663C55.3423 60.392 54.7583 59.44 53.8143 58.72C52.8703 57.984 51.6863 57.616 50.2623 57.616C48.9823 57.616 47.9023 57.92 47.0223 58.528C46.1423 59.12 45.4863 59.928 45.0543 60.952C44.6383 61.96 44.4303 63.096 44.4303 64.36C44.4303 65.624 44.6383 66.768 45.0543 67.792C45.4863 68.8 46.1423 69.608 47.0223 70.216C47.9023 70.808 48.9823 71.104 50.2623 71.104C51.8463 71.104 53.0943 70.656 54.0063 69.76C54.9343 68.864 55.5343 67.64 55.8063 66.088H49.5423V64H58.2063V73H56.2383V69.928C55.0703 72.168 53.0463 73.288 50.1663 73.288ZM61.0259 60.52H63.1859V62.68C63.6339 61.832 64.1859 61.24 64.8419 60.904C65.5139 60.552 66.2739 60.376 67.1219 60.376H68.0819V62.536H67.0499C65.8819 62.536 64.9619 62.84 64.2899 63.448C63.6179 64.04 63.2819 65.056 63.2819 66.496V73H61.0259V60.52ZM75.7106 73.288C74.4626 73.288 73.3746 73.008 72.4466 72.448C71.5346 71.888 70.8306 71.112 70.3346 70.12C69.8386 69.128 69.5906 68.008 69.5906 66.76C69.5906 65.512 69.8386 64.392 70.3346 63.4C70.8306 62.408 71.5346 61.632 72.4466 61.072C73.3746 60.512 74.4626 60.232 75.7106 60.232C76.9586 60.232 78.0386 60.512 78.9506 61.072C79.8786 61.632 80.5906 62.408 81.0866 63.4C81.5826 64.392 81.8306 65.512 81.8306 66.76C81.8306 68.008 81.5826 69.128 81.0866 70.12C80.5906 71.112 79.8786 71.888 78.9506 72.448C78.0386 73.008 76.9586 73.288 75.7106 73.288ZM71.9426 66.76C71.9426 68.136 72.2626 69.24 72.9026 70.072C73.5426 70.888 74.4786 71.296 75.7106 71.296C76.9426 71.296 77.8786 70.888 78.5186 70.072C79.1586 69.24 79.4786 68.136 79.4786 66.76C79.4786 65.384 79.1586 64.288 78.5186 63.472C77.8786 62.64 76.9426 62.224 75.7106 62.224C74.4786 62.224 73.5426 62.64 72.9026 63.472C72.2626 64.288 71.9426 65.384 71.9426 66.76ZM92.5113 63.472L89.6793 73H87.3513L82.8633 60.52H85.3353L88.5273 70.168L91.3833 60.52H93.6633L96.5193 70.168L99.7113 60.52H102.159L97.6953 73H95.3433L92.5113 63.472ZM107.327 56.68V60.52H110.639V62.44H107.327V69.808C107.327 70.256 107.423 70.584 107.615 70.792C107.823 70.984 108.151 71.08 108.599 71.08H110.639V73H108.119C107.031 73 106.247 72.768 105.767 72.304C105.287 71.84 105.047 71.096 105.047 70.072V62.44H102.767V60.52H105.047V56.68H107.327ZM112.729 55.72H114.985V62.2C115.433 61.592 115.985 61.112 116.641 60.76C117.297 60.408 118.049 60.232 118.897 60.232C119.889 60.232 120.713 60.448 121.369 60.88C122.041 61.312 122.537 61.88 122.857 62.584C123.177 63.288 123.337 64.056 123.337 64.888V73H121.081V65.104C121.081 64.24 120.849 63.552 120.385 63.04C119.937 62.512 119.265 62.248 118.369 62.248C117.937 62.248 117.465 62.352 116.953 62.56C116.441 62.752 115.985 63.128 115.585 63.688C115.185 64.248 114.985 65.032 114.985 66.04V73H112.729V55.72Z" fill="#050C0B"/>
<rect x="40" y="225" width="20" height="20" rx="10" transform="rotate(-180 40 225)" fill="#050C0B"/>
<path d="M34 212L28.5 217.5L26 215" stroke="white" stroke-width="2" stroke-linecap="square" stroke-linejoin="bevel"/>
<path d="M51.296 221.192C49.888 221.192 48.7467 220.856 47.872 220.184C46.9973 219.501 46.5387 218.483 46.496 217.128H48.112C48.144 218.077 48.4533 218.76 49.04 219.176C49.6373 219.581 50.3947 219.784 51.312 219.784C52.1333 219.784 52.7893 219.619 53.28 219.288C53.7707 218.947 54.016 218.456 54.016 217.816C54.016 217.464 53.9307 217.176 53.76 216.952C53.5893 216.717 53.28 216.509 52.832 216.328C52.384 216.147 51.728 215.965 50.864 215.784C49.936 215.592 49.184 215.363 48.608 215.096C48.032 214.819 47.5947 214.461 47.296 214.024C47.008 213.576 46.864 213.011 46.864 212.328C46.864 211.72 47.0347 211.187 47.376 210.728C47.7173 210.269 48.192 209.917 48.8 209.672C49.408 209.416 50.096 209.288 50.864 209.288C52.3787 209.288 53.5093 209.64 54.256 210.344C55.0133 211.037 55.4027 211.949 55.424 213.08H53.824C53.7707 212.28 53.5093 211.683 53.04 211.288C52.5707 210.893 51.8453 210.696 50.864 210.696C50.1493 210.696 49.5787 210.845 49.152 211.144C48.7253 211.432 48.512 211.821 48.512 212.312C48.512 212.685 48.5813 212.989 48.72 213.224C48.8587 213.448 49.136 213.656 49.552 213.848C49.9787 214.029 50.6187 214.205 51.472 214.376C52.5707 214.6 53.424 214.872 54.032 215.192C54.64 215.501 55.0613 215.864 55.296 216.28C55.5413 216.696 55.664 217.203 55.664 217.8C55.664 218.483 55.4827 219.08 55.12 219.592C54.7573 220.104 54.2453 220.499 53.584 220.776C52.9227 221.053 52.16 221.192 51.296 221.192ZM60.6538 221.192C59.8751 221.192 59.1871 221.005 58.5898 220.632C58.0031 220.259 57.5444 219.741 57.2138 219.08C56.8938 218.419 56.7338 217.672 56.7338 216.84C56.7338 216.008 56.8938 215.261 57.2138 214.6C57.5444 213.939 58.0031 213.421 58.5898 213.048C59.1871 212.675 59.8751 212.488 60.6538 212.488C61.6884 212.488 62.5204 212.765 63.1498 213.32C63.7898 213.864 64.1738 214.6 64.3018 215.528H62.7498C62.6431 214.995 62.4031 214.579 62.0298 214.28C61.6671 213.971 61.2084 213.816 60.6538 213.816C59.9071 213.816 59.3258 214.093 58.9098 214.648C58.5044 215.203 58.3018 215.933 58.3018 216.84C58.3018 217.747 58.5044 218.477 58.9098 219.032C59.3258 219.587 59.9071 219.864 60.6538 219.864C61.2191 219.864 61.6831 219.709 62.0458 219.4C62.4191 219.08 62.6538 218.643 62.7498 218.088H64.3018C64.1844 219.016 63.7898 219.768 63.1178 220.344C62.4564 220.909 61.6351 221.192 60.6538 221.192ZM70.9413 219.976C70.3013 220.787 69.4159 221.192 68.2853 221.192C67.3466 221.192 66.6106 220.979 66.0773 220.552C65.5439 220.125 65.2773 219.517 65.2773 218.728C65.2773 218.013 65.5333 217.453 66.0453 217.048C66.5573 216.632 67.3146 216.328 68.3173 216.136L70.8773 215.656V215.064C70.8773 214.616 70.7279 214.291 70.4293 214.088C70.1413 213.875 69.7093 213.768 69.1333 213.768C68.5679 213.768 68.0933 213.885 67.7093 214.12C67.3253 214.344 67.1173 214.723 67.0853 215.256H65.5813C65.6133 214.317 65.9599 213.624 66.6213 213.176C67.2933 212.717 68.1253 212.488 69.1173 212.488C70.1946 212.488 70.9999 212.701 71.5333 213.128C72.0773 213.544 72.3493 214.136 72.3493 214.904V221H70.9413V219.976ZM66.8293 218.68C66.8293 219.075 66.9626 219.384 67.2293 219.608C67.4959 219.821 67.9013 219.928 68.4453 219.928C69.1066 219.928 69.6773 219.741 70.1573 219.368C70.6373 218.995 70.8773 218.445 70.8773 217.72V216.856L68.5573 217.32C67.9493 217.448 67.5066 217.603 67.2293 217.784C66.9626 217.965 66.8293 218.264 66.8293 218.68ZM75.5421 209.48V218.872C75.5421 219.171 75.6061 219.389 75.7341 219.528C75.8728 219.656 76.0915 219.72 76.3901 219.72H77.5101V221H76.0861C75.3608 221 74.8381 220.845 74.5181 220.536C74.1981 220.227 74.0381 219.731 74.0381 219.048V209.48H75.5421ZM84.0975 219.976C83.4575 220.787 82.5722 221.192 81.4415 221.192C80.5028 221.192 79.7668 220.979 79.2335 220.552C78.7002 220.125 78.4335 219.517 78.4335 218.728C78.4335 218.013 78.6895 217.453 79.2015 217.048C79.7135 216.632 80.4708 216.328 81.4735 216.136L84.0335 215.656V215.064C84.0335 214.616 83.8842 214.291 83.5855 214.088C83.2975 213.875 82.8655 213.768 82.2895 213.768C81.7242 213.768 81.2495 213.885 80.8655 214.12C80.4815 214.344 80.2735 214.723 80.2415 215.256H78.7375C78.7695 214.317 79.1162 213.624 79.7775 213.176C80.4495 212.717 81.2815 212.488 82.2735 212.488C83.3508 212.488 84.1562 212.701 84.6895 213.128C85.2335 213.544 85.5055 214.136 85.5055 214.904V221H84.0975V219.976ZM79.9855 218.68C79.9855 219.075 80.1188 219.384 80.3855 219.608C80.6522 219.821 81.0575 219.928 81.6015 219.928C82.2628 219.928 82.8335 219.741 83.3135 219.368C83.7935 218.995 84.0335 218.445 84.0335 217.72V216.856L81.7135 217.32C81.1055 217.448 80.6628 217.603 80.3855 217.784C80.1188 217.965 79.9855 218.264 79.9855 218.68ZM87.1944 209.48H88.6984V213.848C89.3277 212.941 90.2344 212.488 91.4184 212.488C92.229 212.488 92.9224 212.675 93.4984 213.048C94.0744 213.421 94.5117 213.939 94.8104 214.6C95.109 215.251 95.2584 215.997 95.2584 216.84C95.2584 217.683 95.109 218.435 94.8104 219.096C94.5117 219.747 94.0744 220.259 93.4984 220.632C92.9224 221.005 92.229 221.192 91.4184 221.192C90.7997 221.192 90.2557 221.069 89.7864 220.824C89.317 220.568 88.933 220.205 88.6344 219.736V221H87.1944V209.48ZM88.6824 216.84C88.6824 217.757 88.8957 218.493 89.3224 219.048C89.749 219.592 90.3677 219.864 91.1784 219.864C91.9997 219.864 92.6237 219.592 93.0504 219.048C93.477 218.493 93.6904 217.757 93.6904 216.84C93.6904 215.923 93.477 215.192 93.0504 214.648C92.6237 214.093 91.9997 213.816 91.1784 213.816C90.3677 213.816 89.749 214.093 89.3224 214.648C88.8957 215.192 88.6824 215.923 88.6824 216.84ZM98.2921 209.48V218.872C98.2921 219.171 98.3561 219.389 98.4841 219.528C98.6228 219.656 98.8415 219.72 99.1401 219.72H100.26V221H98.8361C98.1108 221 97.5881 220.845 97.2681 220.536C96.9481 220.227 96.7881 219.731 96.7881 219.048V209.48H98.2921ZM105.216 221.192C104.426 221.192 103.733 221.005 103.136 220.632C102.538 220.259 102.074 219.741 101.743 219.08C101.424 218.419 101.264 217.672 101.264 216.84C101.264 216.008 101.424 215.261 101.743 214.6C102.074 213.939 102.538 213.421 103.136 213.048C103.733 212.675 104.426 212.488 105.216 212.488C106.005 212.488 106.693 212.675 107.28 213.048C107.877 213.421 108.336 213.944 108.656 214.616C108.986 215.277 109.152 216.029 109.152 216.872V217.352H102.848C102.922 218.12 103.162 218.733 103.568 219.192C103.984 219.651 104.533 219.88 105.216 219.88C105.738 219.88 106.192 219.757 106.576 219.512C106.97 219.267 107.264 218.92 107.456 218.472H108.992C108.725 219.304 108.256 219.965 107.584 220.456C106.922 220.947 106.133 221.192 105.216 221.192ZM107.568 216.088C107.45 215.384 107.189 214.829 106.784 214.424C106.389 214.008 105.866 213.8 105.216 213.8C104.565 213.8 104.037 214.008 103.632 214.424C103.226 214.829 102.97 215.384 102.864 216.088H107.568ZM114.009 209.48H118.393C119.705 209.48 120.702 209.768 121.385 210.344C122.068 210.92 122.409 211.672 122.409 212.6C122.409 213.123 122.292 213.587 122.057 213.992C121.833 214.397 121.497 214.728 121.049 214.984C121.657 215.229 122.116 215.587 122.425 216.056C122.734 216.525 122.889 217.08 122.889 217.72C122.889 218.723 122.548 219.523 121.865 220.12C121.193 220.707 120.196 221 118.873 221H114.009V209.48ZM118.905 219.592C120.494 219.592 121.289 218.963 121.289 217.704C121.289 216.445 120.494 215.816 118.905 215.816H115.609V219.592H118.905ZM118.457 214.424C119.257 214.424 119.854 214.269 120.249 213.96C120.644 213.64 120.841 213.203 120.841 212.648C120.841 212.093 120.644 211.661 120.249 211.352C119.854 211.043 119.257 210.888 118.457 210.888H115.609V214.424H118.457ZM125.792 217.944C125.792 218.52 125.941 218.984 126.24 219.336C126.549 219.677 127.003 219.848 127.6 219.848C127.888 219.848 128.203 219.784 128.544 219.656C128.885 219.517 129.189 219.261 129.456 218.888C129.723 218.515 129.856 217.992 129.856 217.32V212.68H131.36V221H129.92V219.8C129.621 220.227 129.248 220.568 128.8 220.824C128.352 221.069 127.835 221.192 127.248 221.192C126.587 221.192 126.032 221.048 125.584 220.76C125.147 220.472 124.821 220.093 124.608 219.624C124.395 219.155 124.288 218.643 124.288 218.088V212.68H125.792V217.944ZM136.297 221.192C135.23 221.192 134.371 220.952 133.721 220.472C133.081 219.992 132.734 219.261 132.681 218.28H134.185C134.249 218.877 134.451 219.309 134.793 219.576C135.145 219.832 135.651 219.96 136.312 219.96C136.899 219.96 137.358 219.859 137.689 219.656C138.019 219.443 138.185 219.149 138.185 218.776C138.185 218.52 138.137 218.317 138.041 218.168C137.945 218.019 137.747 217.891 137.449 217.784C137.161 217.667 136.718 217.56 136.121 217.464C135.289 217.325 134.638 217.144 134.169 216.92C133.71 216.685 133.385 216.408 133.193 216.088C133.011 215.757 132.921 215.357 132.921 214.888C132.921 214.163 133.209 213.581 133.785 213.144C134.371 212.707 135.134 212.488 136.073 212.488C137.15 212.488 137.993 212.733 138.601 213.224C139.209 213.704 139.523 214.381 139.545 215.256H138.057C138.035 214.691 137.849 214.296 137.497 214.072C137.145 213.837 136.67 213.72 136.073 213.72C135.593 213.72 135.198 213.821 134.889 214.024C134.579 214.227 134.424 214.504 134.424 214.856C134.424 215.101 134.483 215.299 134.601 215.448C134.718 215.597 134.926 215.725 135.225 215.832C135.523 215.939 135.966 216.04 136.553 216.136C137.363 216.275 137.998 216.456 138.457 216.68C138.915 216.893 139.235 217.16 139.417 217.48C139.609 217.8 139.705 218.2 139.705 218.68C139.705 219.469 139.39 220.088 138.761 220.536C138.131 220.973 137.31 221.192 136.297 221.192ZM141.006 212.68H142.526V221H141.006V212.68ZM141.006 209.48H142.51V211.176H141.006V209.48ZM149.981 215.736C149.981 215.16 149.826 214.701 149.517 214.36C149.218 214.008 148.77 213.832 148.173 213.832C147.885 213.832 147.57 213.901 147.229 214.04C146.888 214.168 146.584 214.419 146.317 214.792C146.05 215.165 145.917 215.688 145.917 216.36V221H144.413V212.68H145.853V213.88C146.152 213.453 146.525 213.117 146.973 212.872C147.421 212.616 147.938 212.488 148.525 212.488C149.186 212.488 149.736 212.632 150.173 212.92C150.621 213.208 150.952 213.587 151.165 214.056C151.378 214.525 151.485 215.037 151.485 215.592V221H149.981V215.736ZM156.966 221.192C156.176 221.192 155.483 221.005 154.886 220.632C154.288 220.259 153.824 219.741 153.493 219.08C153.174 218.419 153.014 217.672 153.014 216.84C153.014 216.008 153.174 215.261 153.493 214.6C153.824 213.939 154.288 213.421 154.886 213.048C155.483 212.675 156.176 212.488 156.966 212.488C157.755 212.488 158.443 212.675 159.03 213.048C159.627 213.421 160.086 213.944 160.406 214.616C160.736 215.277 160.902 216.029 160.902 216.872V217.352H154.598C154.672 218.12 154.912 218.733 155.318 219.192C155.734 219.651 156.283 219.88 156.966 219.88C157.488 219.88 157.942 219.757 158.326 219.512C158.72 219.267 159.014 218.92 159.206 218.472H160.742C160.475 219.304 160.006 219.965 159.334 220.456C158.672 220.947 157.883 221.192 156.966 221.192ZM159.318 216.088C159.2 215.384 158.939 214.829 158.534 214.424C158.139 214.008 157.616 213.8 156.966 213.8C156.315 213.8 155.787 214.008 155.382 214.424C154.976 214.829 154.72 215.384 154.614 216.088H159.318ZM165.484 221.192C164.417 221.192 163.559 220.952 162.908 220.472C162.268 219.992 161.921 219.261 161.868 218.28H163.372C163.436 218.877 163.639 219.309 163.98 219.576C164.332 219.832 164.839 219.96 165.5 219.96C166.087 219.96 166.545 219.859 166.876 219.656C167.207 219.443 167.372 219.149 167.372 218.776C167.372 218.52 167.324 218.317 167.228 218.168C167.132 218.019 166.935 217.891 166.636 217.784C166.348 217.667 165.905 217.56 165.308 217.464C164.476 217.325 163.825 217.144 163.356 216.92C162.897 216.685 162.572 216.408 162.38 216.088C162.199 215.757 162.108 215.357 162.108 214.888C162.108 214.163 162.396 213.581 162.972 213.144C163.559 212.707 164.321 212.488 165.26 212.488C166.337 212.488 167.18 212.733 167.788 213.224C168.396 213.704 168.711 214.381 168.732 215.256H167.244C167.223 214.691 167.036 214.296 166.684 214.072C166.332 213.837 165.857 213.72 165.26 213.72C164.78 213.72 164.385 213.821 164.076 214.024C163.767 214.227 163.612 214.504 163.612 214.856C163.612 215.101 163.671 215.299 163.788 215.448C163.905 215.597 164.113 215.725 164.412 215.832C164.711 215.939 165.153 216.04 165.74 216.136C166.551 216.275 167.185 216.456 167.644 216.68C168.103 216.893 168.423 217.16 168.604 217.48C168.796 217.8 168.892 218.2 168.892 218.68C168.892 219.469 168.577 220.088 167.948 220.536C167.319 220.973 166.497 221.192 165.484 221.192ZM173.25 221.192C172.183 221.192 171.324 220.952 170.674 220.472C170.034 219.992 169.687 219.261 169.634 218.28H171.138C171.202 218.877 171.404 219.309 171.746 219.576C172.098 219.832 172.604 219.96 173.266 219.96C173.852 219.96 174.311 219.859 174.642 219.656C174.972 219.443 175.138 219.149 175.138 218.776C175.138 218.52 175.09 218.317 174.994 218.168C174.898 218.019 174.7 217.891 174.402 217.784C174.114 217.667 173.671 217.56 173.074 217.464C172.242 217.325 171.591 217.144 171.122 216.92C170.663 216.685 170.338 216.408 170.146 216.088C169.964 215.757 169.874 215.357 169.874 214.888C169.874 214.163 170.162 213.581 170.738 213.144C171.324 212.707 172.087 212.488 173.026 212.488C174.103 212.488 174.946 212.733 175.554 213.224C176.162 213.704 176.476 214.381 176.498 215.256H175.01C174.988 214.691 174.802 214.296 174.45 214.072C174.098 213.837 173.623 213.72 173.026 213.72C172.546 213.72 172.151 213.821 171.842 214.024C171.532 214.227 171.378 214.504 171.378 214.856C171.378 215.101 171.436 215.299 171.554 215.448C171.671 215.597 171.879 215.725 172.178 215.832C172.476 215.939 172.919 216.04 173.506 216.136C174.316 216.275 174.951 216.456 175.41 216.68C175.868 216.893 176.188 217.16 176.37 217.48C176.562 217.8 176.658 218.2 176.658 218.68C176.658 219.469 176.343 220.088 175.714 220.536C175.084 220.973 174.263 221.192 173.25 221.192Z" fill="#050C0B"/>
<rect x="40" y="255" width="20" height="20" rx="10" transform="rotate(-180 40 255)" fill="#050C0B"/>
<path d="M34 242L28.5 247.5L26 245" stroke="white" stroke-width="2" stroke-linecap="square" stroke-linejoin="bevel"/>
<path d="M47.056 239.48H54.88V240.92H48.656V244.296H54.56V245.72H48.656V251H47.056V239.48ZM61.3788 249.976C60.7388 250.787 59.8534 251.192 58.7228 251.192C57.7841 251.192 57.0481 250.979 56.5148 250.552C55.9814 250.125 55.7148 249.517 55.7148 248.728C55.7148 248.013 55.9708 247.453 56.4828 247.048C56.9948 246.632 57.7521 246.328 58.7548 246.136L61.3148 245.656V245.064C61.3148 244.616 61.1654 244.291 60.8668 244.088C60.5788 243.875 60.1468 243.768 59.5708 243.768C59.0054 243.768 58.5308 243.885 58.1468 244.12C57.7628 244.344 57.5548 244.723 57.5228 245.256H56.0188C56.0508 244.317 56.3974 243.624 57.0588 243.176C57.7308 242.717 58.5628 242.488 59.5548 242.488C60.6321 242.488 61.4374 242.701 61.9708 243.128C62.5148 243.544 62.7868 244.136 62.7868 244.904V251H61.3788V249.976ZM57.2668 248.68C57.2668 249.075 57.4001 249.384 57.6668 249.608C57.9334 249.821 58.3388 249.928 58.8828 249.928C59.5441 249.928 60.1148 249.741 60.5948 249.368C61.0748 248.995 61.3148 248.445 61.3148 247.72V246.856L58.9948 247.32C58.3868 247.448 57.9441 247.603 57.6668 247.784C57.4001 247.965 57.2668 248.264 57.2668 248.68ZM67.4996 251.192C66.433 251.192 65.5743 250.952 64.9236 250.472C64.2836 249.992 63.937 249.261 63.8836 248.28H65.3876C65.4516 248.877 65.6543 249.309 65.9956 249.576C66.3476 249.832 66.8543 249.96 67.5156 249.96C68.1023 249.96 68.561 249.859 68.8916 249.656C69.2223 249.443 69.3876 249.149 69.3876 248.776C69.3876 248.52 69.3396 248.317 69.2436 248.168C69.1476 248.019 68.9503 247.891 68.6516 247.784C68.3636 247.667 67.921 247.56 67.3236 247.464C66.4916 247.325 65.841 247.144 65.3716 246.92C64.913 246.685 64.5876 246.408 64.3956 246.088C64.2143 245.757 64.1236 245.357 64.1236 244.888C64.1236 244.163 64.4116 243.581 64.9876 243.144C65.5743 242.707 66.337 242.488 67.2756 242.488C68.353 242.488 69.1956 242.733 69.8036 243.224C70.4116 243.704 70.7263 244.381 70.7476 245.256H69.2596C69.2383 244.691 69.0516 244.296 68.6996 244.072C68.3476 243.837 67.873 243.72 67.2756 243.72C66.7956 243.72 66.401 243.821 66.0916 244.024C65.7823 244.227 65.6276 244.504 65.6276 244.856C65.6276 245.101 65.6863 245.299 65.8036 245.448C65.921 245.597 66.129 245.725 66.4276 245.832C66.7263 245.939 67.169 246.04 67.7556 246.136C68.5663 246.275 69.201 246.456 69.6596 246.68C70.1183 246.893 70.4383 247.16 70.6196 247.48C70.8116 247.8 70.9076 248.2 70.9076 248.68C70.9076 249.469 70.593 250.088 69.9636 250.536C69.3343 250.973 68.513 251.192 67.4996 251.192ZM74.5933 240.12V242.68H76.8013V243.96H74.5933V248.872C74.5933 249.171 74.6573 249.389 74.7853 249.528C74.9239 249.656 75.1426 249.72 75.4413 249.72H76.8013V251H75.1213C74.3959 251 73.8733 250.845 73.5533 250.536C73.2333 250.227 73.0733 249.731 73.0733 249.048V243.96H71.5533V242.68H73.0733V240.12H74.5933ZM81.4935 239.48H83.0935V249.56H88.8215V251H81.4935V239.48ZM90.2122 239.48H91.8123V249.56H97.5403V251H90.2122V239.48ZM104.003 251.192C102.819 251.192 101.806 250.925 100.963 250.392C100.131 249.859 99.5017 249.144 99.075 248.248C98.659 247.341 98.451 246.339 98.451 245.24C98.451 244.141 98.659 243.144 99.075 242.248C99.5017 241.341 100.131 240.621 100.963 240.088C101.806 239.555 102.819 239.288 104.003 239.288C104.867 239.288 105.64 239.464 106.323 239.816C107.006 240.157 107.555 240.637 107.971 241.256C108.398 241.864 108.68 242.557 108.819 243.336H107.203C107.054 242.568 106.691 241.949 106.115 241.48C105.539 241 104.835 240.76 104.003 240.76C103.15 240.76 102.43 240.957 101.843 241.352C101.256 241.747 100.819 242.285 100.531 242.968C100.254 243.64 100.115 244.397 100.115 245.24C100.115 246.083 100.254 246.845 100.531 247.528C100.819 248.2 101.256 248.733 101.843 249.128C102.43 249.523 103.15 249.72 104.003 249.72C104.899 249.72 105.64 249.448 106.227 248.904C106.814 248.36 107.166 247.651 107.283 246.776H108.899C108.792 247.619 108.526 248.376 108.099 249.048C107.683 249.709 107.123 250.232 106.419 250.616C105.726 251 104.92 251.192 104.003 251.192ZM116.976 251.192C116.197 251.192 115.52 251.053 114.944 250.776C114.368 250.488 113.925 250.099 113.616 249.608C113.317 249.117 113.168 248.568 113.168 247.96C113.168 247.16 113.397 246.504 113.856 245.992C114.315 245.469 114.944 244.984 115.744 244.536C115.424 244.184 115.179 243.891 115.008 243.656C114.837 243.421 114.699 243.16 114.592 242.872C114.496 242.584 114.448 242.248 114.448 241.864C114.448 241.32 114.581 240.856 114.848 240.472C115.115 240.088 115.472 239.795 115.92 239.592C116.368 239.389 116.859 239.288 117.392 239.288C117.925 239.288 118.416 239.389 118.864 239.592C119.312 239.795 119.669 240.088 119.936 240.472C120.203 240.856 120.336 241.32 120.336 241.864C120.336 242.525 120.133 243.085 119.728 243.544C119.323 243.992 118.747 244.435 118 244.872L120.464 247.608C120.827 246.904 121.019 246.093 121.04 245.176H122.48C122.448 246.541 122.117 247.731 121.488 248.744L123.52 251H121.552L120.544 249.88C119.584 250.755 118.395 251.192 116.976 251.192ZM114.768 247.944C114.768 248.467 114.96 248.909 115.344 249.272C115.728 249.624 116.277 249.8 116.992 249.8C117.995 249.8 118.859 249.464 119.584 248.792L116.704 245.592C116.075 245.965 115.595 246.328 115.264 246.68C114.933 247.032 114.768 247.453 114.768 247.944ZM116.016 241.88C116.016 242.232 116.091 242.541 116.24 242.808C116.4 243.064 116.672 243.405 117.056 243.832C117.632 243.512 118.064 243.208 118.352 242.92C118.651 242.621 118.8 242.275 118.8 241.88C118.8 241.485 118.667 241.176 118.4 240.952C118.144 240.728 117.813 240.616 117.408 240.616C117.003 240.616 116.667 240.728 116.4 240.952C116.144 241.176 116.016 241.485 116.016 241.88ZM127.775 239.48H129.375V249.56H135.103V251H127.775V239.48ZM139.582 240.92H135.742V239.48H145.054V240.92H141.214V251H139.582V240.92ZM146.415 239.48H150.335C151.573 239.48 152.618 239.731 153.471 240.232C154.325 240.733 154.959 241.421 155.375 242.296C155.802 243.16 156.015 244.141 156.015 245.24C156.015 246.339 155.802 247.325 155.375 248.2C154.959 249.064 154.325 249.747 153.471 250.248C152.618 250.749 151.573 251 150.335 251H146.415V239.48ZM150.335 249.576C151.679 249.576 152.682 249.181 153.343 248.392C154.015 247.592 154.351 246.541 154.351 245.24C154.351 243.939 154.015 242.893 153.343 242.104C152.682 241.304 151.679 240.904 150.335 240.904H148.015V249.576H150.335Z" fill="#050C0B"/>
<rect x="40" y="285" width="20" height="20" rx="10" transform="rotate(-180 40 285)" fill="#050C0B"/>
<path d="M34 272L28.5 277.5L26 275" stroke="white" stroke-width="2" stroke-linecap="square" stroke-linejoin="bevel"/>
<path d="M52.128 281.192C50.944 281.192 49.9307 280.925 49.088 280.392C48.256 279.859 47.6267 279.144 47.2 278.248C46.784 277.341 46.576 276.339 46.576 275.24C46.576 274.141 46.784 273.144 47.2 272.248C47.6267 271.341 48.256 270.621 49.088 270.088C49.9307 269.555 50.944 269.288 52.128 269.288C52.992 269.288 53.7653 269.464 54.448 269.816C55.1307 270.157 55.68 270.637 56.096 271.256C56.5227 271.864 56.8053 272.557 56.944 273.336H55.328C55.1787 272.568 54.816 271.949 54.24 271.48C53.664 271 52.96 270.76 52.128 270.76C51.2747 270.76 50.5547 270.957 49.968 271.352C49.3813 271.747 48.944 272.285 48.656 272.968C48.3787 273.64 48.24 274.397 48.24 275.24C48.24 276.083 48.3787 276.845 48.656 277.528C48.944 278.2 49.3813 278.733 49.968 279.128C50.5547 279.523 51.2747 279.72 52.128 279.72C53.024 279.72 53.7653 279.448 54.352 278.904C54.9387 278.36 55.2907 277.651 55.408 276.776H57.024C56.9173 277.619 56.6507 278.376 56.224 279.048C55.808 279.709 55.248 280.232 54.544 280.616C53.8507 281 53.0453 281.192 52.128 281.192ZM62.2498 281.192C61.4178 281.192 60.6924 281.005 60.0738 280.632C59.4658 280.259 58.9964 279.741 58.6658 279.08C58.3351 278.419 58.1698 277.672 58.1698 276.84C58.1698 276.008 58.3351 275.261 58.6658 274.6C58.9964 273.939 59.4658 273.421 60.0738 273.048C60.6924 272.675 61.4178 272.488 62.2498 272.488C63.0818 272.488 63.8018 272.675 64.4098 273.048C65.0284 273.421 65.5031 273.939 65.8338 274.6C66.1644 275.261 66.3298 276.008 66.3298 276.84C66.3298 277.672 66.1644 278.419 65.8338 279.08C65.5031 279.741 65.0284 280.259 64.4098 280.632C63.8018 281.005 63.0818 281.192 62.2498 281.192ZM59.7378 276.84C59.7378 277.757 59.9511 278.493 60.3778 279.048C60.8044 279.592 61.4284 279.864 62.2498 279.864C63.0711 279.864 63.6951 279.592 64.1218 279.048C64.5484 278.493 64.7618 277.757 64.7618 276.84C64.7618 275.923 64.5484 275.192 64.1218 274.648C63.6951 274.093 63.0711 273.816 62.2498 273.816C61.4284 273.816 60.8044 274.093 60.3778 274.648C59.9511 275.192 59.7378 275.923 59.7378 276.84ZM78.2663 275.736C78.2663 275.171 78.1223 274.712 77.8343 274.36C77.5569 274.008 77.1569 273.832 76.6343 273.832C76.1543 273.832 75.6903 274.013 75.2423 274.376C74.8049 274.739 74.5863 275.4 74.5863 276.36V281H73.0663V275.736C73.0663 275.171 72.9223 274.712 72.6343 274.36C72.3569 274.008 71.9569 273.832 71.4343 273.832C71.1569 273.832 70.8636 273.901 70.5543 274.04C70.2449 274.168 69.9676 274.419 69.7223 274.792C69.4876 275.165 69.3703 275.688 69.3703 276.36V281H67.8663V272.68H69.3063V273.864C69.8716 272.947 70.6983 272.488 71.7863 272.488C72.3943 272.488 72.9063 272.632 73.3223 272.92C73.7383 273.208 74.0583 273.592 74.2823 274.072C74.5596 273.592 74.9223 273.208 75.3703 272.92C75.8183 272.632 76.3569 272.488 76.9863 272.488C77.5943 272.488 78.1063 272.632 78.5223 272.92C78.9489 273.208 79.2636 273.587 79.4663 274.056C79.6796 274.525 79.7863 275.037 79.7863 275.592V281H78.2663V275.736ZM83.15 272.68V273.944C83.4487 273.475 83.8327 273.117 84.302 272.872C84.7713 272.616 85.3153 272.488 85.934 272.488C86.7447 272.488 87.438 272.675 88.014 273.048C88.59 273.421 89.0273 273.939 89.326 274.6C89.6247 275.251 89.774 275.997 89.774 276.84C89.774 277.683 89.6247 278.435 89.326 279.096C89.0273 279.747 88.59 280.259 88.014 280.632C87.438 281.005 86.7447 281.192 85.934 281.192C84.75 281.192 83.8433 280.739 83.214 279.832V284.2H81.71V272.68H83.15ZM83.198 276.84C83.198 277.757 83.4113 278.493 83.838 279.048C84.2647 279.592 84.8833 279.864 85.694 279.864C86.5153 279.864 87.1393 279.592 87.566 279.048C87.9927 278.493 88.206 277.757 88.206 276.84C88.206 275.923 87.9927 275.192 87.566 274.648C87.1393 274.093 86.5153 273.816 85.694 273.816C84.8833 273.816 84.2647 274.093 83.838 274.648C83.4113 275.192 83.198 275.923 83.198 276.84ZM92.8078 269.48V278.872C92.8078 279.171 92.8718 279.389 92.9998 279.528C93.1384 279.656 93.3571 279.72 93.6558 279.72H94.7758V281H93.3518C92.6264 281 92.1038 280.845 91.7838 280.536C91.4638 280.227 91.3038 279.731 91.3038 279.048V269.48H92.8078ZM96.1311 272.68H97.6511V281H96.1311V272.68ZM96.1311 269.48H97.6351V271.176H96.1311V269.48ZM104.738 279.976C104.098 280.787 103.213 281.192 102.082 281.192C101.143 281.192 100.407 280.979 99.8741 280.552C99.3408 280.125 99.0741 279.517 99.0741 278.728C99.0741 278.013 99.3301 277.453 99.8421 277.048C100.354 276.632 101.111 276.328 102.114 276.136L104.674 275.656V275.064C104.674 274.616 104.525 274.291 104.226 274.088C103.938 273.875 103.506 273.768 102.93 273.768C102.365 273.768 101.89 273.885 101.506 274.12C101.122 274.344 100.914 274.723 100.882 275.256H99.3781C99.4101 274.317 99.7568 273.624 100.418 273.176C101.09 272.717 101.922 272.488 102.914 272.488C103.991 272.488 104.797 272.701 105.33 273.128C105.874 273.544 106.146 274.136 106.146 274.904V281H104.738V279.976ZM100.626 278.68C100.626 279.075 100.759 279.384 101.026 279.608C101.293 279.821 101.698 279.928 102.242 279.928C102.903 279.928 103.474 279.741 103.954 279.368C104.434 278.995 104.674 278.445 104.674 277.72V276.856L102.354 277.32C101.746 277.448 101.303 277.603 101.026 277.784C100.759 277.965 100.626 278.264 100.626 278.68ZM113.403 275.736C113.403 275.16 113.248 274.701 112.939 274.36C112.64 274.008 112.192 273.832 111.595 273.832C111.307 273.832 110.992 273.901 110.651 274.04C110.31 274.168 110.006 274.419 109.739 274.792C109.472 275.165 109.339 275.688 109.339 276.36V281H107.835V272.68H109.275V273.88C109.574 273.453 109.947 273.117 110.395 272.872C110.843 272.616 111.36 272.488 111.947 272.488C112.608 272.488 113.158 272.632 113.595 272.92C114.043 273.208 114.374 273.587 114.587 274.056C114.8 274.525 114.907 275.037 114.907 275.592V281H113.403V275.736ZM120.419 281.192C119.641 281.192 118.953 281.005 118.355 280.632C117.769 280.259 117.31 279.741 116.979 279.08C116.659 278.419 116.499 277.672 116.499 276.84C116.499 276.008 116.659 275.261 116.979 274.6C117.31 273.939 117.769 273.421 118.355 273.048C118.953 272.675 119.641 272.488 120.419 272.488C121.454 272.488 122.286 272.765 122.915 273.32C123.555 273.864 123.939 274.6 124.067 275.528H122.515C122.409 274.995 122.169 274.579 121.795 274.28C121.433 273.971 120.974 273.816 120.419 273.816C119.673 273.816 119.091 274.093 118.675 274.648C118.27 275.203 118.067 275.933 118.067 276.84C118.067 277.747 118.27 278.477 118.675 279.032C119.091 279.587 119.673 279.864 120.419 279.864C120.985 279.864 121.449 279.709 121.811 279.4C122.185 279.08 122.419 278.643 122.515 278.088H124.067C123.95 279.016 123.555 279.768 122.883 280.344C122.222 280.909 121.401 281.192 120.419 281.192ZM129.075 281.192C128.286 281.192 127.592 281.005 126.995 280.632C126.398 280.259 125.934 279.741 125.603 279.08C125.283 278.419 125.123 277.672 125.123 276.84C125.123 276.008 125.283 275.261 125.603 274.6C125.934 273.939 126.398 273.421 126.995 273.048C127.592 272.675 128.286 272.488 129.075 272.488C129.864 272.488 130.552 272.675 131.139 273.048C131.736 273.421 132.195 273.944 132.515 274.616C132.846 275.277 133.011 276.029 133.011 276.872V277.352H126.707C126.782 278.12 127.022 278.733 127.427 279.192C127.843 279.651 128.392 279.88 129.075 279.88C129.598 279.88 130.051 279.757 130.435 279.512C130.83 279.267 131.123 278.92 131.315 278.472H132.851C132.584 279.304 132.115 279.965 131.443 280.456C130.782 280.947 129.992 281.192 129.075 281.192ZM131.427 276.088C131.31 275.384 131.048 274.829 130.643 274.424C130.248 274.008 129.726 273.8 129.075 273.8C128.424 273.8 127.896 274.008 127.491 274.424C127.086 274.829 126.83 275.384 126.723 276.088H131.427ZM142.109 281.192C140.701 281.192 139.559 280.856 138.685 280.184C137.81 279.501 137.351 278.483 137.309 277.128H138.924C138.957 278.077 139.266 278.76 139.853 279.176C140.45 279.581 141.207 279.784 142.125 279.784C142.946 279.784 143.602 279.619 144.093 279.288C144.583 278.947 144.829 278.456 144.829 277.816C144.829 277.464 144.743 277.176 144.573 276.952C144.402 276.717 144.093 276.509 143.645 276.328C143.197 276.147 142.541 275.965 141.677 275.784C140.749 275.592 139.997 275.363 139.421 275.096C138.845 274.819 138.407 274.461 138.109 274.024C137.821 273.576 137.677 273.011 137.677 272.328C137.677 271.72 137.847 271.187 138.189 270.728C138.53 270.269 139.005 269.917 139.613 269.672C140.221 269.416 140.909 269.288 141.677 269.288C143.191 269.288 144.322 269.64 145.069 270.344C145.826 271.037 146.215 271.949 146.237 273.08H144.637C144.583 272.28 144.322 271.683 143.853 271.288C143.383 270.893 142.658 270.696 141.677 270.696C140.962 270.696 140.391 270.845 139.965 271.144C139.538 271.432 139.325 271.821 139.325 272.312C139.325 272.685 139.394 272.989 139.533 273.224C139.671 273.448 139.949 273.656 140.365 273.848C140.791 274.029 141.431 274.205 142.285 274.376C143.383 274.6 144.237 274.872 144.845 275.192C145.453 275.501 145.874 275.864 146.109 276.28C146.354 276.696 146.477 277.203 146.477 277.8C146.477 278.483 146.295 279.08 145.933 279.592C145.57 280.104 145.058 280.499 144.397 280.776C143.735 281.053 142.973 281.192 142.109 281.192ZM149.37 277.944C149.37 278.52 149.52 278.984 149.818 279.336C150.128 279.677 150.581 279.848 151.178 279.848C151.466 279.848 151.781 279.784 152.122 279.656C152.464 279.517 152.768 279.261 153.034 278.888C153.301 278.515 153.434 277.992 153.434 277.32V272.68H154.938V281H153.498V279.8C153.2 280.227 152.826 280.568 152.378 280.824C151.93 281.069 151.413 281.192 150.826 281.192C150.165 281.192 149.61 281.048 149.162 280.76C148.725 280.472 148.4 280.093 148.186 279.624C147.973 279.155 147.866 278.643 147.866 278.088V272.68H149.37V277.944ZM158.291 272.68V273.944C158.589 273.475 158.973 273.117 159.443 272.872C159.912 272.616 160.456 272.488 161.075 272.488C161.885 272.488 162.579 272.675 163.155 273.048C163.731 273.421 164.168 273.939 164.467 274.6C164.765 275.251 164.915 275.997 164.915 276.84C164.915 277.683 164.765 278.435 164.467 279.096C164.168 279.747 163.731 280.259 163.155 280.632C162.579 281.005 161.885 281.192 161.075 281.192C159.891 281.192 158.984 280.739 158.355 279.832V284.2H156.851V272.68H158.291ZM158.339 276.84C158.339 277.757 158.552 278.493 158.979 279.048C159.405 279.592 160.024 279.864 160.835 279.864C161.656 279.864 162.28 279.592 162.707 279.048C163.133 278.493 163.347 277.757 163.347 276.84C163.347 275.923 163.133 275.192 162.707 274.648C162.28 274.093 161.656 273.816 160.835 273.816C160.024 273.816 159.405 274.093 158.979 274.648C158.552 275.192 158.339 275.923 158.339 276.84ZM167.884 272.68V273.944C168.183 273.475 168.567 273.117 169.036 272.872C169.506 272.616 170.05 272.488 170.668 272.488C171.479 272.488 172.172 272.675 172.748 273.048C173.324 273.421 173.762 273.939 174.06 274.6C174.359 275.251 174.508 275.997 174.508 276.84C174.508 277.683 174.359 278.435 174.06 279.096C173.762 279.747 173.324 280.259 172.748 280.632C172.172 281.005 171.479 281.192 170.668 281.192C169.484 281.192 168.578 280.739 167.948 279.832V284.2H166.444V272.68H167.884ZM167.932 276.84C167.932 277.757 168.146 278.493 168.572 279.048C168.999 279.592 169.618 279.864 170.428 279.864C171.25 279.864 171.874 279.592 172.3 279.048C172.727 278.493 172.94 277.757 172.94 276.84C172.94 275.923 172.727 275.192 172.3 274.648C171.874 274.093 171.25 273.816 170.428 273.816C169.618 273.816 168.999 274.093 168.572 274.648C168.146 275.192 167.932 275.923 167.932 276.84ZM179.734 281.192C178.902 281.192 178.177 281.005 177.558 280.632C176.95 280.259 176.481 279.741 176.15 279.08C175.819 278.419 175.654 277.672 175.654 276.84C175.654 276.008 175.819 275.261 176.15 274.6C176.481 273.939 176.95 273.421 177.558 273.048C178.177 272.675 178.902 272.488 179.734 272.488C180.566 272.488 181.286 272.675 181.894 273.048C182.513 273.421 182.987 273.939 183.318 274.6C183.649 275.261 183.814 276.008 183.814 276.84C183.814 277.672 183.649 278.419 183.318 279.08C182.987 279.741 182.513 280.259 181.894 280.632C181.286 281.005 180.566 281.192 179.734 281.192ZM177.222 276.84C177.222 277.757 177.435 278.493 177.862 279.048C178.289 279.592 178.913 279.864 179.734 279.864C180.555 279.864 181.179 279.592 181.606 279.048C182.033 278.493 182.246 277.757 182.246 276.84C182.246 275.923 182.033 275.192 181.606 274.648C181.179 274.093 180.555 273.816 179.734 273.816C178.913 273.816 178.289 274.093 177.862 274.648C177.435 275.192 177.222 275.923 177.222 276.84ZM185.351 272.68H186.791V274.12C187.089 273.555 187.457 273.16 187.895 272.936C188.343 272.701 188.849 272.584 189.415 272.584H190.055V274.024H189.367C188.588 274.024 187.975 274.227 187.527 274.632C187.079 275.027 186.855 275.704 186.855 276.664V281H185.351V272.68ZM193.796 270.12V272.68H196.004V273.96H193.796V278.872C193.796 279.171 193.86 279.389 193.988 279.528C194.127 279.656 194.346 279.72 194.644 279.72H196.004V281H194.324C193.599 281 193.076 280.845 192.756 280.536C192.436 280.227 192.276 279.731 192.276 279.048V273.96H190.756V272.68H192.276V270.12H193.796Z" fill="#050C0B"/>
</svg>
