<svg width="24" height="24" viewBox="0 0 24 24" fill="none" xmlns="http://www.w3.org/2000/svg">
<rect width="24" height="24" rx="12" fill="#98FFA1"/>
<path fill-rule="evenodd" clip-rule="evenodd" d="M11.9959 8.31735C10.7963 6.87565 8.79585 6.48784 7.29282 7.80801C5.78979 9.12817 5.57818 11.3354 6.75852 12.8968C7.73989 14.195 10.7099 16.9329 11.6833 17.8191C11.7922 17.9182 11.8466 17.9678 11.9101 17.9873C11.9656 18.0043 12.0262 18.0043 12.0817 17.9873C12.1452 17.9678 12.1996 17.9182 12.3085 17.8191C13.2819 16.9329 16.2519 14.195 17.2333 12.8968C18.4136 11.3354 18.2278 9.11428 16.699 7.80801C15.1701 6.50173 13.1955 6.87565 11.9959 8.31735Z" fill="#050C0B"/>
</svg>
