<svg width="230" height="75" viewBox="0 0 230 75" fill="none" xmlns="http://www.w3.org/2000/svg">
<rect width="230" height="75" rx="16" fill="#112522"/>
<rect width="8.25688" height="12.6596" transform="matrix(1 -1.89261e-07 -4.0382e-08 -1 139 58.75)" fill="#98FFA1" fill-opacity="0.2"/>
<rect width="8.25689" height="24.4149" transform="matrix(1 -1.01554e-07 -7.52577e-08 -1 147.257 58.75)" fill="#98FFA1" fill-opacity="0.1"/>
<rect width="8.25689" height="24.4149" transform="matrix(1 -1.03401e-07 -7.39139e-08 -1 155.514 58.75)" fill="#98FFA1" fill-opacity="0.2"/>
<rect width="8.25688" height="21.7021" transform="matrix(1 -1.04349e-07 -7.32419e-08 -1 163.771 58.75)" fill="#98FFA1" fill-opacity="0.04"/>
<rect width="8.94496" height="30.7447" transform="matrix(1 -1.04349e-07 -7.32419e-08 -1 172.028 58.75)" fill="#98FFA1" fill-opacity="0.1"/>
<rect width="8.25689" height="33.4574" transform="matrix(1 -1.06355e-07 -7.18607e-08 -1 180.972 58.75)" fill="#98FFA1" fill-opacity="0.25"/>
<rect width="8.25689" height="36.1702" transform="matrix(1 -1.06355e-07 -7.18607e-08 -1 189.229 58.75)" fill="#98FFA1" fill-opacity="0.3"/>
<rect width="8.25689" height="30.7447" transform="matrix(1 -1.07331e-07 -7.12074e-08 -1 197.487 58.75)" fill="#98FFA1" fill-opacity="0.5"/>
<rect width="8.25689" height="42.5" transform="matrix(1 -1.13836e-07 -6.71384e-08 -1 205.743 58.75)" fill="#98FFA1"/>
<path d="M23.296 24.32L20.72 26.208V24.432L23.408 22.48H24.896V34H23.296V24.32ZM26.6891 32.624L31.2331 28.24C31.6918 27.792 32.0438 27.3547 32.2891 26.928C32.5451 26.4907 32.6731 26.0213 32.6731 25.52C32.6731 24.9653 32.4811 24.528 32.0971 24.208C31.7238 23.8773 31.2065 23.712 30.5451 23.712C29.8518 23.712 29.2971 23.92 28.8811 24.336C28.4651 24.7413 28.2625 25.344 28.2731 26.144H26.6891C26.6998 24.928 27.0465 23.984 27.7291 23.312C28.4225 22.6293 29.3611 22.288 30.5451 22.288C31.2811 22.288 31.9265 22.432 32.4811 22.72C33.0465 23.008 33.4785 23.3973 33.7771 23.888C34.0758 24.3787 34.2251 24.9173 34.2251 25.504C34.2251 26.72 33.5798 27.952 32.2891 29.2L28.7851 32.576H34.3851V34H26.6891V32.624ZM35.9779 22.48H37.5779V28.592L43.6099 22.48H45.6899L40.9699 27.168L45.6899 34H43.7379L39.8339 28.288L37.5779 30.528V34H35.9779V22.48ZM46.6091 27.568H49.6011V24.576H50.9451V27.568H53.9371V28.912H50.9451V31.904H49.6011V28.912H46.6091V27.568Z" fill="white"/>
<path d="M20.924 43.92H24.76C25.908 43.92 26.7807 44.172 27.378 44.676C27.9753 45.18 28.274 45.838 28.274 46.65C28.274 47.1073 28.1713 47.5133 27.966 47.868C27.77 48.2227 27.476 48.512 27.084 48.736C27.616 48.9507 28.0173 49.2633 28.288 49.674C28.5587 50.0847 28.694 50.57 28.694 51.13C28.694 52.0073 28.3953 52.7073 27.798 53.23C27.21 53.7433 26.3373 54 25.18 54H20.924V43.92ZM25.208 52.768C26.5987 52.768 27.294 52.2173 27.294 51.116C27.294 50.0147 26.5987 49.464 25.208 49.464H22.324V52.768H25.208ZM24.816 48.246C25.516 48.246 26.0387 48.1107 26.384 47.84C26.7293 47.56 26.902 47.1773 26.902 46.692C26.902 46.2067 26.7293 45.8287 26.384 45.558C26.0387 45.2873 25.516 45.152 24.816 45.152H22.324V48.246H24.816ZM31.2341 51.326C31.2341 51.83 31.3648 52.236 31.6261 52.544C31.8968 52.8427 32.2935 52.992 32.8161 52.992C33.0681 52.992 33.3435 52.936 33.6421 52.824C33.9408 52.7027 34.2068 52.4787 34.4401 52.152C34.6735 51.8253 34.7901 51.368 34.7901 50.78V46.72H36.1061V54H34.8461V52.95C34.5848 53.3233 34.2581 53.622 33.8661 53.846C33.4741 54.0607 33.0215 54.168 32.5081 54.168C31.9295 54.168 31.4441 54.042 31.0521 53.79C30.6695 53.538 30.3848 53.2067 30.1981 52.796C30.0115 52.3853 29.9181 51.9373 29.9181 51.452V46.72H31.2341V51.326ZM40.4255 54.168C39.4921 54.168 38.7408 53.958 38.1715 53.538C37.6115 53.118 37.3081 52.4787 37.2615 51.62H38.5775C38.6335 52.1427 38.8108 52.5207 39.1095 52.754C39.4175 52.978 39.8608 53.09 40.4395 53.09C40.9528 53.09 41.3541 53.0013 41.6435 52.824C41.9328 52.6373 42.0775 52.3807 42.0775 52.054C42.0775 51.83 42.0355 51.6527 41.9515 51.522C41.8675 51.3913 41.6948 51.2793 41.4335 51.186C41.1815 51.0833 40.7941 50.99 40.2715 50.906C39.5435 50.7847 38.9741 50.626 38.5635 50.43C38.1621 50.2247 37.8775 49.982 37.7095 49.702C37.5508 49.4127 37.4715 49.0627 37.4715 48.652C37.4715 48.0173 37.7235 47.5087 38.2275 47.126C38.7408 46.7433 39.4081 46.552 40.2295 46.552C41.1721 46.552 41.9095 46.7667 42.4415 47.196C42.9735 47.616 43.2488 48.2087 43.2675 48.974H41.9655C41.9468 48.4793 41.7835 48.134 41.4755 47.938C41.1675 47.7327 40.7521 47.63 40.2295 47.63C39.8095 47.63 39.4641 47.7187 39.1935 47.896C38.9228 48.0733 38.7875 48.316 38.7875 48.624C38.7875 48.8387 38.8388 49.0113 38.9415 49.142C39.0441 49.2727 39.2261 49.3847 39.4875 49.478C39.7488 49.5713 40.1361 49.66 40.6495 49.744C41.3588 49.8653 41.9141 50.024 42.3155 50.22C42.7168 50.4067 42.9968 50.64 43.1555 50.92C43.3235 51.2 43.4075 51.55 43.4075 51.97C43.4075 52.6607 43.1321 53.202 42.5815 53.594C42.0308 53.9767 41.3121 54.168 40.4255 54.168ZM44.5464 46.72H45.8764V54H44.5464V46.72ZM44.5464 43.92H45.8624V45.404H44.5464V43.92ZM52.3995 49.394C52.3995 48.89 52.2642 48.4887 51.9935 48.19C51.7322 47.882 51.3402 47.728 50.8175 47.728C50.5655 47.728 50.2902 47.7887 49.9915 47.91C49.6928 48.022 49.4268 48.2413 49.1935 48.568C48.9602 48.8947 48.8435 49.352 48.8435 49.94V54H47.5275V46.72H48.7875V47.77C49.0488 47.3967 49.3755 47.1027 49.7675 46.888C50.1595 46.664 50.6122 46.552 51.1255 46.552C51.7042 46.552 52.1848 46.678 52.5675 46.93C52.9595 47.182 53.2488 47.5133 53.4355 47.924C53.6222 48.3347 53.7155 48.7827 53.7155 49.268V54H52.3995V49.394ZM58.5108 54.168C57.8202 54.168 57.2135 54.0047 56.6908 53.678C56.1682 53.3513 55.7622 52.8987 55.4728 52.32C55.1928 51.7413 55.0528 51.088 55.0528 50.36C55.0528 49.632 55.1928 48.9787 55.4728 48.4C55.7622 47.8213 56.1682 47.3687 56.6908 47.042C57.2135 46.7153 57.8202 46.552 58.5108 46.552C59.2015 46.552 59.8035 46.7153 60.3168 47.042C60.8395 47.3687 61.2408 47.826 61.5208 48.414C61.8102 48.9927 61.9548 49.6507 61.9548 50.388V50.808H56.4388C56.5042 51.48 56.7142 52.0167 57.0688 52.418C57.4328 52.8193 57.9135 53.02 58.5108 53.02C58.9682 53.02 59.3648 52.9127 59.7008 52.698C60.0462 52.4833 60.3028 52.18 60.4708 51.788H61.8148C61.5815 52.516 61.1708 53.0947 60.5828 53.524C60.0042 53.9533 59.3135 54.168 58.5108 54.168ZM60.5688 49.702C60.4662 49.086 60.2375 48.6007 59.8828 48.246C59.5375 47.882 59.0802 47.7 58.5108 47.7C57.9415 47.7 57.4795 47.882 57.1248 48.246C56.7702 48.6007 56.5462 49.086 56.4528 49.702H60.5688ZM65.9645 54.168C65.0312 54.168 64.2798 53.958 63.7105 53.538C63.1505 53.118 62.8472 52.4787 62.8005 51.62H64.1165C64.1725 52.1427 64.3498 52.5207 64.6485 52.754C64.9565 52.978 65.3998 53.09 65.9785 53.09C66.4918 53.09 66.8932 53.0013 67.1825 52.824C67.4718 52.6373 67.6165 52.3807 67.6165 52.054C67.6165 51.83 67.5745 51.6527 67.4905 51.522C67.4065 51.3913 67.2338 51.2793 66.9725 51.186C66.7205 51.0833 66.3332 50.99 65.8105 50.906C65.0825 50.7847 64.5132 50.626 64.1025 50.43C63.7012 50.2247 63.4165 49.982 63.2485 49.702C63.0898 49.4127 63.0105 49.0627 63.0105 48.652C63.0105 48.0173 63.2625 47.5087 63.7665 47.126C64.2798 46.7433 64.9472 46.552 65.7685 46.552C66.7112 46.552 67.4485 46.7667 67.9805 47.196C68.5125 47.616 68.7878 48.2087 68.8065 48.974H67.5045C67.4858 48.4793 67.3225 48.134 67.0145 47.938C66.7065 47.7327 66.2912 47.63 65.7685 47.63C65.3485 47.63 65.0032 47.7187 64.7325 47.896C64.4618 48.0733 64.3265 48.316 64.3265 48.624C64.3265 48.8387 64.3778 49.0113 64.4805 49.142C64.5832 49.2727 64.7652 49.3847 65.0265 49.478C65.2878 49.5713 65.6752 49.66 66.1885 49.744C66.8978 49.8653 67.4532 50.024 67.8545 50.22C68.2558 50.4067 68.5358 50.64 68.6945 50.92C68.8625 51.2 68.9465 51.55 68.9465 51.97C68.9465 52.6607 68.6712 53.202 68.1205 53.594C67.5698 53.9767 66.8512 54.168 65.9645 54.168ZM72.7594 54.168C71.8261 54.168 71.0748 53.958 70.5054 53.538C69.9454 53.118 69.6421 52.4787 69.5954 51.62H70.9114C70.9674 52.1427 71.1448 52.5207 71.4434 52.754C71.7514 52.978 72.1948 53.09 72.7734 53.09C73.2868 53.09 73.6881 53.0013 73.9774 52.824C74.2668 52.6373 74.4114 52.3807 74.4114 52.054C74.4114 51.83 74.3694 51.6527 74.2854 51.522C74.2014 51.3913 74.0288 51.2793 73.7674 51.186C73.5154 51.0833 73.1281 50.99 72.6054 50.906C71.8774 50.7847 71.3081 50.626 70.8974 50.43C70.4961 50.2247 70.2114 49.982 70.0434 49.702C69.8848 49.4127 69.8054 49.0627 69.8054 48.652C69.8054 48.0173 70.0574 47.5087 70.5614 47.126C71.0748 46.7433 71.7421 46.552 72.5634 46.552C73.5061 46.552 74.2434 46.7667 74.7754 47.196C75.3074 47.616 75.5828 48.2087 75.6014 48.974H74.2994C74.2808 48.4793 74.1174 48.134 73.8094 47.938C73.5014 47.7327 73.0861 47.63 72.5634 47.63C72.1434 47.63 71.7981 47.7187 71.5274 47.896C71.2568 48.0733 71.1214 48.316 71.1214 48.624C71.1214 48.8387 71.1728 49.0113 71.2754 49.142C71.3781 49.2727 71.5601 49.3847 71.8214 49.478C72.0828 49.5713 72.4701 49.66 72.9834 49.744C73.6928 49.8653 74.2481 50.024 74.6494 50.22C75.0508 50.4067 75.3308 50.64 75.4894 50.92C75.6574 51.2 75.7414 51.55 75.7414 51.97C75.7414 52.6607 75.4661 53.202 74.9154 53.594C74.3648 53.9767 73.6461 54.168 72.7594 54.168ZM79.7951 43.92H86.6411V45.18H81.1951V48.134H86.3611V49.38H81.1951V54H79.7951V43.92ZM91.0115 54.168C90.2835 54.168 89.6488 54.0047 89.1075 53.678C88.5755 53.3513 88.1648 52.8987 87.8755 52.32C87.5862 51.7413 87.4415 51.088 87.4415 50.36C87.4415 49.632 87.5862 48.9787 87.8755 48.4C88.1648 47.8213 88.5755 47.3687 89.1075 47.042C89.6488 46.7153 90.2835 46.552 91.0115 46.552C91.7395 46.552 92.3695 46.7153 92.9015 47.042C93.4428 47.3687 93.8582 47.8213 94.1475 48.4C94.4368 48.9787 94.5815 49.632 94.5815 50.36C94.5815 51.088 94.4368 51.7413 94.1475 52.32C93.8582 52.8987 93.4428 53.3513 92.9015 53.678C92.3695 54.0047 91.7395 54.168 91.0115 54.168ZM88.8135 50.36C88.8135 51.1627 89.0002 51.8067 89.3735 52.292C89.7468 52.768 90.2928 53.006 91.0115 53.006C91.7302 53.006 92.2762 52.768 92.6495 52.292C93.0228 51.8067 93.2095 51.1627 93.2095 50.36C93.2095 49.5573 93.0228 48.918 92.6495 48.442C92.2762 47.9567 91.7302 47.714 91.0115 47.714C90.2928 47.714 89.7468 47.9567 89.3735 48.442C89.0002 48.918 88.8135 49.5573 88.8135 50.36ZM95.9259 46.72H97.1859V47.98C97.4473 47.4853 97.7693 47.14 98.1519 46.944C98.5439 46.7387 98.9873 46.636 99.4819 46.636H100.042V47.896H99.4399C98.7586 47.896 98.2219 48.0733 97.8299 48.428C97.4379 48.7733 97.2419 49.366 97.2419 50.206V54H95.9259V46.72ZM110.358 49.394C110.358 48.8993 110.232 48.498 109.98 48.19C109.737 47.882 109.387 47.728 108.93 47.728C108.51 47.728 108.104 47.8867 107.712 48.204C107.329 48.5213 107.138 49.1 107.138 49.94V54H105.808V49.394C105.808 48.8993 105.682 48.498 105.43 48.19C105.187 47.882 104.837 47.728 104.38 47.728C104.137 47.728 103.881 47.7887 103.61 47.91C103.339 48.022 103.097 48.2413 102.882 48.568C102.677 48.8947 102.574 49.352 102.574 49.94V54H101.258V46.72H102.518V47.756C103.013 46.9533 103.736 46.552 104.688 46.552C105.22 46.552 105.668 46.678 106.032 46.93C106.396 47.182 106.676 47.518 106.872 47.938C107.115 47.518 107.432 47.182 107.824 46.93C108.216 46.678 108.687 46.552 109.238 46.552C109.77 46.552 110.218 46.678 110.582 46.93C110.955 47.182 111.231 47.5133 111.408 47.924C111.595 48.3347 111.688 48.7827 111.688 49.268V54H110.358V49.394ZM116.493 54.168C115.803 54.168 115.196 54.0047 114.673 53.678C114.151 53.3513 113.745 52.8987 113.455 52.32C113.175 51.7413 113.035 51.088 113.035 50.36C113.035 49.632 113.175 48.9787 113.455 48.4C113.745 47.8213 114.151 47.3687 114.673 47.042C115.196 46.7153 115.803 46.552 116.493 46.552C117.184 46.552 117.786 46.7153 118.299 47.042C118.822 47.3687 119.223 47.826 119.503 48.414C119.793 48.9927 119.937 49.6507 119.937 50.388V50.808H114.421C114.487 51.48 114.697 52.0167 115.051 52.418C115.415 52.8193 115.896 53.02 116.493 53.02C116.951 53.02 117.347 52.9127 117.683 52.698C118.029 52.4833 118.285 52.18 118.453 51.788H119.797C119.564 52.516 119.153 53.0947 118.565 53.524C117.987 53.9533 117.296 54.168 116.493 54.168ZM118.551 49.702C118.449 49.086 118.22 48.6007 117.865 48.246C117.52 47.882 117.063 47.7 116.493 47.7C115.924 47.7 115.462 47.882 115.107 48.246C114.753 48.6007 114.529 49.086 114.435 49.702H118.551ZM126.761 54V52.894C126.5 53.3047 126.164 53.622 125.753 53.846C125.342 54.0607 124.866 54.168 124.325 54.168C123.616 54.168 123.009 54.0047 122.505 53.678C122.001 53.3513 121.618 52.9033 121.357 52.334C121.096 51.7553 120.965 51.0973 120.965 50.36C120.965 49.6227 121.096 48.9693 121.357 48.4C121.618 47.8213 122.001 47.3687 122.505 47.042C123.009 46.7153 123.616 46.552 124.325 46.552C125.361 46.552 126.154 46.9487 126.705 47.742V43.92H128.021V54H126.761ZM122.337 50.36C122.337 51.1627 122.524 51.8067 122.897 52.292C123.27 52.768 123.816 53.006 124.535 53.006C125.244 53.006 125.786 52.768 126.159 52.292C126.532 51.8067 126.719 51.1627 126.719 50.36C126.719 49.5573 126.532 48.918 126.159 48.442C125.786 47.9567 125.244 47.714 124.535 47.714C123.816 47.714 123.27 47.9567 122.897 48.442C122.524 48.918 122.337 49.5573 122.337 50.36Z" fill="#93AFAA"/>
</svg>
