<svg width="48" height="48" viewBox="0 0 48 48" fill="none" xmlns="http://www.w3.org/2000/svg">
<rect width="48" height="48" rx="12" fill="#98FFA1"/>
<path d="M21.9997 14.5983V25.9694H14.9001C14.2305 25.9694 13.8306 25.1846 14.2565 24.6326L21.9997 14.5983ZM23.9997 20.0306V14.333C23.9997 12.5215 21.7034 11.7086 20.5819 13.1619L12.6732 23.4108C11.2462 25.26 12.5477 27.9694 14.9001 27.9694H21.9997V33.6671C21.9997 35.4785 24.296 36.2915 25.4175 34.8382L33.3262 24.5892C34.7532 22.74 33.4517 20.0306 31.0993 20.0306H23.9997ZM23.9997 22.0306H31.0993C31.7688 22.0306 32.1688 22.8155 31.7429 23.3674L23.9997 33.4017V22.0306Z" fill="#050C0B"/>
</svg>
