<svg width="48" height="48" viewBox="0 0 48 48" fill="none" xmlns="http://www.w3.org/2000/svg">
<rect width="48" height="48" rx="12" fill="#98FFA1"/>
<path d="M15 24C15 22.067 16.567 20.5 18.5 20.5C19.7035 20.5 20.5196 20.9338 21.1991 21.6134C21.9255 22.3397 22.4851 23.3322 23.1258 24.4856L23.1595 24.5462C23.7605 25.6283 24.4431 26.8573 25.3866 27.8009C26.3946 28.8088 27.7035 29.5 29.5 29.5C32.5376 29.5 35 27.0376 35 24C35 20.9624 32.5376 18.5 29.5 18.5C27.8394 18.5 26.3508 19.2359 25.3423 20.3994C25.7887 21.0541 26.1574 21.7058 26.464 22.2574C27.0681 21.2072 28.2014 20.5 29.5 20.5C31.433 20.5 33 22.067 33 24C33 25.933 31.433 27.5 29.5 27.5C28.2965 27.5 27.4804 27.0662 26.8009 26.3866C26.0745 25.6603 25.5149 24.6678 24.8742 23.5144L24.8405 23.4538C24.2395 22.3717 23.5569 21.1426 22.6134 20.1991C21.6054 19.1912 20.2965 18.5 18.5 18.5C15.4624 18.5 13 20.9624 13 24C13 27.0376 15.4624 29.5 18.5 29.5C20.1606 29.5 21.6492 28.7641 22.6577 27.6006C22.2113 26.9459 21.8426 26.2942 21.536 25.7426C20.9319 26.7928 19.7986 27.5 18.5 27.5C16.567 27.5 15 25.933 15 24Z" fill="#050C0B"/>
</svg>
