<svg width="48" height="48" viewBox="0 0 48 48" fill="none" xmlns="http://www.w3.org/2000/svg">
<rect width="48" height="48" rx="12" fill="#98FFA1"/>
<path d="M19 20.8293C20.1652 20.4175 21 19.3062 21 18C21 16.3432 19.6568 15 18 15C16.3432 15 15 16.3432 15 18C15 19.3062 15.8348 20.4175 17 20.8293V27.1707C15.8348 27.5825 15 28.6938 15 30C15 31.6569 16.3432 33 18 33C19.6568 33 21 31.6569 21 30C21 28.6938 20.1652 27.5825 19 27.1707V20.8293ZM33 30C33 31.6569 31.6569 33 30 33C28.3431 33 27 31.6569 27 30C27 28.3431 28.3431 27 30 27C31.6569 27 33 28.3431 33 30ZM30 19.5C30.8284 19.5 31.5 18.8284 31.5 18C31.5 17.1716 30.8284 16.5 30 16.5C29.1716 16.5 28.5 17.1716 28.5 18C28.5 18.8284 29.1716 19.5 30 19.5ZM31.5 23.5C31.5 24.3284 30.8284 25 30 25C29.1716 25 28.5 24.3284 28.5 23.5C28.5 22.6716 29.1716 22 30 22C30.8284 22 31.5 22.6716 31.5 23.5Z" fill="#050C0B"/>
</svg>
