<svg width="129" height="30" viewBox="0 0 129 30" fill="none" xmlns="http://www.w3.org/2000/svg">
<path fill-rule="evenodd" clip-rule="evenodd" d="M14.299 0.5C15.3 0.5 16.1115 1.31148 16.1115 2.3125V8.7592C16.1495 8.76899 16.1873 8.77905 16.225 8.78956L20.3544 1.63724L21.5752 2.34209C22.442 2.8426 22.7391 3.95109 22.2386 4.81801L19.0149 10.4015C19.0427 10.4288 19.0702 10.4563 19.0976 10.4842L26.2512 6.35401L26.956 7.57491C27.4566 8.44183 27.1595 9.55027 26.2926 10.0508L20.711 13.2733C20.7217 13.3118 20.732 13.3505 20.7421 13.3893H29V14.799C29 15.8 28.1885 16.6115 27.1875 16.6115H20.7422C20.7324 16.6496 20.7222 16.6877 20.7117 16.7256L27.8623 20.854L27.1574 22.0749C26.6569 22.9418 25.5484 23.2388 24.6814 22.7384L19.0993 19.5155C19.0718 19.5434 19.0441 19.5711 19.0162 19.5986L23.1457 26.751L21.925 27.4559C21.0581 27.9564 19.9496 27.6593 19.449 26.7925L16.2268 21.2113C16.1884 21.222 16.1501 21.2323 16.1115 21.2422V29.5H14.7018C13.7008 29.5 12.8893 28.6885 12.8893 27.6875V21.242C12.8507 21.2321 12.8123 21.2218 12.774 21.2112L8.6449 28.3631L7.424 27.6582C6.55708 27.1577 6.2601 26.0492 6.76062 25.1823L9.98461 19.598C9.95652 19.5705 9.92869 19.5426 9.90105 19.5145L2.74748 23.6446L2.04257 22.4236C1.54208 21.5567 1.83911 20.4483 2.70601 19.9478L8.28929 16.7242C8.27896 16.6868 8.2689 16.6492 8.2592 16.6115H0V15.2018C0 14.2008 0.811483 13.3893 1.8125 13.3893H8.25938C8.26917 13.351 8.27941 13.3127 8.29001 13.2748L1.13636 9.14454L1.84122 7.92373C2.34172 7.05681 3.45018 6.75974 4.3171 7.26026L9.90277 10.4852C9.93023 10.4571 9.95796 10.4294 9.98597 10.4021L5.85519 3.24746L7.07609 2.54261C7.94301 2.04209 9.05153 2.33912 9.55197 3.20603L12.7757 8.78974C12.8135 8.77923 12.8513 8.76917 12.8893 8.75938V0.5H14.299ZM17.354 16.4993L17.2282 16.7173C16.9679 17.1299 16.6166 17.4793 16.2026 17.7373L16.0148 17.8458C15.5819 18.0766 15.0901 18.2116 14.5679 18.2223H14.4335C13.8929 18.2112 13.385 18.067 12.9413 17.8212L12.8429 17.7643C12.3786 17.4852 11.9905 17.0924 11.7169 16.6245L11.6995 16.5944C11.4315 16.1244 11.2785 15.5805 11.2785 15.0007C11.2785 13.221 12.721 11.7785 14.5007 11.7785C15.0638 11.7785 15.593 11.9228 16.0536 12.1767L16.1648 12.2408C16.6077 12.5084 16.981 12.8797 17.251 13.321L17.3336 13.4639C17.5718 13.9023 17.7114 14.4021 17.7223 14.9335V15.0679C17.7117 15.5839 17.5798 16.0702 17.354 16.4993Z" fill="#050C0B"/>
<path d="M37 20.5435V6.47826H45.1498C47.0435 6.47826 48.4782 6.7971 49.4542 7.43478C50.4447 8.05797 50.9399 8.99275 50.9399 10.2391C50.9399 11.0362 50.7433 11.6667 50.35 12.1304C49.9567 12.5797 49.3959 12.913 48.6676 13.1304C47.9538 13.3478 47.109 13.4855 46.1331 13.5435L46.2205 13.3913C46.9342 13.4058 47.6043 13.4565 48.2306 13.5435C48.8715 13.6304 49.4323 13.7899 49.913 14.0217C50.3937 14.2536 50.7724 14.5797 51.0492 15C51.3259 15.4058 51.4643 15.942 51.4643 16.6087C51.4643 17.4783 51.2313 18.2029 50.7651 18.7826C50.299 19.3478 49.6508 19.7754 48.8205 20.0652C47.9903 20.3551 47.0289 20.5145 45.9364 20.5435H37ZM39.906 18.1522H45.6305C46.5482 18.1522 47.2547 18.0072 47.7499 17.7174C48.2452 17.413 48.4928 16.9348 48.4928 16.2826C48.4928 15.8043 48.3471 15.4565 48.0558 15.2391C47.7645 15.0217 47.3785 14.8913 46.8978 14.8478C46.4171 14.7899 45.9 14.7609 45.3465 14.7609H39.906V18.1522ZM39.906 12.4348H45.0406C45.9583 12.4348 46.6647 12.3043 47.16 12.0435C47.6552 11.7681 47.9029 11.3043 47.9029 10.6522C47.9029 10 47.6552 9.54348 47.16 9.28261C46.6647 9.00725 46.0092 8.86957 45.1935 8.86957H39.906V12.4348ZM53.6771 9.73913H56.5175V20.5435H53.6771V9.73913ZM60.6908 12.0652C59.8751 12.0652 59.1686 12.2246 58.5714 12.5435C57.9742 12.8478 57.4935 13.2246 57.1293 13.6739C56.7652 14.1232 56.5103 14.558 56.3646 14.9783L56.3427 13.7826C56.3573 13.6087 56.4156 13.3551 56.5175 13.0217C56.6195 12.6739 56.7725 12.3043 56.9764 11.913C57.1803 11.5072 57.4498 11.1232 57.7848 10.7609C58.1198 10.3841 58.5277 10.0797 59.0084 9.84783C59.4891 9.61594 60.0499 9.5 60.6908 9.5V12.0652ZM65.7023 5V7.47826H62.4031V5H65.7023ZM62.6215 9.73913H65.462V20.5435H62.6215V9.73913ZM73.7119 18.8913C72.532 18.8913 71.4905 18.7174 70.5874 18.3696C69.6989 18.0072 69.007 17.4783 68.5117 16.7826C68.0164 16.087 67.7688 15.2464 67.7688 14.2609C67.7688 13.2899 68.0092 12.4493 68.4899 11.7391C68.9705 11.029 69.6552 10.4783 70.5437 10.087C71.4468 9.69565 72.5029 9.5 73.7119 9.5C74.0469 9.5 74.3673 9.52174 74.6732 9.56522C74.9937 9.6087 75.3069 9.66667 75.6128 9.73913L81.0967 9.76087V11.8913C80.3538 11.9058 79.5964 11.8188 78.8244 11.6304C78.0672 11.4275 77.3971 11.2101 76.8145 10.9783L76.7489 10.8261C77.2442 11.058 77.7103 11.3478 78.1473 11.6957C78.584 12.029 78.9336 12.4203 79.1958 12.8696C79.4726 13.3043 79.6109 13.8116 79.6109 14.3913C79.6109 15.3333 79.3706 16.1449 78.8899 16.8261C78.4095 17.4928 77.7249 18.0072 76.8363 18.3696C75.9624 18.7174 74.9209 18.8913 73.7119 18.8913ZM77.3607 25V24.4783C77.3607 23.8116 77.1422 23.3478 76.7052 23.087C76.2828 22.8261 75.7002 22.6957 74.9573 22.6957H71.5706C70.9151 22.6957 70.3616 22.6449 69.9101 22.5435C69.4731 22.442 69.1235 22.2971 68.8613 22.1087C68.5991 21.9203 68.4097 21.6957 68.2932 21.4348C68.1767 21.1884 68.1184 20.9203 68.1184 20.6304C68.1184 20.0507 68.3078 19.6159 68.6865 19.3261C69.0652 19.0217 69.575 18.8188 70.216 18.7174C70.8569 18.6159 71.5633 18.5942 72.3354 18.6522L73.7119 18.8913C72.7942 18.9203 72.1096 19 71.658 19.1304C71.221 19.2464 71.0025 19.4855 71.0025 19.8478C71.0025 20.0652 71.0899 20.2391 71.2647 20.3696C71.4395 20.4855 71.6871 20.5435 72.0076 20.5435H75.5691C76.545 20.5435 77.3753 20.6449 78.0599 20.8478C78.7588 21.0652 79.2905 21.4203 79.6546 21.913C80.0188 22.4203 80.2009 23.1087 80.2009 23.9783V25H77.3607ZM73.7119 16.8478C74.3382 16.8478 74.8844 16.7464 75.3506 16.5435C75.8313 16.3406 76.2027 16.0507 76.4649 15.6739C76.7271 15.2826 76.8582 14.8188 76.8582 14.2826C76.8582 13.7319 76.7271 13.2609 76.4649 12.8696C76.2027 12.4783 75.8385 12.1812 75.3724 11.9783C74.9063 11.7609 74.3528 11.6522 73.7119 11.6522C73.0855 11.6522 72.532 11.7609 72.0513 11.9783C71.5706 12.1812 71.1992 12.4783 70.937 12.8696C70.6748 13.2609 70.5437 13.7319 70.5437 14.2826C70.5437 14.8188 70.6748 15.2826 70.937 15.6739C71.1992 16.0507 71.5633 16.3406 72.0295 16.5435C72.5101 16.7464 73.0709 16.8478 73.7119 16.8478ZM92.8717 20.5435V14.6087C92.8717 14.0145 92.7698 13.5217 92.5658 13.1304C92.3619 12.7391 92.0342 12.442 91.5826 12.2391C91.1456 12.0362 90.5557 11.9348 89.8128 11.9348C89.099 11.9348 88.4508 12.0725 87.8682 12.3478C87.2855 12.6087 86.8121 12.9565 86.448 13.3913C86.0838 13.8116 85.8799 14.2609 85.8362 14.7391L85.8144 13.5435C85.8872 13.0652 86.0547 12.587 86.3169 12.1087C86.5791 11.6304 86.9287 11.1957 87.3657 10.8043C87.8026 10.413 88.327 10.1014 88.9388 9.86957C89.5652 9.62319 90.2644 9.5 91.0364 9.5C91.7064 9.5 92.3255 9.58696 92.8936 9.76087C93.4616 9.92029 93.9569 10.1739 94.3793 10.5217C94.8017 10.8696 95.1295 11.3043 95.3626 11.8261C95.5956 12.3333 95.7121 12.9348 95.7121 13.6304V20.5435H92.8717ZM83.1487 20.5435V5.3913H85.9891V20.5435H83.1487ZM97.5284 9.73913H105.962V11.9348H97.5284V9.73913ZM100.325 6.78261H103.166V20.5435H100.325V6.78261ZM107.986 5.3913H110.826V20.5435H107.986V5.3913ZM112.716 9.73913H115.731L120.428 20.1087L117.981 20.5435L112.716 9.73913ZM126 9.73913L118.484 24.8913H115.534L118.746 18.9348L122.963 9.73913H126Z" fill="#050C0B"/>
</svg>
