<svg width="96" height="30" viewBox="0 0 96 30" fill="none" xmlns="http://www.w3.org/2000/svg">
<g clip-path="url(#clip0_78_72)">
<path fill-rule="evenodd" clip-rule="evenodd" d="M47.7377 5.18119e-05C47.7334 2.85001 48.9925 4.38435 50.9603 5.721L50.0267 5.49838C49.7338 5.42853 49.2922 5.49838 49.2939 5.74127L49.317 9.01395C49.5763 9.13463 49.9648 9.2682 50.2425 9.38153C50.9237 9.65963 50.6329 7.41472 50.6307 7.26562C53.1369 5.1886 51.0944 4.31409 49.1754 2.48849C50.8822 3.73081 55.9929 6.03843 58.2206 6.32066L58.251 6.31672L58.4833 10.4773C58.5116 10.6798 58.6201 10.8722 58.9052 10.7515C59.1108 10.6646 59.3797 10.5589 59.6071 10.4631L59.3867 6.89745C59.3758 6.72143 59.3291 6.4796 58.7332 6.25739C61.6614 6.77567 65.1779 6.92407 68.3183 6.3312C65.9959 8.47073 63.4916 8.52577 61.9581 8.52637C62.0103 9.354 62.1151 10.4746 62.9821 11.1287C62.4479 11.1455 62.1896 10.943 62.1161 10.7138L62.2276 12.1996L65.8279 9.97185C65.3918 10.479 65.3399 10.9501 65.3424 11.4122C65.3449 11.7872 65.6636 14.906 65.7933 16.3174C65.8226 16.6366 66.0691 16.8085 66.263 16.8085C66.4082 16.8084 66.5995 16.77 66.79 16.6661L66.1279 9.83273C67.0015 9.2784 68.2173 8.17095 68.4242 7.2878L69.0052 12.5375C69.1681 12.9811 69.4252 13.3999 69.8464 13.7136C69.4956 13.7247 69.2593 13.6411 69.1135 13.5168C69.3418 15.579 69.5771 17.6162 69.8126 19.7434C69.7788 18.7232 70.6532 17.8342 71.3428 17.7014L70.1672 7.8822C70.6333 7.43764 71.1983 6.83239 71.1267 6.76663C71.0752 6.71978 70.2476 7.48167 70.0811 7.59503C68.177 4.20683 64.398 3.32749 61.5706 2.67079C68.26 3.49786 70.8656 4.90941 73.6453 9.07763C73.0118 8.77538 72.8477 8.84858 72.9115 9.32557L73.2308 11.633C73.2653 11.8913 73.5323 12.0941 73.7033 12.0187C73.9139 11.9257 74.1946 11.8194 74.4231 11.7172L73.7462 6.87518C73.6675 6.31257 73.4757 5.9845 72.5771 5.70287L75.1882 6.4466C75.159 6.35801 74.8073 6.08102 74.7868 5.7568C75.0555 6.14619 75.486 6.44359 75.921 6.65842L77.7083 7.1692C77.2995 7.1692 77.2342 7.19696 77.3257 7.33283C78.0465 8.40893 78.636 10.1313 78.9105 11.3374C79.2405 10.1667 79.5045 8.78063 79.8158 7.62953C79.8435 7.5288 79.923 7.44074 79.467 7.28649L80.9137 7.47734C75.54 3.5119 72.1622 0.758303 68.2192 0.92169C70.6661 0.624132 74.8409 1.73478 78.8753 4.0796C79.9365 4.69634 81.2903 5.493 82.131 5.99164C82.1355 5.85962 81.747 5.37515 81.8528 5.00039C82.0342 5.54118 82.4408 6.03704 82.899 6.45054C87.036 8.8611 88.728 9.45848 93.567 8.6088C91.2772 10.0964 86.922 10.9888 83.0092 8.89013L83.775 12.9587C83.9797 13.6236 84.387 14.2129 85.1663 13.9777C86.0145 13.4101 86.4323 12.8749 86.856 12.6223C87.2002 12.4177 86.994 12.2711 86.8372 12.234L87.513 12.2407H93.6548C94.1813 12.257 95.238 12.0947 96 11.8033C94.2765 12.7455 93.0142 13.3679 93.0352 13.7631C93.009 13.2703 92.8575 13.008 92.8575 13.0071C88.2907 12.5801 84.1965 14.4742 84.8767 18.8198L84.9607 19.2646C87.4365 20.1423 90.123 21.7696 93.1065 24.333C90.9135 22.9003 87.1087 20.1368 81.8078 19.7284C83.052 20.0756 84.3668 20.6934 85.4392 21.8102C84.0952 20.6144 80.4308 19.5833 79.0898 19.7519C74.0355 20.3871 70.3065 25.1337 71.5623 27.8399C65.2231 32.2999 52.801 29.6324 51.0206 21.8734C52.0026 23.5592 54.4913 25.0021 57.4342 25.754C57.3439 25.4842 57.262 25.2319 57.1984 25.0287C57.7112 25.5178 58.3637 25.9773 59.016 26.0823C62.5828 26.6568 66.4327 26.174 68.8162 23.9833C72.8863 20.2427 76.9928 18.0864 81.5325 18.4954L81.1185 16.0803C80.9745 16.274 80.7323 16.4923 80.3708 16.7036C81.294 15.8186 80.7428 14.1316 80.6438 13.3068L80.4195 11.9991C80.3895 11.3388 80.25 10.1404 80.1315 10.1252C80.097 10.1209 80.1225 11.0108 80.1225 11.2818C79.5675 12.487 79.3118 14.0263 79.3965 15.1883C79.0957 13.8155 77.9618 11.3375 76.9155 10.0926L78.1395 18.0244C77.1375 18.0244 75.5182 18.3894 74.7281 18.8246C75.2137 18.5385 75.3938 18.3943 75.2917 17.9289L74.4518 11.923C73.8987 12.112 73.3362 12.4232 73.4146 12.9337L74.2663 18.9347C73.6864 19.1129 72.5 19.4821 71.8918 19.7518L71.5526 18.2053L71.1892 20.0861C69.7229 21.2626 68.6337 22.218 67.457 23.5516L66.8 16.7701C66.3456 16.9636 65.8888 17.2785 65.9273 17.6985C65.9315 17.7435 65.9327 17.7806 65.9305 17.8103L66.4987 23.9936C65.2886 24.7558 64.4803 25.0132 63.021 25.1696C60.8315 21.9347 58.6616 19.0483 54.8167 18.5227L59.2752 16.3769C58.8302 16.7681 58.5395 17.0438 58.8457 17.2428C60.8857 18.5709 61.8884 19.4951 62.921 21.0832C62.958 21.2392 62.9996 21.3974 63.0495 21.5599C63.0772 21.6511 63.2936 22.9558 63.3335 22.952C63.4199 22.9431 63.3871 22.2764 63.3202 21.6269L63.0488 18.1033C63.0038 18.1723 62.927 18.2711 62.8044 18.3868C62.9266 17.9188 62.9554 17.2969 62.9416 16.7115L62.7823 14.6452C59.806 14.8483 58.3221 15.5434 55.7857 17.2429C57.4342 15.6176 58.5231 14.6235 60.1034 13.4582C60.2834 13.3438 60.4628 13.2249 60.6416 13.09C60.7118 13.0373 61.7869 12.4342 61.7644 12.4042C61.7051 12.3243 60.8272 12.7186 60.1928 13.0448L59.3938 13.3672C59.6977 13.1279 59.7595 12.9288 59.7356 12.5419L59.6165 10.6147C59.0612 10.8048 58.517 11.0803 58.5488 11.6495L58.6641 13.7137C56.9111 14.4955 56.0194 15.3232 55.3652 17.2428L53.998 16.798L54.0994 19.7312C53.2804 19.6173 52.8419 19.6356 52.0685 19.6356L54.2708 20.3231C56.8951 21.3438 60.0476 22.9919 62.378 25.3688C58.3847 22.7885 55.1852 21.9635 50.8273 21.0426L50.7894 18.3821C50.7275 18.6239 50.4766 18.8339 49.9306 18.8162C50.6353 18.6404 50.7596 17.6275 50.7652 16.6914C50.7341 14.5077 50.7036 12.3726 50.6738 10.2844C50.6648 9.65205 50.099 9.48728 49.3189 9.27615L49.3985 20.5462C49.1568 20.7571 48.735 21.2985 48.7479 21.6172C48.9191 21.4756 49.0561 21.3067 49.2321 21.1616C49.3032 21.1031 49.3777 21.0382 49.45 20.9704L50.6494 21.73C48.6672 23.2617 47.949 25.9192 47.7413 28.7659C47.3168 25.8245 46.5087 23.2997 44.8511 21.73L46.0734 20.957C46.2976 21.1451 46.6521 21.458 46.6807 21.6172C46.6915 21.3644 46.4685 21.1393 46.3181 20.9519C46.2344 20.8477 46.1836 20.7241 46.1041 20.6215L46.201 10.5092C45.4779 10.6655 44.6743 11.0303 44.6735 11.6688L44.6324 13.4008C44.6288 14.2112 44.5875 15.9463 45.4303 16.8632C45.231 16.8071 44.8279 16.5227 44.5817 16.2719L44.4975 21.0425C40.1367 21.9634 34.9315 22.5871 31.0941 25.2818C33.8366 22.1037 37.2569 21.5711 39.4732 20.6038C37.6905 20.6688 36.7002 20.7291 35.0017 21.2528C35.0027 20.9788 35.0354 20.7377 35.0652 20.2833L35.2942 16.7859C34.8222 16.9807 34.3429 17.2892 34.3142 17.6968C34.312 17.7294 34.3085 17.7578 34.3044 17.7824L34.0427 21.5106C32.245 22.3875 31.3781 23.1151 30.1529 24.6734C29.0428 24.2857 28.4411 23.9044 27.2675 23.0153C26.3873 22.3484 25.7143 21.3496 24.3075 20.3929L28.9967 18.2832C28.3229 18.8216 28.1287 19.0702 28.4692 19.312L29.8256 20.7151C29.7713 21.7111 29.7609 22.7327 29.8721 22.7374C29.9178 22.7387 30.0913 21.1483 30.1513 20.6955L30.8576 20.0755L31.2517 15.5384L29.1472 17.3464C28.8096 17.6365 28.3732 17.7998 27.9351 17.7998H26.7625C27.291 17.6557 27.6116 17.579 27.3253 17.2982L25.2764 15.1665L25.9174 9.73748C25.9136 9.35475 25.7454 9.1278 25.3918 8.93048L24.4492 16.6949C24.4456 17.3408 24.5711 17.9948 25.0574 18.4441C24.5927 18.4592 24.3585 18.3104 24.2764 18.1175L24.0301 20.1458C21.1396 18.1284 19.3005 17.7815 15.8373 17.5447L16.5078 13.4832C15.9576 13.6552 15.2476 13.991 15.1663 14.4655C15.1621 14.4902 15.1574 14.5124 15.1525 14.5322L14.4793 18.463C18.8408 18.2274 22.8075 20.3627 26.7388 23.9831C28.9507 26.0201 32.4375 26.5811 35.7891 26.1863C36.5408 26.0977 37.3429 25.599 37.9436 25.0285C37.8764 25.2417 37.7168 25.5497 37.5116 25.897C40.715 25.1972 43.486 23.6741 44.539 21.8731C42.7416 29.6322 30.3137 32.2997 23.9842 27.8397C25.2376 25.1512 21.5754 20.4485 16.575 19.7648C15.725 19.6486 11.852 20.6668 10.567 21.8101C11.6757 20.6554 13.0436 20.034 14.3254 19.6937C8.72288 19.9421 4.72145 22.8497 2.44822 24.3329C5.62516 21.6079 8.46682 19.9396 11.0755 19.1059L11.0903 19.0274C11.0891 19.028 11.0879 19.0286 11.0868 19.0293C11.932 14.5342 7.78012 12.5731 3.14278 13.0068C3.14172 13.0086 2.99141 13.2709 2.96453 13.7629C2.98609 13.3676 1.72348 12.7453 0 11.8031C0.76176 12.0945 1.81871 12.2568 2.34468 12.2405H9.4941C9.33705 12.2777 9.02108 12.5841 9.20685 12.7208C9.63112 12.9736 9.98497 13.4099 10.8335 13.9775C11.6347 14.2192 12.0426 13.5902 12.2418 12.9032C12.5269 11.3865 12.8108 9.87735 13.0977 8.35102C8.97645 11.1249 4.1096 10.2133 1.64712 8.60865C6.38203 9.4407 8.10563 8.88488 12.0745 6.5948C12.6003 6.15473 13.0884 5.6056 13.2941 5.00024C13.4129 5.42738 13.1071 5.88618 13.1035 6.00138C13.9677 5.4907 15.2587 4.71631 16.3573 4.07945C20.4017 1.73463 24.5813 0.623982 27.0269 0.92154C23.2481 0.764895 19.9817 3.28479 14.9798 6.97945L16.5604 6.31167L15.3814 13.1962C15.3795 13.3435 15.459 13.4305 15.7523 13.4305C15.9899 13.4305 16.287 13.3784 16.5376 13.3033L17.0955 9.92385C17.1748 9.4437 17.0126 9.37012 16.3673 9.67425C18.3149 6.87933 20.3137 5.32432 23.3978 4.3505C24.9649 3.85565 30.1141 2.88102 32.3755 2.60194C29.2673 3.25363 25.8745 4.95615 25.6955 6.43057L25.4119 8.76622C25.4848 8.79555 25.5549 8.82397 25.6185 8.85135C25.8928 8.9694 26.0123 8.7888 26.053 8.59088L26.3578 6.00942C27.8759 6.41024 29.5191 6.50842 31.1237 6.43476C31.5455 6.32151 31.9559 6.14839 32.3034 5.89187C32.2108 6.09191 32.1282 6.25025 32.0581 6.37289C33.5322 6.24636 34.9403 5.99344 36.1564 5.7211C35.3421 5.99924 35.1146 6.18254 35.0931 6.5513L34.9196 9.02258C34.8803 9.5835 34.5965 11.1042 35.3344 11.2835C34.9669 11.295 34.8094 11.1568 34.7807 10.9998L34.4188 16.155C34.3592 17.0032 35.1589 16.6865 35.3045 16.6299L35.9713 6.4466C40.0117 5.66327 42.8036 4.56881 46.2869 2.48834C44.3486 4.32697 42.3865 5.114 44.7512 7.26547L44.6959 10.4069L44.6974 10.406C44.6805 10.6432 44.7485 10.9369 45.1003 10.7924C45.4509 10.6484 45.9767 10.4724 46.2029 10.3298L46.2438 6.06969C46.2482 5.6061 45.8305 5.39637 45.4027 5.49834L44.4685 5.72095C46.2592 4.4629 47.7335 2.85001 47.7377 5.18119e-05ZM39.1442 7.9458C38.6095 7.59495 37.3994 6.92447 37.3223 7.0118C37.2988 7.03857 38.2936 7.68427 38.3573 7.73903C38.5514 7.90575 38.7478 8.05118 38.9448 8.19353L38.8502 10.1306C38.8456 10.7227 38.8862 11.3768 39.031 11.8574C38.9024 11.7432 38.8232 11.6468 38.7794 11.5818L38.7458 12.2686H38.7352L38.4193 18.7311L40.3083 20.2833L41.2338 19.9263L41.6963 6.74196L39.1442 7.9458ZM23.388 5.92054C21.8419 6.58017 21.095 7.38671 20.2092 8.52165C20.0117 8.343 19.9059 8.2482 19.6357 8.06775C19.5532 8.01278 19.5013 7.94422 19.4213 7.89067C19.3594 8.0073 19.4552 8.0961 19.5122 8.17253C19.6401 8.34375 19.7307 8.40683 19.9156 8.53635C19.9871 8.58712 20.0505 8.64262 20.1238 8.6922L19.1178 15.4035C20.3887 15.4035 21.5788 15.8166 21.973 16.4531L23.388 5.92054ZM29.1268 7.57155C29.0883 7.50405 28.1427 7.03832 28.0841 7.094C28.0699 7.10758 28.5658 7.38876 28.5968 7.41318C28.8708 7.62937 29.0144 7.69245 29.2217 7.85895L28.7101 12.9036L30.5225 14.7332L31.3856 13.9972L31.9213 7.82977C30.8737 7.8555 30.2832 7.8519 29.2798 7.66537C29.2326 7.63163 29.1834 7.5993 29.1268 7.57155ZM53.7897 9.00345C53.827 9.6255 53.9192 10.3424 54.1166 10.8577C53.9633 10.7312 53.873 10.6267 53.8281 10.5633L53.918 14.2114L55.4029 14.7021C55.6099 14.1569 55.7734 13.8719 56.2988 13.4618L56.0589 7.94828C56.1459 7.8816 56.2322 7.81245 56.3177 7.7391C56.3821 7.68435 57.3815 7.03867 57.3582 7.01186C57.2964 6.94154 56.4978 7.36214 55.9076 7.71202C55.0479 7.45942 54.5425 7.23461 53.7313 6.63995C53.7509 7.42787 53.7702 8.2155 53.7897 9.00345Z" fill="#050C0B"/>
</g>
<defs>
<clipPath id="clip0_78_72">
<rect width="96" height="30" fill="white"/>
</clipPath>
</defs>
</svg>
