<svg width="48" height="48" viewBox="0 0 48 48" fill="none" xmlns="http://www.w3.org/2000/svg">
<rect width="48" height="48" rx="12" fill="#98FFA1"/>
<path d="M22.0049 32.9998H15.0049C14.4526 32.9998 14.0049 32.5521 14.0049 31.9998V15.9998C14.0049 15.4475 14.4526 14.9998 15.0049 14.9998H22.0049C22.0049 16.1043 22.9003 16.9998 24.0049 16.9998C25.1095 16.9998 26.0049 16.1043 26.0049 14.9998H33.0049C33.5572 14.9998 34.0049 15.4475 34.0049 15.9998V31.9998C34.0049 32.5521 33.5572 32.9998 33.0049 32.9998H26.0049C26.0049 31.8952 25.1095 30.9998 24.0049 30.9998C22.9003 30.9998 22.0049 31.8952 22.0049 32.9998ZM20.54 30.9998C21.2316 29.8042 22.5243 28.9998 24.0049 28.9998C25.4854 28.9998 26.7781 29.8042 27.4698 30.9998H32.0049V16.9998H27.4698C26.7781 18.1954 25.4854 18.9998 24.0049 18.9998C22.5243 18.9998 21.2316 18.1954 20.54 16.9998H16.0049V30.9998H20.54ZM18.0049 19.9998H20.0049V27.9998H18.0049V19.9998ZM28.0049 19.9998H30.0049V27.9998H28.0049V19.9998Z" fill="#050C0B"/>
</svg>
